<svg id="Layer_1" data-name="Layer 1" xmlns="http://www.w3.org/2000/svg" viewBox="0 0 120 50"><defs><style>.cls-1{fill:#2f2f30;}.cls-2{opacity:0.33;}.cls-3{fill:#191919;}.cls-4,.cls-5{fill:#fff;}.cls-5{font-size:11.7px;font-family:SegoeUI-Semibold, Segoe UI;font-weight:600;letter-spacing:0.05em;}.cls-6{letter-spacing:-0.01em;}</style></defs><rect class="cls-1" x="-1.99" y="-2.2" width="123.99" height="54.39"/><g class="cls-2"><path class="cls-3" d="M108.62-32.81a7.52,7.52,0,0,1,5.23,1.37c6.65,3.86,13.31,7.69,20,11.55a10.28,10.28,0,0,1,3.31,2.4,7.93,7.93,0,0,1,1.6,4.76q0,12.35,0,24.68a7.69,7.69,0,0,1-1.94,5.3,12.69,12.69,0,0,1-3,2q-10.28,6-20.57,11.89a6.92,6.92,0,0,1-7.17,0q-10.27-6-20.55-11.89A10.53,10.53,0,0,1,82,16.87a7,7,0,0,1-1.51-4q0-13.26,0-26.53a6.8,6.8,0,0,1,3.15-5.3q11.15-6.43,22.28-12.88A7,7,0,0,1,108.62-32.81Zm-.57,3.14c-7.59,4.34-15.14,8.77-22.74,13.11a4.48,4.48,0,0,0-2.06,3.84V11.94a4.47,4.47,0,0,0,2.14,4q11.16,6.4,22.29,12.88a4,4,0,0,0,3.84-.05q11.15-6.45,22.33-12.88a4.22,4.22,0,0,0,2-3.77q0-12.56,0-25.11a4.24,4.24,0,0,0-1.08-2.86,11.85,11.85,0,0,0-2.63-1.73q-10.35-5.94-20.69-11.94A4.3,4.3,0,0,0,108.05-29.67Z"/><path class="cls-3" d="M108.23-24.28a5.1,5.1,0,0,1,3.86.53c5.48,3.21,11,6.33,16.5,9.55a5.1,5.1,0,0,1,2.53,4.45c0,6.24,0,12.48,0,18.73a5.1,5.1,0,0,1-2.48,4.54c-5.52,3.24-11.09,6.38-16.61,9.61a4.74,4.74,0,0,1-5,0c-4.91-2.86-9.84-5.67-14.76-8.52a14.21,14.21,0,0,1-2.9-1.93,5.92,5.92,0,0,1-1.45-3.9q0-9.13,0-18.28A6,6,0,0,1,89.14-13a7,7,0,0,1,2.36-1.76c4.23-2.5,8.52-4.9,12.76-7.38A30.38,30.38,0,0,1,108.23-24.28Zm2.67,3.15c0,6.14,0,12.28,0,18.42,1.61-.9,3.19-1.85,4.8-2.77,3.79-2.1,7.49-4.36,11.3-6.42C121.59-14.94,116.27-18.08,110.9-21.13ZM92.14-11.92C94.46-10.69,96.69-9.33,99-8c2.16-3.91,4.51-7.7,6.65-11.62C101.1-17.1,96.68-14.4,92.14-11.92Zm9.25,5.24c2.25,1.33,4.54,2.58,6.78,3.92,0-5.21,0-10.42,0-15.63C106-14.45,103.59-10.61,101.39-6.68ZM90.75-9.46c0,5.16,0,10.33,0,15.5C93,2.16,95.3-1.68,97.49-5.59,95.27-6.92,93-8.14,90.75-9.46ZM112.38-.34c2.3,1.26,4.54,2.63,6.83,3.89,1.07-2.08,2.37-4,3.47-6.07,1-1.82,2.16-3.61,3.13-5.48C121.33-5.46,116.88-2.85,112.38-.34Zm9.25,5.24c2.21,1.36,4.5,2.57,6.74,3.87,0-5.18,0-10.36,0-15.54C126.15-2.86,123.84,1,121.63,4.9ZM99.9-4.22c-1,2-2.25,3.81-3.29,5.77s-2.28,3.87-3.35,5.86c.78-.48,1.55-1,2.37-1.39,3.73-2.09,7.4-4.29,11.15-6.35C104.44-1.54,102.21-3,99.9-4.22ZM92.2,11.26c5.33,3,10.62,6.13,16,9.19,0-6.12,0-12.23,0-18.34Q100.19,6.7,92.2,11.26Zm18.66-9.19c0,5.23,0,10.47.06,15.7,2.24-3.93,4.57-7.81,6.8-11.75C115.45,4.68,113.15,3.36,110.86,2.07Zm9.28,5.31c-2.19,3.92-4.51,7.77-6.72,11.68q6.72-4,13.51-7.81C124.64,10,122.42,8.63,120.14,7.38Z"/></g><path class="cls-4" d="M33.22,6.94a2.51,2.51,0,0,1,1.72.45l6.56,3.8a3.18,3.18,0,0,1,1.09.79,2.59,2.59,0,0,1,.52,1.56v8.11a2.56,2.56,0,0,1-.64,1.75,3.89,3.89,0,0,1-1,.66L34.72,28a2.25,2.25,0,0,1-2.36,0l-6.75-3.9a3.66,3.66,0,0,1-1.13-.81A2.27,2.27,0,0,1,24,22V13.24a2.25,2.25,0,0,1,1-1.74l7.33-4.24A2.47,2.47,0,0,1,33.22,6.94ZM33,8c-2.5,1.42-5,2.88-7.48,4.3a1.48,1.48,0,0,0-.67,1.26v8.11a1.46,1.46,0,0,0,.7,1.33c2.45,1.4,4.89,2.82,7.33,4.23a1.31,1.31,0,0,0,1.26,0L41.51,23a1.39,1.39,0,0,0,.66-1.24V13.47a1.48,1.48,0,0,0-.35-.94A4.21,4.21,0,0,0,41,12L34.15,8A1.39,1.39,0,0,0,33,8Z"/><path class="cls-4" d="M33.1,9.75a1.68,1.68,0,0,1,1.26.17C36.17,11,38,12,39.79,13.06a1.7,1.7,0,0,1,.83,1.46v6.16a1.7,1.7,0,0,1-.81,1.49c-1.82,1.06-3.65,2.09-5.46,3.16a1.58,1.58,0,0,1-1.65,0l-4.84-2.8a5.13,5.13,0,0,1-1-.63,2,2,0,0,1-.47-1.28v-6a2,2,0,0,1,.39-1.15,2.65,2.65,0,0,1,.78-.58c1.39-.81,2.8-1.6,4.19-2.42A11,11,0,0,1,33.1,9.75Zm.87,1q0,3,0,6.06l1.58-.91c1.24-.69,2.46-1.44,3.71-2.11C37.49,12.82,35.74,11.78,34,10.78Zm-6.16,3c.76.4,1.5.85,2.24,1.28.71-1.28,1.48-2.53,2.18-3.82C30.75,12.11,29.3,13,27.81,13.81Zm3,1.72c.74.44,1.49.85,2.23,1.29,0-1.71,0-3.43,0-5.14C32.35,13,31.57,14.24,30.85,15.53Zm-3.5-.91c0,1.69,0,3.39,0,5.09.73-1.27,1.49-2.54,2.21-3.82C28.84,15.45,28.08,15.05,27.35,14.62Zm7.11,3c.76.42,1.49.87,2.25,1.28.34-.68.77-1.32,1.13-2s.71-1.19,1-1.8C37.4,15.93,35.94,16.79,34.46,17.61Zm3,1.73c.72.44,1.48.84,2.21,1.27V15.5C39,16.79,38.23,18.05,37.5,19.34Zm-7.14-3c-.33.65-.74,1.25-1.08,1.89s-.75,1.28-1.1,1.93c.25-.16.51-.32.77-.46,1.23-.68,2.44-1.41,3.67-2.08C31.85,17.22,31.12,16.75,30.36,16.34Zm-2.53,5.08,5.24,3q0-3,0-6Zm6.13-3c0,1.72,0,3.44,0,5.16.74-1.3,1.5-2.57,2.23-3.87C35.47,19.26,34.71,18.83,34,18.41Zm3,1.74c-.72,1.29-1.48,2.55-2.21,3.84,1.47-.87,3-1.72,4.44-2.57C38.49,21,37.76,20.56,37,20.15Z"/><path class="cls-4" d="M47.2,11.58h4.51a6.29,6.29,0,0,1,3.87,1.32,5.78,5.78,0,0,1,2,3.87,7.08,7.08,0,0,1-.16,2.34,5.63,5.63,0,0,1-2.86,3.54,7.23,7.23,0,0,1-3.65.8c-1.21,0-2.42,0-3.63,0Zm1.58,1.49q0,4.45,0,8.89c.88,0,1.77,0,2.65,0A5.06,5.06,0,0,0,55,20.25a4.55,4.55,0,0,0,.94-2.63,5,5,0,0,0-1-3,4.21,4.21,0,0,0-3.17-1.57C50.79,13.06,49.78,13.08,48.78,13.07Z"/><path class="cls-4" d="M58.36,11.57h8.52v1.51C64.62,16,62.38,19,60.13,22H67c0,.5,0,1,0,1.51H58.1V22C60.36,19,62.61,16,64.88,13.1H58.36Z"/><path class="cls-4" d="M70.91,15.37a4.3,4.3,0,0,1,3,.57,4.11,4.11,0,0,1,1.79,2.3,5.42,5.42,0,0,1,.08,2.16A4,4,0,0,1,74,23a4.34,4.34,0,0,1-4,.29,4.17,4.17,0,0,1-2.16-2.21,4.65,4.65,0,0,1-.25-2.25A4.15,4.15,0,0,1,70.91,15.37Zm.34,1.34a2.58,2.58,0,0,0-1.74,1.08,3.22,3.22,0,0,0,.09,3.51,2.72,2.72,0,0,0,4.13.05,3.14,3.14,0,0,0-.09-3.83A2.66,2.66,0,0,0,71.25,16.71Z"/><path class="cls-4" d="M79.25,15.87a3.48,3.48,0,0,1,2.91-.42,2.52,2.52,0,0,1,1.74,1.78,7.42,7.42,0,0,1,.15,1.41v4.81h-1.5c0-1.57,0-3.14,0-4.71a2.07,2.07,0,0,0-.7-1.69,2.09,2.09,0,0,0-2.85.43,3.15,3.15,0,0,0-.55,1.82c0,1.39,0,2.77,0,4.16H77c0-2.66,0-5.31,0-8,.48,0,1,0,1.44,0,0,.4,0,.81,0,1.22A3.66,3.66,0,0,1,79.25,15.87Z"/><path class="cls-4" d="M87.44,15.65a4.57,4.57,0,0,1,2.48-.29A3.43,3.43,0,0,1,92.37,17,5.34,5.34,0,0,1,93,20H86.63a2.1,2.1,0,0,0,.63,1.53,3.14,3.14,0,0,0,2,.86,3,3,0,0,0,2.3-1.23c.37.3.74.59,1.13.87a5.52,5.52,0,0,1-1,.95,4.77,4.77,0,0,1-3.24.61,3.82,3.82,0,0,1-2.68-1.7,4.74,4.74,0,0,1-.57-3.36A4,4,0,0,1,87.44,15.65Zm-.8,3.22q2.4,0,4.8,0a2.58,2.58,0,0,0-.53-1.62,2.18,2.18,0,0,0-1.32-.74A2.5,2.5,0,0,0,86.64,18.87Z"/><path class="cls-4" d="M94.62,23.42a1.34,1.34,0,0,1-1-.4,1.25,1.25,0,0,1-.41-1,1.29,1.29,0,0,1,.41-1,1.4,1.4,0,0,1,2,0,1.29,1.29,0,0,1,.41,1,1.25,1.25,0,0,1-.41,1A1.34,1.34,0,0,1,94.62,23.42Zm0-2.5a1.14,1.14,0,0,0-1.14,1.14,1.08,1.08,0,0,0,.33.8,1.14,1.14,0,0,0,.81.34,1.11,1.11,0,0,0,.81-.34,1.09,1.09,0,0,0,.34-.8,1.1,1.1,0,0,0-.34-.8A1.07,1.07,0,0,0,94.62,20.92Zm.71,2h-.4l-.17-.39c-.09-.2-.18-.3-.28-.3h-.1v.69h-.33V21.19h.52a.9.9,0,0,1,.5.12.45.45,0,0,1,.06.65.54.54,0,0,1-.31.16h0c.1,0,.19.13.29.32Zm-1-1.44V22h.19c.21,0,.32-.08.32-.25a.2.2,0,0,0-.09-.18.49.49,0,0,0-.27-.06Z"/><text class="cls-5" transform="translate(17 41.53)">HALL OF <tspan class="cls-6" x="53.74" y="0">F</tspan><tspan x="59.5" y="0">AME</tspan></text></svg>