<svg id="Layer_1" data-name="Layer 1" xmlns="http://www.w3.org/2000/svg" viewBox="0 0 70 30"><defs><style>.cls-1{fill:#2f2f30;}.cls-2{opacity:0.33;}.cls-3{fill:#191919;}.cls-4,.cls-5{fill:#fff;}.cls-5{font-size:6.76px;font-family:SegoeUI-Semibold, Segoe UI;font-weight:600;letter-spacing:0.05em;}.cls-6{letter-spacing:-0.01em;}</style></defs><rect class="cls-1" x="-0.79" y="-0.7" width="71.58" height="31.4"/><g class="cls-2"><path class="cls-3" d="M64.89-11.31a3.72,3.72,0,0,1,2.62.68l10,5.78a5.19,5.19,0,0,1,1.66,1.2,3.91,3.91,0,0,1,.79,2.38V11.07a3.87,3.87,0,0,1-1,2.66,6.19,6.19,0,0,1-1.52,1q-5.13,3-10.28,6a3.46,3.46,0,0,1-3.59,0c-3.42-2-6.86-4-10.28-6a5.23,5.23,0,0,1-1.71-1.23,3.48,3.48,0,0,1-.76-2c0-4.43,0-8.85,0-13.27a3.41,3.41,0,0,1,1.58-2.65c3.71-2.15,7.43-4.29,11.14-6.45A3.6,3.6,0,0,1,64.89-11.31ZM64.6-9.74C60.81-7.57,57-5.36,53.23-3.19a2.21,2.21,0,0,0-1,1.92c0,4.11,0,8.23,0,12.34a2.21,2.21,0,0,0,1.06,2l11.15,6.44a2,2,0,0,0,1.92,0q5.58-3.24,11.17-6.45a2.1,2.1,0,0,0,1-1.88c0-4.19,0-8.38,0-12.56A2.21,2.21,0,0,0,78-2.81a6.85,6.85,0,0,0-1.32-.87q-5.18-3-10.35-6A2.18,2.18,0,0,0,64.6-9.74Z"/><path class="cls-3" d="M64.7-7a2.52,2.52,0,0,1,1.92.27c2.75,1.6,5.52,3.16,8.26,4.77A2.57,2.57,0,0,1,76.15.22c0,3.12,0,6.24,0,9.37a2.57,2.57,0,0,1-1.24,2.27c-2.76,1.62-5.55,3.19-8.31,4.81a2.39,2.39,0,0,1-2.5,0c-2.45-1.43-4.92-2.84-7.38-4.27a6.76,6.76,0,0,1-1.45-1,3,3,0,0,1-.73-1.95q0-4.58,0-9.15a3,3,0,0,1,.6-1.74,3.58,3.58,0,0,1,1.18-.88C58.45-3.53,60.59-4.74,62.71-6A16.55,16.55,0,0,1,64.7-7ZM66-5.47c0,3.07,0,6.14,0,9.21.81-.45,1.6-.93,2.4-1.38,1.9-1,3.75-2.19,5.65-3.21C71.38-2.37,68.72-3.95,66-5.47ZM56.65-.87c1.16.62,2.28,1.3,3.41,2,1.08-1.95,2.26-3.85,3.32-5.81C61.13-3.46,58.92-2.11,56.65-.87Zm4.63,2.62c1.12.67,2.27,1.29,3.39,2,0-2.61,0-5.22,0-7.82C63.55-2.13,62.38-.21,61.28,1.75ZM56,.36c0,2.59,0,5.17,0,7.76,1.11-1.94,2.26-3.87,3.36-5.82C58.21,1.64,57.07,1,56,.36ZM66.77,4.92c1.15.63,2.27,1.32,3.42,2,.53-1,1.19-2,1.73-3S73,2,73.49,1.09C71.25,2.37,69,3.67,66.77,4.92ZM71.4,7.55c1.1.68,2.25,1.28,3.37,1.93q0-3.89,0-7.77C73.66,3.66,72.5,5.59,71.4,7.55ZM60.53,3c-.49,1-1.12,1.9-1.64,2.88S57.74,7.81,57.21,8.8c.39-.24.77-.48,1.18-.69C60.26,7.06,62.1,6,64,4.93,62.8,4.32,61.69,3.61,60.53,3Zm-3.85,7.74c2.67,1.51,5.31,3.07,8,4.59,0-3.06,0-6.11,0-9.17Q60.68,8.45,56.68,10.73ZM66,6.13c0,2.62,0,5.24,0,7.86,1.12-2,2.29-3.91,3.4-5.88C68.31,7.44,67.16,6.78,66,6.13Zm4.64,2.65c-1.09,2-2.25,3.89-3.36,5.85,2.24-1.32,4.5-2.62,6.76-3.91C72.9,10.1,71.8,9.41,70.65,8.78Z"/></g><path class="cls-4" d="M19.54,4.58a1.41,1.41,0,0,1,1,.26c1.26.73,2.53,1.45,3.79,2.19a2,2,0,0,1,.63.45,1.55,1.55,0,0,1,.3.91v4.68a1.41,1.41,0,0,1-.37,1,2.22,2.22,0,0,1-.57.39l-3.9,2.26a1.35,1.35,0,0,1-1.37,0l-3.89-2.25a1.94,1.94,0,0,1-.66-.47,1.38,1.38,0,0,1-.28-.76v-5a1.27,1.27,0,0,1,.6-1L19,4.76A1.36,1.36,0,0,1,19.54,4.58Zm-.11.59C18,6,16.56,6.84,15.12,7.66a.85.85,0,0,0-.39.73v4.68a.83.83,0,0,0,.4.76c1.42.81,2.82,1.63,4.23,2.45a.79.79,0,0,0,.73,0q2.11-1.23,4.24-2.45a.79.79,0,0,0,.38-.71c0-1.59,0-3.18,0-4.77a.83.83,0,0,0-.21-.54,2.41,2.41,0,0,0-.5-.33q-2-1.12-3.92-2.26A.82.82,0,0,0,19.43,5.17Z"/><path class="cls-4" d="M19.47,6.19a1,1,0,0,1,.73.1c1,.61,2.09,1.2,3.13,1.82a1,1,0,0,1,.48.84V12.5a1,1,0,0,1-.47.87c-1.05.61-2.1,1.2-3.15,1.82a.9.9,0,0,1-1,0c-.93-.55-1.87-1.08-2.8-1.62a2.53,2.53,0,0,1-.55-.37,1.06,1.06,0,0,1-.27-.74V9a1.14,1.14,0,0,1,.22-.66A1.45,1.45,0,0,1,16.29,8l2.42-1.4A6.93,6.93,0,0,1,19.47,6.19Zm.5.6v3.5c.3-.17.6-.36.91-.53.72-.4,1.42-.83,2.14-1.22C22,8,21,7.37,20,6.79ZM16.41,8.54c.44.23.87.49,1.3.74.41-.74.85-1.46,1.26-2.21C18.11,7.56,17.28,8.07,16.41,8.54Zm1.76,1,1.29.75c0-1,0-2,0-3C19,8.06,18.59,8.79,18.17,9.53Zm-2-.53c0,1,0,2,0,2.95l1.27-2.21C17,9.49,16.57,9.26,16.15,9Zm4.11,1.74c.43.23.86.49,1.29.73.2-.39.45-.76.66-1.15s.41-.68.59-1Zm1.75,1c.42.26.85.49,1.28.73,0-1,0-2,0-2.94C22.87,10.26,22.43,11,22,11.73ZM17.89,10c-.19.38-.43.72-.63,1.09s-.43.74-.63,1.12a3.35,3.35,0,0,1,.45-.27c.7-.39,1.4-.81,2.11-1.2C18.75,10.51,18.33,10.24,17.89,10Zm-1.46,2.94c1,.57,2,1.16,3,1.74,0-1.16,0-2.32,0-3.48ZM20,11.19c0,1,0,2,0,3,.42-.74.86-1.48,1.29-2.23Zm1.76,1c-.42.74-.86,1.47-1.28,2.22L23,12.93C22.58,12.7,22.16,12.44,21.73,12.2Z"/><path class="cls-4" d="M27.61,7.25h2.6A3.67,3.67,0,0,1,32.45,8a3.38,3.38,0,0,1,1.13,2.24,4.09,4.09,0,0,1-.09,1.35,3.31,3.31,0,0,1-1.65,2.05,4.28,4.28,0,0,1-2.11.46h-2.1Zm.91.86c0,1.71,0,3.43,0,5.14h1.53a3,3,0,0,0,2.07-1,2.7,2.7,0,0,0,.54-1.52A2.93,2.93,0,0,0,32.09,9a2.43,2.43,0,0,0-1.83-.9Z"/><path class="cls-4" d="M34.05,7.25H39v.87Q37,10.67,35.08,13.24h4v.87H33.9v-.87c1.31-1.7,2.6-3.41,3.92-5.11H34.05Z"/><path class="cls-4" d="M41.3,9.44a2.51,2.51,0,0,1,1.75.33,2.32,2.32,0,0,1,1,1.33,3.09,3.09,0,0,1,.05,1.25,2.35,2.35,0,0,1-1.06,1.49,2.49,2.49,0,0,1-2.34.17,2.34,2.34,0,0,1-1.24-1.27,2.63,2.63,0,0,1-.15-1.3A2.4,2.4,0,0,1,41.3,9.44Zm.19.77a1.52,1.52,0,0,0-1,.63,1.85,1.85,0,0,0,0,2,1.57,1.57,0,0,0,2.38,0,1.8,1.8,0,0,0,0-2.21A1.56,1.56,0,0,0,41.49,10.21Z"/><path class="cls-4" d="M46.11,9.73a2,2,0,0,1,1.69-.24,1.47,1.47,0,0,1,1,1,4.57,4.57,0,0,1,.09.82c0,.93,0,1.85,0,2.78H48V11.38a1.18,1.18,0,0,0-.4-1,1.2,1.2,0,0,0-1.64.25,1.76,1.76,0,0,0-.32,1.05v2.4h-.83c0-1.53,0-3.07,0-4.6h.84c0,.24,0,.47,0,.71A2.27,2.27,0,0,1,46.11,9.73Z"/><path class="cls-4" d="M50.84,9.6a2.69,2.69,0,0,1,1.43-.17,2,2,0,0,1,1.42.94,3,3,0,0,1,.37,1.75H50.37a1.22,1.22,0,0,0,.37.88,1.83,1.83,0,0,0,1.13.5,1.72,1.72,0,0,0,1.33-.71c.22.17.43.34.66.5a3.2,3.2,0,0,1-.61.55,2.74,2.74,0,0,1-1.86.35,2.16,2.16,0,0,1-1.55-1,2.74,2.74,0,0,1-.33-1.94A2.35,2.35,0,0,1,50.84,9.6Zm-.46,1.86c.92,0,1.85,0,2.77,0a1.52,1.52,0,0,0-.31-.94,1.23,1.23,0,0,0-.76-.42A1.43,1.43,0,0,0,50.38,11.46Z"/><path class="cls-4" d="M55,14.09a.81.81,0,0,1-.57-.23.74.74,0,0,1-.24-.56.77.77,0,0,1,.24-.56.8.8,0,0,1,1.37.56.77.77,0,0,1-.23.56A.81.81,0,0,1,55,14.09Zm0-1.45a.65.65,0,0,0-.47.2.62.62,0,0,0-.19.46.64.64,0,0,0,.19.47.68.68,0,0,0,.94,0,.64.64,0,0,0,.19-.47.62.62,0,0,0-.19-.46A.65.65,0,0,0,55,12.64Zm.41,1.15h-.24l-.09-.23c0-.11-.1-.17-.16-.17h-.06v.4h-.19v-1H55a.5.5,0,0,1,.29.07.26.26,0,0,1,.1.2.25.25,0,0,1-.06.17.39.39,0,0,1-.19.1h0c.06,0,.11.08.17.19ZM54.85,13v.28H55c.12,0,.18-.05.18-.14s0-.09,0-.11a.28.28,0,0,0-.15,0Z"/><text class="cls-5" transform="translate(10.18 24.54)">HALL OF <tspan class="cls-6" x="31.03" y="0">F</tspan><tspan x="34.35" y="0">AME</tspan></text></svg>