<?xml version="1.0" encoding="utf-8"?>
<!-- Generator: Adobe Illustrator 25.1.0, SVG Export Plug-In . SVG Version: 6.00 Build 0)  -->
<svg version="1.1" id="Layer_1" xmlns="http://www.w3.org/2000/svg" xmlns:xlink="http://www.w3.org/1999/xlink" x="0px" y="0px"
	 viewBox="0 0 25 25" style="enable-background:new 0 0 25 25;" xml:space="preserve">
<style type="text/css">
	.st0{fill:#FC9D49;}
</style>
<g id="Layer_2_1_">
</g>
<g id="Page-1">
	<g id="_x30_03---Call" transform="translate(-1)">
		<path id="Shape" class="st0" d="M12.1,13.9c-1.5-1.5-1.9-3.1-1.9-3.7c0-0.2,0-0.3,0.2-0.5l1.2-1.2c0.2-0.2,0.2-0.5,0.1-0.7l-2-3.1
			C9.5,4.5,9.2,4.4,9,4.6L5.8,6.1C5.6,6.2,5.5,6.4,5.5,6.6c0.2,1.6,0.9,5.4,4.6,9.2s7.7,4.5,9.2,4.6c0.2,0,0.4-0.1,0.5-0.3l1.5-3.2
			c0.1-0.3,0-0.6-0.2-0.7l-3.1-2c-0.2-0.1-0.5-0.1-0.7,0.1l-1.2,1.2c-0.1,0.1-0.3,0.2-0.5,0.2C15.2,15.7,13.7,15.4,12.1,13.9
			L12.1,13.9z"/>
		<path id="Shape_1_" class="st0" d="M18.2,13.1c-0.3,0-0.6-0.2-0.6-0.6c0-2.3-1.9-4.1-4.1-4.1c-0.3,0-0.6-0.2-0.6-0.6
			c0-0.3,0.2-0.6,0.6-0.6c2.9,0,5.2,2.3,5.2,5.2C18.7,12.8,18.5,13.1,18.2,13.1z"/>
		<path id="Shape_2_" class="st0" d="M20.9,13.1c-0.3,0-0.6-0.2-0.6-0.6c0-3.8-3.1-6.9-6.9-6.9c-0.3,0-0.6-0.2-0.6-0.6
			s0.2-0.6,0.6-0.6c4.4,0,8,3.6,8,8c0,0.1-0.1,0.3-0.2,0.4S21.1,13.1,20.9,13.1z"/>
	</g>
</g>
</svg>
