<?xml version="1.0" encoding="utf-8"?>
<!-- Generator: Adobe Illustrator 25.1.0, SVG Export Plug-In . SVG Version: 6.00 Build 0)  -->
<svg version="1.1" id="Layer_1" xmlns="http://www.w3.org/2000/svg" xmlns:xlink="http://www.w3.org/1999/xlink" x="0px" y="0px"
	 viewBox="0 0 25 25" style="enable-background:new 0 0 25 25;" xml:space="preserve">
<style type="text/css">
	.st0{fill:#FC9D49;}
</style>
<g id="Layer_2_1_">
</g>
<g>
	<g>
		<path class="st0" d="M19.1,18.8c0.4,0,0.7-0.1,0.9-0.4l-4.5-4.5c-0.1,0.1-0.2,0.2-0.3,0.2c-0.3,0.2-0.6,0.4-0.8,0.6
			c-0.2,0.1-0.5,0.3-0.8,0.4c-0.4,0.1-0.7,0.2-1,0.2h0h0c-0.3,0-0.6-0.1-1-0.2c-0.4-0.1-0.6-0.3-0.8-0.4c-0.2-0.1-0.5-0.3-0.8-0.6
			c-0.1-0.1-0.2-0.1-0.3-0.2L5,18.4c0.3,0.2,0.6,0.4,0.9,0.4H19.1z"/>
		<path class="st0" d="M5.4,11c-0.3-0.2-0.6-0.5-0.9-0.8v6.9l4-4C7.7,12.6,6.7,11.9,5.4,11z"/>
		<path class="st0" d="M19.6,11c-1.2,0.8-2.2,1.5-3.1,2.1l4,4v-6.9C20.2,10.6,19.9,10.8,19.6,11z"/>
		<path class="st0" d="M19.1,6.2H5.9c-0.5,0-0.8,0.2-1.1,0.5C4.6,7,4.5,7.4,4.5,7.8c0,0.4,0.2,0.8,0.5,1.2c0.3,0.4,0.7,0.8,1,1
			c0.2,0.1,0.8,0.6,1.8,1.3c0.5,0.4,1,0.7,1.4,1c0.4,0.2,0.7,0.5,0.9,0.6c0,0,0.1,0.1,0.1,0.1c0.1,0,0.1,0.1,0.2,0.2
			c0.2,0.1,0.4,0.3,0.5,0.3c0.1,0.1,0.3,0.2,0.5,0.3c0.2,0.1,0.4,0.2,0.5,0.2c0.2,0.1,0.3,0.1,0.4,0.1h0h0c0.1,0,0.3,0,0.4-0.1
			c0.2-0.1,0.3-0.1,0.5-0.2c0.2-0.1,0.3-0.2,0.5-0.3c0.1-0.1,0.3-0.2,0.5-0.3c0.1-0.1,0.2-0.1,0.2-0.2c0.1,0,0.1-0.1,0.1-0.1
			c0.2-0.1,0.5-0.3,0.9-0.6c0.7-0.5,1.8-1.3,3.3-2.3c0.4-0.3,0.8-0.7,1.1-1.1c0.3-0.4,0.4-0.9,0.4-1.3c0-0.4-0.1-0.7-0.4-1
			C19.8,6.4,19.5,6.2,19.1,6.2z"/>
	</g>
</g>
</svg>
