<?xml version="1.0" encoding="utf-8"?>
<!-- Generator: Adobe Illustrator 23.0.1, SVG Export Plug-In . SVG Version: 6.00 Build 0)  -->
<svg version="1.1" id="Layer_1" xmlns="http://www.w3.org/2000/svg" xmlns:xlink="http://www.w3.org/1999/xlink" x="0px" y="0px"
	 viewBox="0 0 25 25" style="enable-background:new 0 0 25 25;" xml:space="preserve">
<style type="text/css">
	.st0{fill:#FC9D49;}
</style>
<g id="Layer_1_1_">
	<path class="st0" d="M12.5,0.5c-6.6,0-12,5.4-12,12c0,6.6,5.4,12,12,12s12-5.4,12-12C24.5,5.9,19.1,0.5,12.5,0.5z M18.2,8l-5.4,4.4
		c-0.1,0-0.1,0.1-0.2,0.1c-0.1,0-0.1,0-0.2,0s-0.1,0-0.2,0c-0.1,0-0.1-0.1-0.2-0.1L6.8,8H18.2z M19.3,17H5.7V8.9l6.3,5.2
		c0.1,0.1,0.1,0.1,0.2,0.1c0.1,0,0.2,0,0.2,0c0.1,0,0.2,0,0.2,0c0.1,0,0.1-0.1,0.2-0.1l6.3-5.2L19.3,17C19.3,17,19.3,17,19.3,17z"/>
</g>
<g id="Layer_2">
</g>
</svg>
