<?xml version="1.0" encoding="utf-8"?>
<!-- Generator: Adobe Illustrator 23.0.1, SVG Export Plug-In . SVG Version: 6.00 Build 0)  -->
<svg version="1.1" id="Layer_1" xmlns="http://www.w3.org/2000/svg" xmlns:xlink="http://www.w3.org/1999/xlink" x="0px" y="0px"
	 viewBox="0 0 25 25" style="enable-background:new 0 0 25 25;" xml:space="preserve">
<style type="text/css">
	.st0{fill:#FC9D49;}
</style>
<g id="Layer_1_1_">
	<path class="st0" d="M12.5,0.5c-6.6,0-12,5.4-12,12c0,6.6,5.4,12,12,12s12-5.4,12-12C24.5,5.9,19.1,0.5,12.5,0.5z M18.9,18l-1,1
		c-0.2,0.2-0.7,0.3-0.7,0.3c-3,0-6-1.2-8.1-3.3c-2.2-2.2-3.4-5.1-3.3-8.2c0,0,0.1-0.5,0.3-0.7l1-1c0.4-0.4,1-0.5,1.5-0.4l0.2,0.1
		C9.2,6,9.7,6.5,9.8,7l0.5,1.8c0.1,0.5,0,1.2-0.4,1.5L9.2,11c0.6,2.3,2.5,4.2,4.8,4.8l0.6-0.6c0.4-0.4,1-0.5,1.5-0.4l1.8,0.5
		c0.5,0.1,1,0.6,1.2,1.1l0.1,0.2C19.4,17,19.2,17.7,18.9,18z"/>
</g>
<g id="Layer_2">
</g>
</svg>
