<svg width="15" height="15" viewBox="0 0 15 15" fill="none" xmlns="http://www.w3.org/2000/svg">
<path d="M2.04534 15C1.50012 14.9949 0.97879 14.729 0.595451 14.2605C0.212111 13.7919 -0.00200848 13.1589 1.42011e-05 12.5V2.52833C1.42011e-05 2.50666 1.42011e-05 2.48471 1.42011e-05 2.46249C0.005963 1.81004 0.223637 1.18648 0.606141 0.725962C0.988645 0.265441 1.50541 0.00476453 2.04534 0H12.9547C13.4946 0.00476453 14.0114 0.265441 14.3939 0.725962C14.7764 1.18648 14.994 1.81004 15 2.46249C15 2.48416 15 2.50582 15 2.52749V12.5C15.002 13.1589 14.7879 13.7919 14.4046 14.2605C14.0213 14.729 13.4999 14.9949 12.9547 15H2.04534ZM1.36337 12.5C1.36336 12.7194 1.43493 12.93 1.56262 13.086C1.69031 13.2421 1.86377 13.3309 2.04534 13.3333H12.9547C13.1362 13.3309 13.3097 13.2421 13.4374 13.086C13.5651 12.93 13.6367 12.7194 13.6367 12.5V4.10082L7.89103 9.01751C7.7768 9.11558 7.64014 9.16824 7.50002 9.16824C7.3599 9.16824 7.22324 9.11558 7.10901 9.01751L1.36337 4.10082V12.5ZM7.50069 7.31583L13.565 2.12832C13.5087 1.99066 13.422 1.87461 13.3143 1.79309C13.2067 1.71156 13.0824 1.6678 12.9554 1.66667H2.04606C1.91902 1.6678 1.79476 1.71156 1.68712 1.79309C1.57948 1.87461 1.49266 1.99066 1.43644 2.12832L7.50069 7.31583Z" fill="#388EE9"/>
</svg>
