<svg width="15" height="15" viewBox="0 0 15 15" fill="none" xmlns="http://www.w3.org/2000/svg">
<path d="M13.6288 10.8886C13.6371 10.7191 13.5821 10.5525 13.4744 10.4213C13.3667 10.29 13.2141 10.2034 13.0461 10.1784C12.3366 10.0849 11.6399 9.91163 10.9694 9.66178C10.8474 9.61584 10.7147 9.60566 10.5871 9.63245C10.4595 9.65923 10.3422 9.72188 10.249 9.813L9.37875 10.6819C9.27277 10.7877 9.13498 10.8557 8.98658 10.8758C8.83817 10.8958 8.68728 10.8666 8.55704 10.7928C6.73468 9.75863 5.22543 8.25217 4.18849 6.43232C4.11459 6.30218 4.08546 6.15142 4.10549 6.00313C4.12553 5.85483 4.19361 5.71719 4.29941 5.61129L5.16702 4.74507C5.25921 4.65186 5.32263 4.53415 5.34982 4.40595C5.37701 4.27774 5.36683 4.14444 5.32039 4.02188C5.07096 3.35497 4.89775 2.66202 4.80409 1.95625C4.78068 1.79054 4.69729 1.63915 4.56972 1.53072C4.44216 1.4223 4.27928 1.36435 4.11185 1.36784H2.05768C1.96256 1.36791 1.86852 1.38777 1.78151 1.42618C1.69451 1.46458 1.61643 1.52067 1.55232 1.59088C1.4891 1.65954 1.44074 1.74047 1.41023 1.82865C1.37972 1.91682 1.36768 2.01033 1.37496 2.10335C1.58912 4.11302 2.27459 6.04389 3.37572 7.73916C4.37428 9.30979 5.70688 10.6413 7.2787 11.6392C8.96495 12.7311 10.8836 13.4134 12.8811 13.6316C12.9761 13.6402 13.0719 13.629 13.1623 13.5985C13.2527 13.568 13.3358 13.519 13.4061 13.4546C13.4764 13.3902 13.5325 13.3118 13.5708 13.2244C13.609 13.1371 13.6285 13.0427 13.6281 12.9473L13.6288 10.8886ZM14.9982 10.8961V12.9378C14.9996 13.2249 14.9407 13.509 14.8253 13.772C14.7099 14.0349 14.5405 14.2707 14.3282 14.4641C14.1159 14.6576 13.8654 14.8043 13.5927 14.895C13.3201 14.9857 13.0315 15.0181 12.7455 14.9904C10.5328 14.7508 8.40691 13.9965 6.53847 12.7879C4.79971 11.6851 3.3251 10.2135 2.21924 8.47743C1.00115 6.60001 0.243625 4.46184 0.00826884 2.23677C-0.0173122 1.95285 0.0166234 1.66671 0.107818 1.39659C0.199012 1.12647 0.345467 0.878285 0.537943 0.667866C0.73042 0.457446 0.964701 0.289414 1.22576 0.174442C1.48682 0.0594702 1.76896 8.31794e-05 2.05425 9.12096e-05H4.10366C4.60303 -0.00461097 5.08701 0.17264 5.46508 0.498672C5.84315 0.824704 6.08943 1.2772 6.15783 1.77152C6.23776 2.37651 6.38585 2.97052 6.5994 3.54223C6.73759 3.91016 6.7672 4.31001 6.68466 4.69424C6.60212 5.07848 6.41096 5.43095 6.13384 5.7098L5.6422 6.20038C6.44817 7.4625 7.52061 8.53321 8.78439 9.33747L9.27879 8.84415C9.55797 8.5681 9.91049 8.37781 10.2946 8.29583C10.6787 8.21386 11.0782 8.24363 11.4459 8.38163C12.0207 8.59584 12.618 8.74435 13.2262 8.82431C13.7244 8.8929 14.18 9.14168 14.5068 9.52351C14.8337 9.90535 15.009 10.3937 14.9996 10.8961H14.9982Z" fill="#388EE9"/>
</svg>
