<?xml version="1.0" encoding="utf-8"?>
<!-- Generator: Adobe Illustrator 23.0.1, SVG Export Plug-In . SVG Version: 6.00 Build 0)  -->
<svg version="1.1" id="Layer_1" xmlns="http://www.w3.org/2000/svg" xmlns:xlink="http://www.w3.org/1999/xlink" x="0px" y="0px"
	 viewBox="0 0 167.3 1460" style="enable-background:new 0 0 167.3 1460;" xml:space="preserve">
<style type="text/css">
	.st0{fill:#FFFFFF;}
</style>
<g>
	<path class="st0" d="M96.5,1202.1l28,7.3c2.7,0.7,2.9,0.9,2.9,3.8v16.9c0,2.6-0.5,3.4-1.9,3.4c-0.7,0-0.9,0-2.2-0.5l-110.1-33.6
		c-2.7-0.9-2.9-1-2.9-3.8v-17.8c0-2.7,0.2-2.9,2.9-3.8l110.1-33.6c1.2-0.3,1.7-0.5,2.2-0.5c1.4,0,1.9,0.9,1.9,3.4v18.6
		c0,2.9-0.2,3.2-2.9,3.9l-28,7.3C96.5,1173.3,96.5,1202.1,96.5,1202.1z M80.4,1177.7l-29.2,6.3c-7,1.5-10.1,2.1-23.1,4.3
		c9.9,1.5,13.8,2.2,23.1,4.4l29.2,6.8V1177.7z"/>
	<path class="st0" d="M86.2,1108.4c12-2.9,19-4.6,29.5-6.7c-7.5-1.4-9.6-1.7-14.3-2.6c-2.9-0.5-5.6-1-7.9-1.5l-7.3-1.7l-41.8-9.6
		c-2.1-0.3-2.6-0.9-2.6-1.9c0-0.2,0-0.7,0.2-1.4l1.7-15c0.2-2,0.7-2.7,1.7-2.7c0.5,0,0.5,0,1.7,0.3l62.5,17.1c3.4,1,7.3,2,11.3,2.9
		c24.2,6,29.7,8,35.5,13c6.1,5.1,8.9,11.6,8.9,20.7c0,9.6-4.6,23.4-8,23.4c-0.5,0-0.5,0-1.9-0.7l-10.9-5.3c-0.7-0.3-1.2-1-1.2-1.5
		c0-0.3,0.2-0.9,0.5-1.4c2.6-5.3,3.8-9.2,3.8-13.1c0-7.2-3.1-10.4-13-13.3l-7.2-2v7.2c0,2.2-0.2,2.4-2.2,3.2l-77.9,26.8
		c-1.2,0.5-1.4,0.5-1.9,0.5c-1,0-1.5-0.7-1.7-2.7l-1.9-17.4v-1.2c0-1,0.5-1.5,2.4-2L86.2,1108.4z"/>
	<path class="st0" d="M91,1039.9c14.7-0.3,21.5-6.3,21.5-19c0-6.3-1.9-13-5.3-19.5c-0.5-0.9-0.7-1.7-0.7-2.2c0-0.9,0.5-1.4,1.5-1.9
		l10.2-4.3c1-0.5,1.2-0.5,1.9-0.5c1.9,0,2.9,1.4,5.3,7c3.2,7.5,4.8,15.2,4.8,23.6c0,10.9-2.7,19.5-8.4,25.4
		c-7.3,8.2-20.5,12.8-36,12.8c-27.5,0-45.8-14.9-45.8-37.4s15.5-33.8,46.6-33.8c3.4,0,4.3,0.7,4.3,3.8L91,1039.9L91,1039.9z
		 M75.1,1012.9c-14.2,0.3-19.5,3.8-19.5,12.5c0,8.7,5.5,12.6,19.5,14.2V1012.9z"/>
	<path class="st0" d="M39.6,959.8c-0.2-0.5-0.3-1.4-0.3-1.7c0-2,4.3-4.3,11.8-6.1c-7.9-8.5-10.9-15.9-10.9-25.6c0-15.2,8.4-22,27-22
		h57.4c2.6,0,2.9,0.3,2.9,2.9v15.9c0,2.6-0.3,2.9-2.9,2.9H71.9c-10.1,0-14.3,2.9-14.3,9.7c0,5,1.9,8.9,7,14.9h59.9
		c2.6,0,2.9,0.3,2.9,2.9v15.9c0,2.6-0.3,2.9-2.9,2.9H67.1c-7.3,0-13.5,1.2-18.6,3.6c-0.7,0.3-1.2,0.5-1.7,0.5s-1.2-0.5-1.5-1.4
		L39.6,959.8z"/>
	<path class="st0" d="M129.3,829.5c0.3,0.7,0.5,1.2,0.5,1.7c0,1.7-3.6,3.6-8.7,4.6c6.1,7.5,9.2,15.7,9.2,23.9
		c0,17.8-15.9,27.8-43.5,27.8c-16.7,0-28-3.1-36.4-10.1c-6.7-5.6-10.2-13-10.2-21.7c0-6,1.4-10.8,4.8-16.9H10.3
		c-2.2,0-2.6-0.2-3.1-2.6L4,820.3l-0.2-1.5c0-1.2,0.9-1.7,2.9-1.7h99.7c7.2,0,8.5-0.3,14.7-3.1c0.5-0.2,0.9-0.3,1-0.3
		c0.7,0,1.2,0.5,1.5,1.5L129.3,829.5z M60.5,838.9c-2,4.1-3.1,8-3.1,12.3c0,10.8,7.5,14.7,28.2,14.7c19.8,0,28-3.9,28-13.3
		c0-5.3-2.1-9.9-6-13.7H60.5z"/>
	<path class="st0" d="M91,777.5c14.7-0.3,21.5-6.3,21.5-19c0-6.3-1.9-13-5.3-19.5c-0.5-0.9-0.7-1.7-0.7-2.2c0-0.9,0.5-1.4,1.5-1.9
		l10.2-4.3c1-0.5,1.2-0.5,1.9-0.5c1.9,0,2.9,1.4,5.3,7c3.2,7.5,4.8,15.2,4.8,23.6c0,10.9-2.7,19.5-8.4,25.4
		c-7.3,8.2-20.5,12.8-36,12.8C58.3,798.9,40,784,40,761.5s15.5-33.8,46.6-33.8c3.4,0,4.3,0.7,4.3,3.8L91,777.5L91,777.5z
		 M75.1,750.5c-14.2,0.3-19.5,3.8-19.5,12.5s5.5,12.6,19.5,14.2V750.5z"/>
	<path class="st0" d="M57.9,582.8c-1.4-0.5-1.9-1.4-1.9-2.7v-9.9c0-1.2,0.7-2.1,1.7-2.1l1.7,0.2L96,576c1,0.3,3.2,0.5,4.4,0.5
		c3.6,0,5.1-2.1,5.1-6.8c0-13.3-17.1-24.4-37.9-24.4c-24.8,0-39.6,17.1-39.6,45.1c0,18.8,5.8,33.5,17.6,45.1
		c12.5,12,31.6,19.5,50.2,19.5c14.9,0,27.3-5,36-14.3c8.2-8.9,12-20.7,12-37.9c0-17.3-3.9-34.8-10.9-49c-0.9-1.5-1-2.4-1-3.1
		c0-0.7,0.5-1.4,1-1.5l7.7-2.9c1.5-0.7,1.5-0.7,2.1-0.7c0.9,0,1.7,0.9,2.7,2.6c7.3,11.3,12.5,34.2,12.5,55.7
		c0,22.4-5.1,38.1-16.2,49.5c-11.1,11.4-28,18.1-46.3,18.1c-22.2,0-44.6-9.6-59.4-25.1c-14.3-14.9-22-34.9-22-56.9
		c0-19.3,6.1-36.4,16.4-46.4c8.9-8.5,22.2-13.7,36-13.7c29.7,0,52.6,20.5,52.6,47c0,9.6-3.6,14.5-11.8,16.1
		c8.4,6.3,11.8,12.5,11.8,20.5c0,9.4-7.5,15-20.3,15c-14.2,0-28.2-5.3-37.4-14c-4.6-4.3-7.3-10.4-7.3-16.6c0-5.5,1.9-10.1,5.8-13.7
		L57.9,582.8z M70.4,587.4c-3.1,3.6-4.1,5.6-4.1,8.7c0,3.6,2,6.3,6.3,8.7c6,3.2,18.4,6.1,26.3,6.1c4.3,0,6.7-1.7,6.7-4.8
		c0-3.6-2.6-7.9-6-10.6c-2.4-1.9-5.5-3.1-10.1-4.1L70.4,587.4z"/>
	<path class="st0" d="M121.1,389.3c0.9-0.5,1.9-0.9,2.6-0.9c0.9,0,1.5,0.7,2,2.7l4.3,15.2c0.5,1.5,0.5,1.5,0.5,2
		c0,0.9-0.5,1.4-2.4,2.4l-48.7,24.1v9.1h44.4c3.1,0,3.6,0.5,3.6,3.6v15.7c0,3.2-0.3,3.6-4.1,3.6H13.8c-3.2,0-3.6-0.3-3.6-3.6v-27.8
		c0-12.8,1.2-19.3,4.4-25.3c5.5-9.7,15.2-14.5,29.2-14.5c15.7,0,25.4,5.6,32.6,19.1L121.1,389.3z M61.3,439.2
		c0-15-4.6-20.3-17.6-20.3c-12.1,0-16.1,4.6-16.1,18.4v6.7h33.6L61.3,439.2L61.3,439.2L61.3,439.2z"/>
	<path class="st0" d="M69.7,337.1c-9.7,0-12.8,2.7-12.8,11.3c0,5.1,1.5,11.6,4.4,19.1c0.3,0.7,0.5,1.4,0.5,1.9
		c0,0.9-0.5,1.4-1.7,1.7l-10.2,3.6c-0.5,0.2-1.4,0.3-1.9,0.3c-3.6,0-7.9-15.5-7.9-29.2c0-13.5,4.4-22.7,13.1-26.6
		c3.6-1.7,7.7-2.4,14.2-2.4h34.8c7.5,0,12.5-1,18.4-3.9c0.7-0.3,1.4-0.5,1.9-0.5c0.7,0,1.4,0.5,1.7,1.4l5.3,13.3
		c0.3,0.5,0.5,1.5,0.5,2.1c0,1.5-3.2,3.2-10.1,5.1c7,6.8,9.7,13,9.7,21.9c0,15.7-10.1,25.6-25.8,25.6c-15.2,0-24.2-8.2-27.5-25.4
		c-1-4.4-1.4-9.7-1.5-19.1h-5.1V337.1L69.7,337.1z M89.1,337.1c0,17.1,3.8,23.9,13.7,23.9c6.7,0,11.8-4.8,11.8-10.9
		c0-4.6-2.2-8.9-6.7-13H89.1L89.1,337.1z"/>
	<path class="st0" d="M50,270.1c-6.7-7-9.9-14.5-9.9-23.6c0-8.2,3.4-15.2,9.2-18.8c4.3-2.6,8.9-3.4,17.6-3.4h57.5
		c2.6,0,2.9,0.3,2.9,2.9v15.9c0,2.6-0.3,2.9-2.9,2.9H71.9c-10.4,0-14.3,2.6-14.3,9.4c0,5.1,1.9,9.1,7,14.7h59.9
		c2.6,0,2.9,0.3,2.9,2.9v15.9c0,2.6-0.3,2.9-2.9,2.9H10.3c-2.4,0-2.6-0.2-3.1-2.6L4,273.3c-0.2-0.5-0.2-1.2-0.2-1.5
		c0-1.2,0.9-1.7,2.9-1.7L50,270.1L50,270.1z"/>
	<path class="st0" d="M58.9,210.2c0,2.6-0.3,2.9-2.9,2.9H45.9c-2.6,0-2.9-0.3-2.9-2.9v-31.8c0-2.6,0.3-2.9,2.9-2.9h78.6
		c2.6,0,2.9,0.3,2.9,2.9v15.9c0,2.6-0.3,2.9-2.9,2.9H58.9V210.2L58.9,210.2z M17.9,173.1c7.7,0,13.8,6.1,13.8,13.8
		s-6.1,13.8-14,13.8c-7.5,0-13.7-6.3-13.7-14C4.1,179.3,10.4,173.1,17.9,173.1z"/>
	<path class="st0" d="M91,135.6c14.7-0.3,21.5-6.3,21.5-19c0-6.3-1.9-13-5.3-19.5c-0.5-0.9-0.7-1.7-0.7-2.2c0-0.9,0.5-1.4,1.5-1.9
		l10.2-4.3c1-0.5,1.2-0.5,1.9-0.5c1.9,0,2.9,1.4,5.3,7c3.2,7.5,4.8,15.2,4.8,23.6c0,10.9-2.7,19.5-8.4,25.4
		c-7.3,8.2-20.5,12.8-36,12.8C58.3,157,40,142.1,40,119.6s15.5-33.8,46.6-33.8c3.4,0,4.3,0.7,4.3,3.8L91,135.6L91,135.6z
		 M75.1,108.6c-14.2,0.3-19.5,3.8-19.5,12.5s5.5,12.6,19.5,14.2V108.6z"/>
	<path class="st0" d="M39.6,55.5c-0.2-0.5-0.3-1.4-0.3-1.7c0-2.1,4.3-4.3,11.8-6.2c-7.9-8.5-11-15.8-11-25.6c0-15.2,8.4-22,27-22
		h57.4c2.6,0,2.9,0.3,2.9,2.9v15.9c0,2.6-0.3,2.9-2.9,2.9H71.9c-10.1,0-14.3,2.9-14.3,9.7c0,4.9,1.9,8.9,7,14.9h59.9
		c2.6,0,2.9,0.3,2.9,2.9v15.9c0,2.6-0.3,2.9-2.9,2.9H67.1c-7.3,0-13.5,1.2-18.6,3.6c-0.7,0.3-1.2,0.5-1.7,0.5s-1.2-0.5-1.5-1.4
		L39.6,55.5z"/>
</g>
<g id="Layer_1_1_">
	<g>
		<path class="st0" d="M58.9,1288.5c8,5.7,15.8,11.5,22.6,18.6c4.9,5.1,9.4,10.6,11.5,17.6c1.9,5.9,1.4,11.6-2,17.1
			c-9.9-6-19.9-11.5-31.8-11.9c1,1.1,2.2,2,3.3,3c6.6,6,12.4,12.6,16.1,20.8c1.1,2.5,1.2,4.6-1.2,6.4c-1.2,0.9-2.2,2.2-3.5,3.1
			c-3.6,2.6-7.8,3.4-11.9,3.8c0.5-2.3,1.3-4.4,1.2-6.5c-0.1-3-2-5.3-4.3-7.1c-6.1-5-13.3-6.9-21-7.3c-2-0.1-4,0.2-6.3,0.3
			c0.5,0.8,0.7,1.2,1,1.6c4,6.2,7.1,12.8,7.9,20.1c0.3,3.1-0.1,6.3-3.1,8.4c-3,2.2-5,5.4-6.6,8.7c-0.4,0.8-0.9,1.6-1.4,2.4
			c-2.7,3.7-5.3,7.4-6.7,11.8c-1.2,3.7-1.8,7.3,0.3,11.5c3.9-2.8,7.7-5.2,11.2-8.1c2.2-1.9,4.3-3.2,7.4-2.9
			c-1.5-0.2-2.9-0.3-4.5-0.5c3.3-3.3,14.4,2.3,16.7,8.2c-14.4-3.2-36.5,3.8-43.4,13.8c0.1,0.2,0.2,0.5,0.4,0.6
			c6.4,5.6,13.4,10.3,21.6,12.7c4.6,1.3,9.3,2.2,14,0.4c6.9-2.6,11.1-7.7,12.9-14.7c0.5-1.9,0.7-3.9,1-5.9c0.7,4.5,0.5,8.8-1.1,13.1
			c-2.3,6.2-7,10-13.3,11.9c13.2,11.8,48.3,20.5,59.5,20.5c-19.1-3.4-35.4-8.6-50.1-19.9c1,0.2,1.9,0.6,2.8,1
			c5.6,2.4,11.1,5.1,16.8,7.2c8.7,3.1,15.7,5.8,28.2,6.7c7.9,0.6,21.2,3.5,21.2,3.5s-6-14.2-7.6-16.5c-1.3-1.9-3.1-3.4-4.6-5.1
			c-0.4-0.4-1.4-1.6-1.8-1.9c0.5-0.2,1.1-0.5,1.5-0.9c10.3-8.8,19.3-18.7,26.4-30.3c5.5-8.9,10-18.2,10.5-29c0-0.7,0.4-1.4,0.6-2.1
			c3.2-8.4,6.4-16.7,9.5-25.1c1.6-4.4-0.2-11.4-3.7-14.9l0,0l0,0c-0.2-0.2-0.4-0.3-0.5-0.5l0,0l-1-0.8c0.2-1.6,0.5-3.3,0.7-4.9
			c0.2-1.5-0.3-2.1-1.9-2.3c-3.8-0.5-7.4-1.5-11.2-2.2c-1-0.2-2.2-0.3-3.1,0.1c-4.6,1.7-9.1,1.2-13.5-0.7c-0.9-0.4-1.5-1.4-2.1-2.3
			c-0.9-1.5-1.4-3.2-2.4-4.7c-4.9-7.5-12.4-12-20.1-15.9c-12.2-6.1-25.2-9.8-38.6-11.8c-1.7-0.3-3.3-0.4-5-0.6
			C57.4,1287.4,58.1,1288,58.9,1288.5z M102.2,1389.7c-3.4-1.8-4-6.1-2.8-9.1c1.1-2.6,3.5-4.8,6.2-3.9c0.4,1.6,1.2,2.3,0.6,4.9
			c-0.5,2-2.4,4.5-2.3,6.3c-1.5-0.2-1.7-0.9-2.8-2.2C101.3,1386.9,101.3,1388.3,102.2,1389.7z"/>
	</g>
</g>
<g id="Layer_2">
</g>
</svg>
