<?xml version="1.0" encoding="utf-8"?>
<!-- Generator: Adobe Illustrator 23.0.1, SVG Export Plug-In . SVG Version: 6.00 Build 0)  -->
<svg version="1.1" id="Layer_1" xmlns="http://www.w3.org/2000/svg" xmlns:xlink="http://www.w3.org/1999/xlink" x="0px" y="0px"
	 viewBox="0 0 1459.8 167.3" style="enable-background:new 0 0 1459.8 167.3;" xml:space="preserve">
<style type="text/css">
	.st0{fill:#FFFFFF;}
</style>
<g>
	<path class="st0" d="M255.9,95.6l-7.3,28c-0.7,2.7-0.9,2.9-3.8,2.9h-16.9c-2.6,0-3.4-0.5-3.4-1.9c0-0.7,0-0.9,0.5-2.2l33.6-110.1
		c0.9-2.7,1-2.9,3.8-2.9h17.8c2.7,0,2.9,0.2,3.8,2.9l33.6,110.1c0.3,1.2,0.5,1.7,0.5,2.2c0,1.4-0.9,1.9-3.4,1.9h-18.6
		c-2.9,0-3.2-0.2-3.9-2.9l-7.3-28C284.8,95.6,255.9,95.6,255.9,95.6z M280.3,79.6L274,50.4c-1.5-7-2-10.1-4.3-23.1
		c-1.5,9.9-2.2,13.8-4.4,23.1l-6.8,29.2C258.5,79.6,280.3,79.6,280.3,79.6z"/>
	<path class="st0" d="M349.7,85.4c2.9,12,4.6,19,6.7,29.5c1.4-7.5,1.7-9.6,2.6-14.3c0.5-2.9,1-5.6,1.5-7.9l1.7-7.3l9.6-41.8
		c0.3-2.1,0.9-2.6,1.9-2.6c0.2,0,0.7,0,1.4,0.2l15,1.7c2,0.2,2.7,0.7,2.7,1.7c0,0.5,0,0.5-0.3,1.7l-17.1,62.5c-1,3.4-2,7.3-2.9,11.3
		c-6,24.2-8,29.7-13,35.5c-5.1,6.1-11.6,8.9-20.7,8.9c-9.6,0-23.4-4.6-23.4-8c0-0.5,0-0.5,0.7-1.9l5.3-10.9c0.3-0.7,1-1.2,1.5-1.2
		c0.3,0,0.9,0.2,1.4,0.5c5.3,2.6,9.2,3.8,13.1,3.8c7.2,0,10.4-3.1,13.3-13l2-7.2h-7.2c-2.2,0-2.4-0.2-3.2-2.2l-26.8-77.9
		c-0.5-1.2-0.5-1.4-0.5-1.9c0-1,0.7-1.5,2.7-1.7l17.4-1.9h1.2c1,0,1.5,0.5,2,2.4L349.7,85.4z"/>
	<path class="st0" d="M418.1,90.1c0.3,14.7,6.3,21.5,19,21.5c6.3,0,13-1.9,19.5-5.3c0.9-0.5,1.7-0.7,2.2-0.7c0.9,0,1.4,0.5,1.9,1.5
		l4.3,10.2c0.5,1,0.5,1.2,0.5,1.9c0,1.9-1.4,2.9-7,5.3c-7.5,3.2-15.2,4.8-23.6,4.8c-10.9,0-19.5-2.7-25.4-8.4
		c-8.2-7.3-12.8-20.5-12.8-36c0-27.5,14.9-45.8,37.4-45.8s33.8,15.5,33.8,46.6c0,3.4-0.7,4.3-3.8,4.3L418.1,90.1L418.1,90.1z
		 M445.1,74.3c-0.3-14.2-3.8-19.5-12.5-19.5s-12.6,5.5-14.2,19.5H445.1z"/>
	<path class="st0" d="M498.2,38.7c0.5-0.2,1.4-0.3,1.7-0.3c2,0,4.3,4.3,6.1,11.8c8.5-7.9,15.9-10.9,25.6-10.9c15.2,0,22,8.4,22,27
		v57.4c0,2.6-0.3,2.9-2.9,2.9h-15.9c-2.6,0-2.9-0.3-2.9-2.9V71c0-10.1-2.9-14.3-9.7-14.3c-5,0-8.9,1.9-14.9,7v59.9
		c0,2.6-0.3,2.9-2.9,2.9h-15.9c-2.6,0-2.9-0.3-2.9-2.9V66.2c0-7.3-1.2-13.5-3.6-18.6c-0.3-0.7-0.5-1.2-0.5-1.7s0.5-1.2,1.4-1.5
		L498.2,38.7z"/>
	<path class="st0" d="M628.5,128.4c-0.7,0.3-1.2,0.5-1.7,0.5c-1.7,0-3.6-3.6-4.6-8.7c-7.5,6.1-15.7,9.2-23.9,9.2
		c-17.8,0-27.8-15.9-27.8-43.5c0-16.7,3.1-28,10.1-36.4c5.6-6.7,13-10.2,21.7-10.2c6,0,10.8,1.4,16.9,4.8V9.4c0-2.2,0.2-2.6,2.6-3.1
		l15.9-3.2l1.5-0.2c1.2,0,1.7,0.9,1.7,2.9v99.7c0,7.2,0.3,8.5,3.1,14.7c0.2,0.5,0.3,0.9,0.3,1c0,0.7-0.5,1.2-1.5,1.5L628.5,128.4z
		 M619.1,59.6c-4.1-2-8-3.1-12.3-3.1c-10.8,0-14.7,7.5-14.7,28.2c0,19.8,3.9,28,13.3,28c5.3,0,9.9-2.1,13.7-6V59.6z"/>
	<path class="st0" d="M680.6,90.1c0.3,14.7,6.3,21.5,19,21.5c6.3,0,13-1.9,19.5-5.3c0.9-0.5,1.7-0.7,2.2-0.7c0.9,0,1.4,0.5,1.9,1.5
		l4.3,10.2c0.5,1,0.5,1.2,0.5,1.9c0,1.9-1.4,2.9-7,5.3c-7.5,3.2-15.2,4.8-23.6,4.8c-10.9,0-19.5-2.7-25.4-8.4
		c-8.2-7.3-12.8-20.5-12.8-36c0-27.5,14.9-45.8,37.4-45.8s33.8,15.5,33.8,46.6c0,3.4-0.7,4.3-3.8,4.3L680.6,90.1L680.6,90.1z
		 M707.6,74.3c-0.3-14.2-3.8-19.5-12.5-19.5s-12.6,5.5-14.2,19.5H707.6z"/>
	<path class="st0" d="M875.3,57c0.5-1.4,1.4-1.9,2.7-1.9h9.9c1.2,0,2.1,0.7,2.1,1.7l-0.2,1.7L882.1,95c-0.3,1-0.5,3.2-0.5,4.4
		c0,3.6,2.1,5.1,6.8,5.1c13.3,0,24.4-17.1,24.4-37.9c0-24.8-17.1-39.6-45.1-39.6c-18.8,0-33.5,5.8-45.1,17.6
		C810.5,57.2,803,76.3,803,94.9c0,14.9,5,27.3,14.3,36c8.9,8.2,20.7,12,37.9,12c17.3,0,34.8-3.9,49-10.9c1.5-0.9,2.4-1,3.1-1
		c0.7,0,1.4,0.5,1.5,1l2.9,7.7c0.7,1.5,0.7,1.5,0.7,2.1c0,0.9-0.9,1.7-2.6,2.7c-11.3,7.3-34.2,12.5-55.7,12.5
		c-22.4,0-38.1-5.1-49.5-16.2c-11.4-11.1-18.1-28-18.1-46.3c0-22.2,9.6-44.6,25.1-59.4c14.9-14.2,34.8-21.9,56.9-21.9
		c19.3,0,36.4,6.1,46.4,16.4c8.5,8.9,13.7,22.2,13.7,36c0,29.7-20.5,52.6-47,52.6c-9.6,0-14.5-3.6-16.1-11.8
		c-6.3,8.4-12.5,11.8-20.5,11.8c-9.4,0-15-7.5-15-20.3c0-14.2,5.3-28.2,14-37.4c4.3-4.6,10.4-7.3,16.6-7.3c5.5,0,10.1,1.9,13.7,5.8
		L875.3,57z M870.6,69.5c-3.6-3.1-5.6-4.1-8.7-4.1c-3.6,0-6.3,2-8.7,6.3c-3.2,6-6.1,18.4-6.1,26.3c0,4.3,1.7,6.7,4.8,6.7
		c3.6,0,7.9-2.6,10.6-6c1.9-2.4,3.1-5.5,4.1-10.1L870.6,69.5z"/>
	<path class="st0" d="M1068.7,120.2c0.5,0.9,0.9,1.9,0.9,2.6c0,0.9-0.7,1.5-2.7,2l-15.2,4.3c-1.5,0.5-1.5,0.5-2,0.5
		c-0.9,0-1.4-0.5-2.4-2.4l-24.1-48.7h-9.1v44.4c0,3.1-0.5,3.6-3.6,3.6h-15.7c-3.2,0-3.6-0.3-3.6-4.1V13c0-3.2,0.3-3.6,3.6-3.6h27.8
		c12.8,0,19.3,1.2,25.3,4.4c9.7,5.5,14.5,15.2,14.5,29.2c0,15.7-5.6,25.4-19.1,32.6L1068.7,120.2z M1018.9,60.4
		c15,0,20.3-4.6,20.3-17.6c0-12.1-4.6-16.1-18.4-16.1h-6.7v33.6L1018.9,60.4L1018.9,60.4L1018.9,60.4z"/>
	<path class="st0" d="M1121,68.8c0-9.7-2.7-12.8-11.3-12.8c-5.1,0-11.6,1.5-19.1,4.4c-0.7,0.3-1.4,0.5-1.9,0.5
		c-0.9,0-1.4-0.5-1.7-1.7l-3.6-10.2c-0.2-0.5-0.3-1.4-0.3-1.9c0-3.6,15.5-7.9,29.2-7.9c13.5,0,22.7,4.4,26.6,13.1
		c1.7,3.6,2.4,7.7,2.4,14.2v34.8c0,7.5,1,12.5,3.9,18.4c0.3,0.7,0.5,1.4,0.5,1.9c0,0.7-0.5,1.4-1.4,1.7l-13.3,5.3
		c-0.5,0.3-1.5,0.5-2.1,0.5c-1.5,0-3.2-3.2-5.1-10.1c-6.8,7-13,9.7-21.9,9.7c-15.7,0-25.6-10.1-25.6-25.8c0-15.2,8.2-24.2,25.4-27.5
		c4.4-1,9.7-1.4,19.1-1.5v-5.1H1121L1121,68.8z M1121,88.3c-17.1,0-23.9,3.8-23.9,13.7c0,6.7,4.8,11.8,10.9,11.8
		c4.6,0,8.9-2.2,13-6.7V88.3L1121,88.3z"/>
	<path class="st0" d="M1187.9,49.2c7-6.7,14.5-9.9,23.6-9.9c8.2,0,15.2,3.4,18.8,9.2c2.6,4.3,3.4,8.9,3.4,17.6v57.5
		c0,2.6-0.3,2.9-2.9,2.9h-15.9c-2.6,0-2.9-0.3-2.9-2.9V71c0-10.4-2.6-14.3-9.4-14.3c-5.1,0-9.1,1.9-14.7,7v59.9
		c0,2.6-0.3,2.9-2.9,2.9h-15.9c-2.6,0-2.9-0.3-2.9-2.9V9.4c0-2.4,0.2-2.6,2.6-3.1l15.9-3.2c0.5-0.2,1.2-0.2,1.5-0.2
		c1.2,0,1.7,0.9,1.7,2.9L1187.9,49.2L1187.9,49.2z"/>
	<path class="st0" d="M1247.8,58c-2.6,0-2.9-0.3-2.9-2.9v-10c0-2.6,0.3-2.9,2.9-2.9h31.8c2.6,0,2.9,0.3,2.9,2.9v78.6
		c0,2.6-0.3,2.9-2.9,2.9h-15.9c-2.6,0-2.9-0.3-2.9-2.9V58H1247.8L1247.8,58z M1284.9,17.1c0,7.7-6.1,13.8-13.8,13.8
		c-7.7,0-13.8-6.1-13.8-14c0-7.5,6.3-13.7,14-13.7C1278.8,3.2,1284.9,9.5,1284.9,17.1z"/>
	<path class="st0" d="M1322.5,90.1c0.3,14.7,6.3,21.5,19,21.5c6.3,0,13-1.9,19.5-5.3c0.9-0.5,1.7-0.7,2.2-0.7c0.9,0,1.4,0.5,1.9,1.5
		l4.3,10.2c0.5,1,0.5,1.2,0.5,1.9c0,1.9-1.4,2.9-7,5.3c-7.5,3.2-15.2,4.8-23.6,4.8c-10.9,0-19.5-2.7-25.4-8.4
		c-8.2-7.3-12.8-20.5-12.8-36c0-27.5,14.9-45.8,37.4-45.8s33.8,15.5,33.8,46.6c0,3.4-0.7,4.3-3.8,4.3L1322.5,90.1L1322.5,90.1z
		 M1349.4,74.3c-0.3-14.2-3.8-19.5-12.5-19.5s-12.6,5.5-14.2,19.5H1349.4z"/>
	<path class="st0" d="M1402.6,38.7c0.5-0.2,1.4-0.3,1.7-0.3c2.1,0,4.3,4.3,6.2,11.8c8.5-7.9,15.9-10.9,25.6-10.9
		c15.2,0,22,8.4,22,27v57.4c0,2.6-0.3,2.9-2.9,2.9h-15.9c-2.6,0-2.9-0.3-2.9-2.9V71c0-10.1-2.9-14.3-9.7-14.3c-4.9,0-8.9,1.9-14.9,7
		v59.9c0,2.6-0.3,2.9-2.9,2.9H1393c-2.6,0-2.9-0.3-2.9-2.9V66.2c0-7.3-1.2-13.5-3.6-18.6c-0.3-0.7-0.5-1.2-0.5-1.7s0.5-1.2,1.4-1.5
		L1402.6,38.7z"/>
</g>
<g id="Layer_1_1_">
	<g>
		<path class="st0" d="M171.6,58c-5.7,8-11.5,15.8-18.6,22.6c-5.1,4.9-10.6,9.4-17.6,11.5c-5.9,1.9-11.6,1.4-17.1-2
			c6-9.9,11.5-19.9,11.9-31.8c-1.1,1-2,2.2-3,3.3c-6,6.6-12.6,12.4-20.8,16.1c-2.5,1.1-4.6,1.2-6.4-1.2c-0.9-1.2-2.2-2.2-3.1-3.5
			c-2.6-3.6-3.4-7.8-3.8-11.9c2.3,0.5,4.4,1.3,6.5,1.2c3-0.1,5.3-2,7.1-4.3c5-6.1,6.9-13.3,7.3-21c0.1-2-0.2-4-0.3-6.3
			c-0.8,0.5-1.2,0.7-1.6,1c-6.2,4-12.8,7.1-20.1,7.9c-3.1,0.3-6.3-0.1-8.4-3.1c-2.2-3-5.4-5-8.7-6.6c-0.8-0.4-1.6-0.9-2.4-1.4
			c-3.7-2.7-7.4-5.3-11.8-6.7c-3.7-1.2-7.3-1.8-11.5,0.3c2.8,3.9,5.2,7.7,8.1,11.2c1.9,2.2,3.2,4.3,2.9,7.4c0.2-1.5,0.3-2.9,0.5-4.5
			c3.3,3.3-2.3,14.4-8.2,16.7c3.2-14.4-3.8-36.5-13.8-43.4c-0.2,0.1-0.5,0.2-0.6,0.4c-5.6,6.4-10.3,13.4-12.7,21.6
			c-1.3,4.6-2.2,9.3-0.4,14c2.6,6.9,7.7,11.1,14.7,12.9c1.9,0.5,3.9,0.7,5.9,1c-4.5,0.7-8.8,0.5-13.1-1.1c-6.2-2.3-10-7-11.9-13.3
			C8.7,58.6,0,93.6,0,104.9c3.4-19.1,8.6-35.4,19.9-50.1c-0.2,1-0.6,1.9-1,2.8c-2.4,5.6-5.1,11.1-7.2,16.8
			C8.6,83.1,5.9,90.1,5,102.6c-0.6,7.9-3.5,21.2-3.5,21.2s14.2-6,16.5-7.6c1.9-1.3,3.4-3.1,5.1-4.6c0.4-0.4,1.6-1.4,1.9-1.8
			c0.2,0.5,0.5,1.1,0.9,1.5c8.8,10.3,18.7,19.3,30.3,26.4c8.9,5.5,18.2,10,29,10.5c0.7,0,1.4,0.4,2.1,0.6c8.4,3.2,16.7,6.4,25.1,9.5
			c4.4,1.6,11.4-0.2,14.9-3.7l0,0l0,0c0.2-0.2,0.3-0.4,0.5-0.5l0,0l0.8-1c1.6,0.2,3.3,0.5,4.9,0.7c1.5,0.2,2.1-0.3,2.3-1.9
			c0.5-3.8,1.5-7.4,2.2-11.2c0.2-1,0.3-2.2-0.1-3.1c-1.7-4.6-1.2-9.1,0.7-13.5c0.4-0.9,1.4-1.5,2.3-2.1c1.5-0.9,3.2-1.4,4.7-2.4
			c7.5-4.9,12-12.4,15.9-20.1c6.1-12.2,9.8-25.2,11.8-38.6c0.3-1.7,0.4-3.3,0.6-5C172.7,56.5,172.2,57.2,171.6,58z M70.4,101.3
			c1.8-3.4,6.1-4,9.1-2.8c2.6,1.1,4.8,3.5,3.9,6.2c-1.6,0.4-2.3,1.2-4.9,0.6c-2-0.5-4.5-2.4-6.3-2.3c0.2-1.5,0.9-1.7,2.2-2.8
			C73.3,100.5,71.9,100.4,70.4,101.3z"/>
	</g>
</g>
<g id="Layer_2">
</g>
</svg>
