<svg id="Layer_1" data-name="Layer 1" xmlns="http://www.w3.org/2000/svg" viewBox="0 0 150 50"><defs><style>.cls-1{fill:#0078d7;}.cls-2{fill:#fff;}</style></defs><rect class="cls-1" x="-1.95" y="-0.52" width="153.9" height="51.05"/><path class="cls-2" d="M9.38,25q8.25-8.22,16.47-16.48Q34.09,16.77,42.33,25L25.85,41.48Q17.63,33.22,9.38,25Zm5.91-5.3q0,5,0,9.93h1.59c0-2.7,0-5.4-.06-8.09.45,2.73,1.22,5.39,1.83,8.08h1.75c.58-2.7,1.29-5.38,1.76-8.1,0,2.7,0,5.4,0,8.1h1.63c0-3.31,0-6.62,0-9.93a23.93,23.93,0,0,0-2.54.05c-.56,2.5-1.21,5-1.56,7.55-.45-2.56-1.12-5.07-1.67-7.6Zm9.09,0q1.25,5,2.47,9.94c.68,0,1.35,0,2,0q1.29-5,2.54-9.94H29.51c-.54,2.6-1.16,5.18-1.59,7.81-.39-2.63-1.05-5.21-1.57-7.81Zm7.62,0v9.93h1.92V26.25a4.29,4.29,0,0,0,2.5-.46,3.76,3.76,0,0,0,1.1-4.63,2.62,2.62,0,0,0-2.32-1.43C34.14,19.66,33.07,19.72,32,19.7Z"/><path class="cls-2" d="M33.92,21c.61,0,1.37,0,1.72.59a2.4,2.4,0,0,1,0,2.17c-.34.61-1.12.47-1.7.52C33.92,23.17,33.92,22.07,33.92,21Z"/><path class="cls-2" d="M54.87,26.52h84.81c-.1.25.15.89-.27.83H54.87Z"/><path class="cls-2" d="M54.87,31.13c1.21,0,2.41,0,3.62,0a3.11,3.11,0,0,1,2.63,1.35,3.22,3.22,0,0,1-.49,3.82,4.37,4.37,0,0,1-1.42.81,3.56,3.56,0,0,1,.95,1.2c.62,1.26,1.2,2.53,1.81,3.78H60.36C59.9,41.05,59.45,40,59,38.94a2.46,2.46,0,0,0-1.11-1.34,5.05,5.05,0,0,0-1.69-.14q0,2.32,0,4.65H54.87Zm1.31,1.22v3.89c1.06-.07,2.26.25,3.17-.44a2,2,0,0,0-.06-3.17A7.73,7.73,0,0,0,56.18,32.35Z"/><path class="cls-2" d="M119.9,32.35l1.32-.41c0,.77,0,1.55,0,2.33h2v1.08h-2c0,1.49,0,3,0,4.47a1.39,1.39,0,0,0,.45,1.19c.47.32,1,.1,1.55,0,0,.38,0,.75,0,1.13A3.06,3.06,0,0,1,120.7,42a2.34,2.34,0,0,1-.8-2c0-1.55,0-3.09,0-4.64h-1.36V34.27h1.36Z"/><path class="cls-2" d="M65.2,34.33a3.32,3.32,0,0,1,3.87.88,5.28,5.28,0,0,1,.73,3.33H64.25a2.71,2.71,0,0,0,1.22,2.35,3.68,3.68,0,0,0,3.77-.53c0,.4,0,.79,0,1.19a4.16,4.16,0,0,1-2.68.77,3.34,3.34,0,0,1-2.59-1,4.71,4.71,0,0,1-1-3.74A3.87,3.87,0,0,1,65.2,34.33Zm-.07,1.43a3.43,3.43,0,0,0-.87,1.65c1.41,0,2.83,0,4.25,0a2.92,2.92,0,0,0-.75-1.81A2,2,0,0,0,65.13,35.76Z"/><path class="cls-2" d="M72,35.15a4.36,4.36,0,0,1,4.71-.7v1.33a3.1,3.1,0,0,0-3.33-.17,3.43,3.43,0,0,0-1,4,2.43,2.43,0,0,0,2.08,1.58,3.56,3.56,0,0,0,2.29-.66c0,.43,0,.87,0,1.3a4.63,4.63,0,0,1-3.87.12,3.56,3.56,0,0,1-2-2.68A4.65,4.65,0,0,1,72,35.15Z"/><path class="cls-2" d="M80.33,34.28a5.06,5.06,0,0,1,2.86,0,3.45,3.45,0,0,1,2.24,2.64,5.13,5.13,0,0,1-.54,3.76,4,4,0,0,1-6.46,0,5,5,0,0,1-.53-3.53A3.62,3.62,0,0,1,80.33,34.28Zm.35,1.1c-1.62.7-1.85,2.88-1.27,4.35a2.59,2.59,0,0,0,3.74,1.08,2.76,2.76,0,0,0,1-2.11A3.86,3.86,0,0,0,83.55,36,2.62,2.62,0,0,0,80.68,35.38Z"/><path class="cls-2" d="M88.54,35.5A3.35,3.35,0,0,1,90,34.25a2.81,2.81,0,0,1,3.14.71,5.35,5.35,0,0,1,.65,3.34c0,1.27,0,2.54,0,3.81H92.5c0-1.58,0-3.16,0-4.73a2.29,2.29,0,0,0-.89-2,2.06,2.06,0,0,0-2.38.43,2.71,2.71,0,0,0-.67,1.91c0,1.45,0,2.91,0,4.37H87.25c0-2.6,0-5.21,0-7.81.43,0,.87,0,1.31,0Z"/><path class="cls-2" d="M98.88,34.2a2.88,2.88,0,0,1,2.77.53,3.74,3.74,0,0,1,.85,2.64c0,1.58,0,3.16,0,4.74h-1.32c0-1.64,0-3.28,0-4.92,0-.91-.55-2-1.58-2a2.19,2.19,0,0,0-2.32,2.16c-.05,1.58,0,3.16,0,4.74H95.93V34.27h1.32l0,1.23A3.18,3.18,0,0,1,98.88,34.2Z"/><path class="cls-2" d="M106.32,34.32a3.37,3.37,0,0,1,3.78.79,5.14,5.14,0,0,1,.8,3.43h-5.55a2.74,2.74,0,0,0,1.23,2.35,3.68,3.68,0,0,0,3.76-.53c0,.41.09.89-.1,1.26a4.57,4.57,0,0,1-2.77.7,3.25,3.25,0,0,1-2.43-1,4.59,4.59,0,0,1-1-3.56A3.93,3.93,0,0,1,106.32,34.32Zm-.09,1.44a3.52,3.52,0,0,0-.87,1.65c1.42,0,2.83,0,4.25,0a2.91,2.91,0,0,0-.74-1.81A2,2,0,0,0,106.23,35.76Z"/><path class="cls-2" d="M113.23,35.05a4.54,4.54,0,0,1,4.6-.64c0,.46,0,.91,0,1.37a3.12,3.12,0,0,0-3.32-.18,3.39,3.39,0,0,0-1.09,3.89,2.39,2.39,0,0,0,1.91,1.67,3.49,3.49,0,0,0,2.5-.63c0,.43,0,.87,0,1.3a4.58,4.58,0,0,1-4,.06A3.58,3.58,0,0,1,112,39.27,4.61,4.61,0,0,1,113.23,35.05Z"/><path class="cls-2" d="M92.57,10.3a1.13,1.13,0,0,1-.8-.32,1.11,1.11,0,0,1,0-1.58,1.09,1.09,0,0,1,.8-.33,1.12,1.12,0,0,1,.81.33,1.11,1.11,0,0,1,0,1.58A1.15,1.15,0,0,1,92.57,10.3Zm0-2a.92.92,0,0,0-.94.93.9.9,0,0,0,.27.66,1,1,0,0,0,1.33,0,.9.9,0,0,0,.27-.66.92.92,0,0,0-.93-.93Zm.57,1.62h-.33l-.13-.33c-.07-.16-.15-.24-.23-.24h-.08v.57h-.27V8.48h.42a.69.69,0,0,1,.41.1.34.34,0,0,1,.14.28.37.37,0,0,1-.09.25.46.46,0,0,1-.26.13h0c.08,0,.16.1.24.26ZM92.38,8.7v.4h.15c.17,0,.26-.07.26-.2a.16.16,0,0,0-.07-.15.42.42,0,0,0-.22-.05Z"/><path class="cls-2" d="M59.13,22.66h-.66V19.6c0-.25,0-.57,0-.92h0a2.09,2.09,0,0,1-.11.45L57.2,22.66h-.45l-1.17-3.51c0-.12-.07-.27-.11-.47h0c0,.18,0,.5,0,.92v3.06h-.6V17.93h.92l1.05,3.15a3.6,3.6,0,0,1,.15.54h0c.08-.24.13-.43.17-.56l1.07-3.13h.9v4.73Z"/><path class="cls-2" d="M61.31,22.73a1.29,1.29,0,0,1-1.05-.47,1.87,1.87,0,0,1-.4-1.26,1.91,1.91,0,0,1,.42-1.33,1.36,1.36,0,0,1,1.1-.47,1.23,1.23,0,0,1,1,.47,2.07,2.07,0,0,1,.37,1.3,2,2,0,0,1-.39,1.29A1.43,1.43,0,0,1,61.31,22.73Zm0-2.93a.73.73,0,0,0-.6.32,1.45,1.45,0,0,0-.23.87,1.42,1.42,0,0,0,.23.84.67.67,0,0,0,.6.3.64.64,0,0,0,.58-.3,1.89,1.89,0,0,0,0-1.73A.64.64,0,0,0,61.33,19.8Z"/><path class="cls-2" d="M63.26,22.54v-.71a1.1,1.1,0,0,0,.79.32c.39,0,.58-.13.58-.41a.27.27,0,0,0-.06-.19.45.45,0,0,0-.13-.15,1,1,0,0,0-.2-.11L64,21.17,63.65,21a.85.85,0,0,1-.22-.2.68.68,0,0,1-.13-.27,1.39,1.39,0,0,1-.06-.33,1,1,0,0,1,.1-.43.74.74,0,0,1,.26-.32.82.82,0,0,1,.37-.19,1.67,1.67,0,0,1,.44-.06,1.88,1.88,0,0,1,.71.15V20a1.06,1.06,0,0,0-.7-.25.85.85,0,0,0-.22,0L64,19.9a.36.36,0,0,0-.11.13.47.47,0,0,0,0,.17.48.48,0,0,0,0,.18.25.25,0,0,0,.11.14l.19.11.24.11a1.69,1.69,0,0,1,.32.19.83.83,0,0,1,.24.21.53.53,0,0,1,.15.26.91.91,0,0,1,.06.35,1.34,1.34,0,0,1-.09.46,1,1,0,0,1-.27.31,1.3,1.3,0,0,1-.37.19,1.74,1.74,0,0,1-.45.06A2.15,2.15,0,0,1,63.26,22.54Z"/><path class="cls-2" d="M67.37,22.62a1,1,0,0,1-.49.11c-.54,0-.82-.32-.82-.94V19.88h-.47v-.6h.47v-.79l.63-.23v1h.68v.6h-.68v1.69a.78.78,0,0,0,.1.43.34.34,0,0,0,.3.13.39.39,0,0,0,.28-.11Z"/><path class="cls-2" d="M72.68,17.93l-1.42,4.73h-.74l-1.4-4.73h.71l1,3.58a3,3,0,0,1,.07.4h0c0-.14,0-.27.07-.42l1-3.56Z"/><path class="cls-2" d="M74.9,22.66h-.62v-.53h0a.91.91,0,0,1-.86.6.84.84,0,0,1-.66-.26,1.1,1.1,0,0,1-.25-.72,1,1,0,0,1,.92-1.1l.85-.15c0-.49-.19-.72-.58-.72a1.27,1.27,0,0,0-.92.42v-.68a1.82,1.82,0,0,1,1-.32c.71,0,1.07.42,1.07,1.26v2.2ZM74.28,21l-.6.09a.77.77,0,0,0-.42.17.49.49,0,0,0-.13.41.5.5,0,0,0,.13.36.48.48,0,0,0,.34.13.62.62,0,0,0,.49-.24,1,1,0,0,0,.19-.62Z"/><path class="cls-2" d="M76.32,22.66h-.64v-5h.64Z"/><path class="cls-2" d="M79.64,22.66H79v-.53h0a.92.92,0,0,1-.87.62c-.67,0-1-.49-1-1.45v-2h.64v1.93c0,.6.19.92.58.92a.55.55,0,0,0,.47-.24,1.07,1.07,0,0,0,.19-.66V19.28h.64v3.38Z"/><path class="cls-2" d="M82.65,22.66H82v-.53h0a.91.91,0,0,1-.86.6.84.84,0,0,1-.66-.26,1.09,1.09,0,0,1-.24-.72,1,1,0,0,1,.92-1.1L82,20.5c0-.49-.19-.72-.58-.72a1.27,1.27,0,0,0-.92.42v-.68a1.82,1.82,0,0,1,1-.32c.71,0,1.07.42,1.07,1.26v2.2ZM82,21l-.6.09a.71.71,0,0,0-.41.17c-.1.07-.14.2-.14.41A.47.47,0,0,0,81,22a.44.44,0,0,0,.33.13.62.62,0,0,0,.49-.24,1,1,0,0,0,.19-.62V21Z"/><path class="cls-2" d="M84.09,22.17h0l0,.49h-.63v-5h.63v2.22h0a1.06,1.06,0,0,1,1-.68,1,1,0,0,1,.84.45,2.12,2.12,0,0,1,.31,1.22,2.46,2.46,0,0,1-.34,1.36,1.1,1.1,0,0,1-.94.5A.86.86,0,0,1,84.09,22.17Zm0-1.35v.41a1,1,0,0,0,.21.62.63.63,0,0,0,1.07-.08,1.79,1.79,0,0,0,.21-.92,1.34,1.34,0,0,0-.19-.78.6.6,0,0,0-.51-.29.64.64,0,0,0-.54.29A1.17,1.17,0,0,0,84.07,20.82Z"/><path class="cls-2" d="M87.51,22.66h-.64v-5h.64Z"/><path class="cls-2" d="M90.74,21.17H88.8a1,1,0,0,0,.25.72.82.82,0,0,0,.64.26,1.23,1.23,0,0,0,.82-.32v.6a1.7,1.7,0,0,1-1,.28,1.14,1.14,0,0,1-1-.47A2.2,2.2,0,0,1,88.15,21a2,2,0,0,1,.39-1.28,1.16,1.16,0,0,1,1-.49,1,1,0,0,1,.9.45,2.23,2.23,0,0,1,.32,1.24Zm-.62-.54A1.06,1.06,0,0,0,90,20a.52.52,0,0,0-.45-.22A.55.55,0,0,0,89,20a1.23,1.23,0,0,0-.24.64h1.33Z"/><path class="cls-2" d="M93.65,20.93v1.71H93V17.93h1.2a1.53,1.53,0,0,1,1.07.37,1.48,1.48,0,0,1,.38,1.07,1.64,1.64,0,0,1-.4,1.13,1.33,1.33,0,0,1-1.07.43Zm0-2.37v1.73h.43a.84.84,0,0,0,.64-.22.91.91,0,0,0,.22-.66c0-.56-.26-.83-.81-.83h-.48Z"/><path class="cls-2" d="M97.87,20a.45.45,0,0,0-.34-.11.51.51,0,0,0-.47.3,1.53,1.53,0,0,0-.19.82v1.62h-.63V19.26h.63V20h0a1.18,1.18,0,0,1,.28-.56.67.67,0,0,1,.44-.21.48.48,0,0,1,.26.06Z"/><path class="cls-2" d="M99.54,22.73a1.29,1.29,0,0,1-1.05-.47,1.92,1.92,0,0,1-.4-1.26,2,2,0,0,1,.42-1.33,1.37,1.37,0,0,1,1.1-.47,1.23,1.23,0,0,1,1,.47A2.07,2.07,0,0,1,101,21a2,2,0,0,1-.39,1.29A1.43,1.43,0,0,1,99.54,22.73Zm0-2.93a.73.73,0,0,0-.6.32,1.45,1.45,0,0,0-.23.87,1.42,1.42,0,0,0,.23.84.67.67,0,0,0,.6.3.64.64,0,0,0,.58-.3,2,2,0,0,0,0-1.73A.67.67,0,0,0,99.58,19.8Z"/><path class="cls-2" d="M103.18,18.26a.62.62,0,0,0-.3-.09c-.32,0-.47.21-.47.64v.45h.66v.6h-.66v2.78h-.64V19.88h-.49v-.6h.49v-.55a1.17,1.17,0,0,1,.3-.84.92.92,0,0,1,.73-.3,1.3,1.3,0,0,1,.38.05Z"/><path class="cls-2" d="M105.94,21.17H104a1,1,0,0,0,.24.72.84.84,0,0,0,.64.26,1.23,1.23,0,0,0,.82-.32v.6a1.7,1.7,0,0,1-1,.28,1.11,1.11,0,0,1-1-.47,2.13,2.13,0,0,1-.36-1.29,2,2,0,0,1,.39-1.28,1.18,1.18,0,0,1,1-.49,1,1,0,0,1,.9.45,2.15,2.15,0,0,1,.32,1.24Zm-.62-.54a1.06,1.06,0,0,0-.17-.64.52.52,0,0,0-.45-.22.55.55,0,0,0-.47.24,1.23,1.23,0,0,0-.24.64h1.33Z"/><path class="cls-2" d="M106.37,22.54v-.71a1.1,1.1,0,0,0,.79.32c.39,0,.58-.13.58-.41a.27.27,0,0,0-.06-.19.45.45,0,0,0-.13-.15,1,1,0,0,0-.2-.11l-.27-.12-.32-.17a.85.85,0,0,1-.22-.2.68.68,0,0,1-.13-.27,1.39,1.39,0,0,1-.06-.33,1,1,0,0,1,.1-.43.74.74,0,0,1,.26-.32.82.82,0,0,1,.37-.19,1.67,1.67,0,0,1,.44-.06,1.88,1.88,0,0,1,.71.15V20a1.06,1.06,0,0,0-.7-.25.85.85,0,0,0-.22,0l-.17.08A.5.5,0,0,0,107,20a.47.47,0,0,0,0,.17.48.48,0,0,0,0,.18.25.25,0,0,0,.11.14l.19.11.24.11a1.69,1.69,0,0,1,.32.19.83.83,0,0,1,.24.21.63.63,0,0,1,.16.26,1.18,1.18,0,0,1,0,.35,1.34,1.34,0,0,1-.09.46,1,1,0,0,1-.27.31,1.3,1.3,0,0,1-.37.19,1.74,1.74,0,0,1-.45.06A2.15,2.15,0,0,1,106.37,22.54Z"/><path class="cls-2" d="M108.81,22.54v-.71a1.1,1.1,0,0,0,.79.32c.39,0,.58-.13.58-.41a.27.27,0,0,0-.06-.19.45.45,0,0,0-.13-.15,1,1,0,0,0-.2-.11l-.27-.12L109.2,21a.85.85,0,0,1-.22-.2.68.68,0,0,1-.13-.27,1.39,1.39,0,0,1-.06-.33,1,1,0,0,1,.1-.43.74.74,0,0,1,.26-.32.82.82,0,0,1,.37-.19,1.67,1.67,0,0,1,.44-.06,1.88,1.88,0,0,1,.71.15V20a1.06,1.06,0,0,0-.7-.25.85.85,0,0,0-.22,0l-.17.08a.5.5,0,0,0-.11.13.47.47,0,0,0,0,.17.48.48,0,0,0,0,.18.25.25,0,0,0,.11.14l.19.11.24.11a1.69,1.69,0,0,1,.32.19.83.83,0,0,1,.24.21.53.53,0,0,1,.15.26.91.91,0,0,1,.06.35,1.34,1.34,0,0,1-.09.46,1,1,0,0,1-.27.31,1.3,1.3,0,0,1-.37.19,1.74,1.74,0,0,1-.45.06A2.33,2.33,0,0,1,108.81,22.54Z"/><path class="cls-2" d="M111.78,18.56a.3.3,0,0,1-.27-.13.44.44,0,0,1-.11-.32.52.52,0,0,1,.11-.32.43.43,0,0,1,.27-.13.35.35,0,0,1,.28.13.48.48,0,0,1,.11.32.42.42,0,0,1-.11.3A.34.34,0,0,1,111.78,18.56Zm.32,4.1h-.64V19.28h.64Z"/><path class="cls-2" d="M114.18,22.73a1.29,1.29,0,0,1-1.05-.47,1.87,1.87,0,0,1-.4-1.26,1.91,1.91,0,0,1,.42-1.33,1.36,1.36,0,0,1,1.1-.47,1.23,1.23,0,0,1,1,.47,2.07,2.07,0,0,1,.37,1.3,2,2,0,0,1-.39,1.29A1.43,1.43,0,0,1,114.18,22.73Zm0-2.93a.73.73,0,0,0-.6.32,1.45,1.45,0,0,0-.23.87,1.42,1.42,0,0,0,.23.84.67.67,0,0,0,.6.3.64.64,0,0,0,.58-.3,2,2,0,0,0,0-1.73A.67.67,0,0,0,114.22,19.8Z"/><path class="cls-2" d="M118.83,22.66h-.64V20.74c0-.64-.18-.94-.56-.94a.63.63,0,0,0-.49.27,1,1,0,0,0-.18.65v1.94h-.64V19.28H117v.56h0a1,1,0,0,1,.92-.64.84.84,0,0,1,.72.36,1.77,1.77,0,0,1,.24,1v2.07Z"/><path class="cls-2" d="M121.8,22.66h-.62v-.53h0a.91.91,0,0,1-.86.6.85.85,0,0,1-.66-.26,1.09,1.09,0,0,1-.24-.72,1,1,0,0,1,.92-1.1l.84-.15c0-.49-.19-.72-.58-.72a1.27,1.27,0,0,0-.92.42v-.68a1.82,1.82,0,0,1,1-.32c.71,0,1.07.42,1.07,1.26v2.2ZM121.18,21l-.6.09a.71.71,0,0,0-.41.17c-.1.07-.14.2-.14.41a.47.47,0,0,0,.14.36.44.44,0,0,0,.33.13.62.62,0,0,0,.49-.24,1,1,0,0,0,.19-.62V21Z"/><path class="cls-2" d="M123.24,22.66h-.63v-5h.63Z"/><path class="cls-2" d="M58.47,12.15l-.3.85h0a6.52,6.52,0,0,0-.29-.83l-1.6-4H54.69v6.4h1v-4c0-.25,0-.53,0-.88,0-.17,0-.3,0-.4h0a4.29,4.29,0,0,0,.15.55l1.92,4.67h.73l1.9-4.72a4.37,4.37,0,0,0,.13-.5h0c0,.47,0,.89-.05,1.15v4.06h1.1V8.14h-1.5Zm4.19-2.21h1.07v4.59H62.66ZM63.2,8a.62.62,0,0,0-.45.19.55.55,0,0,0-.19.44.56.56,0,0,0,.19.44.6.6,0,0,0,.45.17.65.65,0,0,0,.46-.17.6.6,0,0,0,.19-.44A.65.65,0,0,0,63.2,8m4.35,1.9a3.16,3.16,0,0,0-.6-.07,2.55,2.55,0,0,0-1.31.33,2.14,2.14,0,0,0-.86.88,2.81,2.81,0,0,0-.3,1.33,2.48,2.48,0,0,0,.29,1.18,1.94,1.94,0,0,0,.81.82,2.4,2.4,0,0,0,1.18.29,2.55,2.55,0,0,0,1.3-.31h0v-1l0,0a1.88,1.88,0,0,1-.52.28,1.82,1.82,0,0,1-.51.1,1.27,1.27,0,0,1-1-.4,1.54,1.54,0,0,1-.38-1.09A1.57,1.57,0,0,1,66,11.16a1.32,1.32,0,0,1,1-.42,1.78,1.78,0,0,1,1,.35l0,0v-1h0a2.82,2.82,0,0,0-.51-.16m3.55,0a1.17,1.17,0,0,0-.73.25,1.64,1.64,0,0,0-.41.62h0v-.8H68.87v4.59H70V12.18a1.52,1.52,0,0,1,.27-1,.82.82,0,0,1,.69-.38c.1,0,.2,0,.32,0a1.12,1.12,0,0,1,.26.11l0,0V10h0a.86.86,0,0,0-.41-.07m2.93,0a2.37,2.37,0,0,0-1.78.66,2.48,2.48,0,0,0-.63,1.81A2.36,2.36,0,0,0,72.24,14a2.59,2.59,0,0,0,3.43,0,2.46,2.46,0,0,0,.64-1.78,2.37,2.37,0,0,0-.61-1.73A2.17,2.17,0,0,0,74,9.84m.86,3.53a1.1,1.1,0,0,1-.9.38,1.16,1.16,0,0,1-.93-.4,1.66,1.66,0,0,1-.33-1.1,1.79,1.79,0,0,1,.33-1.13,1.16,1.16,0,0,1,.92-.39,1.11,1.11,0,0,1,.9.38,1.72,1.72,0,0,1,.33,1.12,1.93,1.93,0,0,1-.32,1.14m3.82-1.53a2.25,2.25,0,0,1-.65-.34.42.42,0,0,1-.13-.34.37.37,0,0,1,.18-.33.73.73,0,0,1,.47-.13,2.09,2.09,0,0,1,.55.08,1.43,1.43,0,0,1,.48.23l0,0V10h0a3,3,0,0,0-.49-.14,3.74,3.74,0,0,0-.53-.05,2,2,0,0,0-1.27.4,1.22,1.22,0,0,0-.48,1,1.34,1.34,0,0,0,.1.56,1.37,1.37,0,0,0,.33.43,3,3,0,0,0,.67.38,5.48,5.48,0,0,1,.55.25,1.14,1.14,0,0,1,.25.2.5.5,0,0,1,.07.26c0,.3-.24.45-.71.45a1.92,1.92,0,0,1-.59-.1,2.69,2.69,0,0,1-.61-.31l0,0v1.05h0a3.52,3.52,0,0,0,.57.18,3.9,3.9,0,0,0,.63.07,2,2,0,0,0,1.33-.39,1.28,1.28,0,0,0,.5-1.05,1.15,1.15,0,0,0-.26-.78,3.44,3.44,0,0,0-1-.58m4.07-2A2.38,2.38,0,0,0,81,10.5a2.52,2.52,0,0,0-.63,1.81A2.33,2.33,0,0,0,81,14a2.24,2.24,0,0,0,1.68.63A2.28,2.28,0,0,0,84.42,14a2.46,2.46,0,0,0,.64-1.78,2.41,2.41,0,0,0-.6-1.73,2.19,2.19,0,0,0-1.68-.63m.86,3.53a1.27,1.27,0,0,1-1.83,0,1.61,1.61,0,0,1-.33-1.1,1.73,1.73,0,0,1,.33-1.13,1.14,1.14,0,0,1,.92-.39,1.1,1.1,0,0,1,.89.38A1.72,1.72,0,0,1,84,12.23a1.86,1.86,0,0,1-.31,1.14m7.17-2.54V9.94H89.73V8.58h0l-1,.31h0v1H87V9.36a.93.93,0,0,1,.18-.6.63.63,0,0,1,.51-.2,1.11,1.11,0,0,1,.48.11l0,0V7.75h0a1.92,1.92,0,0,0-.61-.09,2,2,0,0,0-.86.2,1.4,1.4,0,0,0-.59.59,1.7,1.7,0,0,0-.21.85v.64h-.76v.88h.76v3.71H87v-3.7h1.62v2.36c0,1,.46,1.45,1.37,1.45a2.4,2.4,0,0,0,.46-.05,1.81,1.81,0,0,0,.34-.1h0v-.89l0,0a.45.45,0,0,1-.22.1.64.64,0,0,1-.22,0,.56.56,0,0,1-.47-.18.86.86,0,0,1-.15-.58V10.83Z"/></svg>