<svg id="Layer_1" data-name="Layer 1" xmlns="http://www.w3.org/2000/svg" viewBox="0 0 70 125"><defs><style>.cls-1{fill:#0078d7;}.cls-2{fill:#fff;}</style></defs><rect class="cls-1" x="-1.95" y="-2.02" width="73.56" height="129.36"/><path class="cls-2" d="M14.66,34.48q10.65-10.6,21.25-21.25Q46.55,23.87,57.18,34.49L35.92,55.74Q25.32,45.09,14.66,34.48Zm7.62-6.83c0,4.27,0,8.54,0,12.82h2c0-3.48,0-7-.08-10.43.58,3.52,1.57,7,2.36,10.42h2.26C29.62,37,30.53,33.52,31.14,30c-.06,3.48-.05,7-.05,10.46h2.1c0-4.28,0-8.55,0-12.82a29.93,29.93,0,0,0-3.28.07c-.73,3.23-1.56,6.45-2,9.73-.58-3.29-1.44-6.53-2.16-9.8Zm11.74,0L37.2,40.47h2.62C40.93,36.2,42,31.93,43.1,27.65H40.64c-.7,3.35-1.5,6.69-2.06,10.07-.5-3.38-1.34-6.71-2-10.07Zm9.83,0V40.46h2.48V36.1a5.43,5.43,0,0,0,3.22-.6c1.92-1.24,2.32-4,1.42-6a3.4,3.4,0,0,0-3-1.86C46.6,27.6,45.23,27.67,43.85,27.65Z"/><path class="cls-2" d="M46.33,29.3c.78,0,1.77,0,2.22.77a3.15,3.15,0,0,1,0,2.79c-.45.79-1.45.61-2.21.68Z"/><path class="cls-2" d="M3.67,101.48c1.1,0,2.21,0,3.32,0a2.85,2.85,0,0,1,2.41,1.24A3,3,0,0,1,9,106.24a3.82,3.82,0,0,1-1.3.74,3.32,3.32,0,0,1,.87,1.1c.57,1.16,1.1,2.32,1.67,3.47H8.71c-.43-1-.84-2-1.27-2.91a2.17,2.17,0,0,0-1-1.23,4.49,4.49,0,0,0-1.55-.13c0,1.42,0,2.84,0,4.27H3.67Zm1.2,1.12v3.57c1-.06,2.08.24,2.91-.4a1.8,1.8,0,0,0-.06-2.91A7.17,7.17,0,0,0,4.87,102.6Z"/><path class="cls-2" d="M63.35,102.6l1.2-.38v2.15h1.81v1H64.55v4.09a1.28,1.28,0,0,0,.41,1.1c.43.29,1,.09,1.42,0l0,1a2.83,2.83,0,0,1-2.28-.13,2.11,2.11,0,0,1-.72-1.81c0-1.42,0-2.85,0-4.26H62.1c0-.34,0-.66,0-1h1.25C63.34,103.78,63.34,103.19,63.35,102.6Z"/><path class="cls-2" d="M13.15,104.42a3.05,3.05,0,0,1,3.55.81,4.83,4.83,0,0,1,.67,3h-5.1a2.54,2.54,0,0,0,1.12,2.16,3.38,3.38,0,0,0,3.46-.49,9.85,9.85,0,0,1,0,1.09,3.78,3.78,0,0,1-2.45.71,3.09,3.09,0,0,1-2.38-.92,4.36,4.36,0,0,1-.89-3.44A3.55,3.55,0,0,1,13.15,104.42Zm-.07,1.31a3.15,3.15,0,0,0-.8,1.52h3.9a2.66,2.66,0,0,0-.68-1.67A1.88,1.88,0,0,0,13.08,105.73Z"/><path class="cls-2" d="M19.41,105.17a4,4,0,0,1,4.33-.64c0,.4,0,.81,0,1.22a2.87,2.87,0,0,0-3.06-.16,3.14,3.14,0,0,0-.95,3.67,2.23,2.23,0,0,0,1.9,1.45,3.26,3.26,0,0,0,2.11-.6c0,.4,0,.79,0,1.19a4.24,4.24,0,0,1-3.55.11,3.26,3.26,0,0,1-1.8-2.46A4.27,4.27,0,0,1,19.41,105.17Z"/><path class="cls-2" d="M27,104.38a4.58,4.58,0,0,1,2.62,0,3.16,3.16,0,0,1,2.06,2.43,4.71,4.71,0,0,1-.5,3.45,3.64,3.64,0,0,1-5.92,0A4.59,4.59,0,0,1,24.8,107,3.31,3.31,0,0,1,27,104.38Zm.32,1c-1.48.65-1.7,2.64-1.17,4a2.37,2.37,0,0,0,3.43,1,2.45,2.45,0,0,0,1-1.93A3.48,3.48,0,0,0,30,105.9,2.41,2.41,0,0,0,27.35,105.38Z"/><path class="cls-2" d="M34.57,105.49a3,3,0,0,1,1.36-1.14,2.59,2.59,0,0,1,2.88.64,4.88,4.88,0,0,1,.6,3.07c0,1.17,0,2.33,0,3.5H38.2c0-1.45,0-2.9,0-4.34a2.06,2.06,0,0,0-.81-1.82,1.87,1.87,0,0,0-2.18.4,2.48,2.48,0,0,0-.62,1.75c0,1.33,0,2.67,0,4h-1.2c0-2.39,0-4.78,0-7.16a9.63,9.63,0,0,1,1.2,0C34.58,104.74,34.58,105.11,34.57,105.49Z"/><path class="cls-2" d="M44.05,104.3a2.64,2.64,0,0,1,2.55.49,3.39,3.39,0,0,1,.77,2.42v4.35h-1.2c0-1.51,0-3,0-4.51,0-.84-.51-1.83-1.45-1.83a2,2,0,0,0-2.13,2c0,1.45,0,2.9,0,4.35H41.34v-7.19h1.21c0,.37,0,.75,0,1.12A2.93,2.93,0,0,1,44.05,104.3Z"/><path class="cls-2" d="M50.88,104.41a3.08,3.08,0,0,1,3.47.73,4.67,4.67,0,0,1,.73,3.14H50a2.5,2.5,0,0,0,1.13,2.16,3.39,3.39,0,0,0,3.45-.49c0,.38.08.82-.09,1.16a4.19,4.19,0,0,1-2.54.64,3,3,0,0,1-2.24-.93,4.28,4.28,0,0,1-.9-3.28A3.61,3.61,0,0,1,50.88,104.41Zm-.08,1.32a3.2,3.2,0,0,0-.8,1.52h3.9a2.69,2.69,0,0,0-.68-1.66A1.87,1.87,0,0,0,50.8,105.73Z"/><path class="cls-2" d="M57.22,105.08a4.17,4.17,0,0,1,4.22-.59c0,.42,0,.84,0,1.26a2.88,2.88,0,0,0-3.05-.17,3.15,3.15,0,0,0-1,3.58,2.21,2.21,0,0,0,1.76,1.52,3.14,3.14,0,0,0,2.29-.57c0,.4,0,.79,0,1.19a4.2,4.2,0,0,1-3.66.06,3.31,3.31,0,0,1-1.7-2.41A4.25,4.25,0,0,1,57.22,105.08Z"/><path class="cls-2" d="M17.25,81.35H16.4v-4c0-.32,0-.74.05-1.2h0a3.49,3.49,0,0,1-.15.59l-1.53,4.58h-.59l-1.51-4.56a4.51,4.51,0,0,1-.15-.61h0c0,.24,0,.66,0,1.2v4h-.78V75.2h1.2l1.36,4.1a6.61,6.61,0,0,1,.2.71h0c.1-.32.17-.56.22-.73L16.1,75.2h1.17v6.15Z"/><path class="cls-2" d="M20.08,81.45a1.69,1.69,0,0,1-1.37-.61,2.47,2.47,0,0,1-.51-1.63,2.54,2.54,0,0,1,.54-1.74,1.8,1.8,0,0,1,1.44-.61,1.59,1.59,0,0,1,1.34.61A2.68,2.68,0,0,1,22,79.16a2.57,2.57,0,0,1-.51,1.68A1.87,1.87,0,0,1,20.08,81.45Zm0-3.81a1,1,0,0,0-.78.42A1.89,1.89,0,0,0,19,79.18a1.87,1.87,0,0,0,.29,1.1.89.89,0,0,0,.78.39.85.85,0,0,0,.76-.39,2.06,2.06,0,0,0,.27-1.12A2.09,2.09,0,0,0,20.86,78,.83.83,0,0,0,20.1,77.64Z"/><path class="cls-2" d="M22.62,81.21v-.93a1.47,1.47,0,0,0,1,.41c.52,0,.76-.17.76-.53a.44.44,0,0,0-.07-.25,1.45,1.45,0,0,0-.17-.19l-.27-.15-.34-.14-.42-.22a1.08,1.08,0,0,1-.29-.27.78.78,0,0,1-.17-.34,1.82,1.82,0,0,1-.08-.44,1.25,1.25,0,0,1,.13-.56,1,1,0,0,1,.34-.42,1.13,1.13,0,0,1,.49-.24,2.1,2.1,0,0,1,.56-.08,2.33,2.33,0,0,1,.92.2v.88a1.34,1.34,0,0,0-.9-.32,1,1,0,0,0-.29,0,1.47,1.47,0,0,0-.22.1.86.86,0,0,0-.15.17.79.79,0,0,0,0,.22.85.85,0,0,0,0,.24.4.4,0,0,0,.15.17,1.67,1.67,0,0,0,.24.15,2.37,2.37,0,0,0,.32.14,2.36,2.36,0,0,1,.41.25,1,1,0,0,1,.32.27.9.9,0,0,1,.2.34,1.27,1.27,0,0,1,.07.46,1.55,1.55,0,0,1-.12.59,1.52,1.52,0,0,1-.34.41,1.89,1.89,0,0,1-.49.25,2.38,2.38,0,0,1-.59.07A2.65,2.65,0,0,1,22.62,81.21Z"/><path class="cls-2" d="M28,81.3a1.25,1.25,0,0,1-.63.15c-.71,0-1.08-.41-1.08-1.22V77.74h-.61V77h.61v-1l.83-.3v1.3H28v.78h-.88v2.19a1.08,1.08,0,0,0,.12.56.43.43,0,0,0,.4.18A.49.49,0,0,0,28,80.5Z"/><path class="cls-2" d="M34.87,75.2,33,81.35h-.95L30.23,75.2h.93l1.27,4.66a2.43,2.43,0,0,1,.09.52h0a4.18,4.18,0,0,1,.1-.54L34,75.2Z"/><path class="cls-2" d="M37.75,81.35h-.81v-.68h0a1.19,1.19,0,0,1-1.13.78,1.09,1.09,0,0,1-.85-.34,1.4,1.4,0,0,1-.32-.93,1.29,1.29,0,0,1,1.2-1.44l1.1-.19c0-.64-.25-.93-.76-.93a1.64,1.64,0,0,0-1.2.54v-.88a2.3,2.3,0,0,1,1.35-.42c.92,0,1.39.54,1.39,1.64v2.85Zm-.81-2.17-.78.12a1,1,0,0,0-.54.22.66.66,0,0,0-.17.54.6.6,0,0,0,.17.46.56.56,0,0,0,.44.17.77.77,0,0,0,.64-.31,1.28,1.28,0,0,0,.24-.81Z"/><path class="cls-2" d="M39.6,81.35h-.83V74.84h.83Z"/><path class="cls-2" d="M43.92,81.35h-.83v-.68h0a1.18,1.18,0,0,1-1.12.81c-.88,0-1.32-.64-1.32-1.88V77h.83v2.51c0,.79.25,1.2.76,1.2a.74.74,0,0,0,.61-.32,1.36,1.36,0,0,0,.24-.85V77h.83v4.39Z"/><path class="cls-2" d="M47.82,81.35H47v-.68h0a1.17,1.17,0,0,1-1.12.78,1.08,1.08,0,0,1-.85-.34,1.4,1.4,0,0,1-.32-.93,1.29,1.29,0,0,1,1.19-1.44l1.1-.19c0-.64-.24-.93-.75-.93a1.64,1.64,0,0,0-1.2.54v-.88a2.29,2.29,0,0,1,1.34-.42c.93,0,1.39.54,1.39,1.64v2.85ZM47,79.18l-.78.12a1,1,0,0,0-.54.22.66.66,0,0,0-.17.54.6.6,0,0,0,.17.46.56.56,0,0,0,.44.17.76.76,0,0,0,.63-.31,1.28,1.28,0,0,0,.25-.81v-.39Z"/><path class="cls-2" d="M49.7,80.72h0l0,.63h-.83V74.84h.83v2.88h0a1.35,1.35,0,0,1,1.24-.88,1.26,1.26,0,0,1,1.1.58A2.8,2.8,0,0,1,52.43,79,3.08,3.08,0,0,1,52,80.77a1.38,1.38,0,0,1-1.22.66A1.11,1.11,0,0,1,49.7,80.72Zm0-1.76v.54a1.26,1.26,0,0,0,.26.8.82.82,0,0,0,1.4-.09A2.4,2.4,0,0,0,51.6,79a1.75,1.75,0,0,0-.24-1,.76.76,0,0,0-.66-.37A.82.82,0,0,0,50,78,1.54,1.54,0,0,0,49.68,79Z"/><path class="cls-2" d="M54.14,81.35h-.83V74.84h.83Z"/><path class="cls-2" d="M58.34,79.43H55.82a1.34,1.34,0,0,0,.32.92,1.09,1.09,0,0,0,.83.34A1.61,1.61,0,0,0,58,80.28v.78a2.26,2.26,0,0,1-1.34.37,1.5,1.5,0,0,1-1.27-.61A2.87,2.87,0,0,1,55,79.13a2.57,2.57,0,0,1,.51-1.66,1.51,1.51,0,0,1,1.27-.63,1.33,1.33,0,0,1,1.17.58A2.83,2.83,0,0,1,58.34,79Zm-.81-.71a1.3,1.3,0,0,0-.22-.83.67.67,0,0,0-.58-.29.71.71,0,0,0-.61.31,1.72,1.72,0,0,0-.32.83h1.73Z"/><path class="cls-2" d="M16.21,88.24v2.22h-.85V84.34h1.56a2,2,0,0,1,1.39.48,1.88,1.88,0,0,1,.49,1.39,2.12,2.12,0,0,1-.51,1.47,1.74,1.74,0,0,1-1.39.56Zm0-3.08v2.25h.56a1.09,1.09,0,0,0,.83-.29,1.17,1.17,0,0,0,.3-.86c0-.73-.34-1.07-1-1.07h-.64Z"/><path class="cls-2" d="M21.7,87a.61.61,0,0,0-.44-.14.68.68,0,0,0-.61.39,2,2,0,0,0-.24,1.07v2.1h-.83V86.07h.83V87h0a1.52,1.52,0,0,1,.37-.73.82.82,0,0,1,.56-.27.62.62,0,0,1,.34.07Z"/><path class="cls-2" d="M23.87,90.58A1.65,1.65,0,0,1,22.51,90,2.47,2.47,0,0,1,22,88.34a2.59,2.59,0,0,1,.53-1.74A1.82,1.82,0,0,1,24,86a1.57,1.57,0,0,1,1.34.61,2.68,2.68,0,0,1,.49,1.69A2.55,2.55,0,0,1,25.29,90,1.87,1.87,0,0,1,23.87,90.58Zm.05-3.8a1,1,0,0,0-.78.41,1.89,1.89,0,0,0-.29,1.12,1.87,1.87,0,0,0,.29,1.1.89.89,0,0,0,.78.39.85.85,0,0,0,.76-.39A2.06,2.06,0,0,0,25,88.29a2,2,0,0,0-.27-1.12A.85.85,0,0,0,23.92,86.78Z"/><path class="cls-2" d="M28.61,84.77a.78.78,0,0,0-.39-.12c-.42,0-.61.27-.61.83v.59h.85v.78h-.85v3.61h-.83V86.87h-.64v-.78h.64v-.71a1.46,1.46,0,0,1,.39-1.09,1.2,1.2,0,0,1,.95-.39,1.34,1.34,0,0,1,.49.07Z"/><path class="cls-2" d="M32.19,88.56H29.68a1.3,1.3,0,0,0,.32.92,1.08,1.08,0,0,0,.83.35,1.64,1.64,0,0,0,1.07-.42v.78a2.19,2.19,0,0,1-1.34.37A1.47,1.47,0,0,1,29.29,90a2.85,2.85,0,0,1-.46-1.69,2.57,2.57,0,0,1,.51-1.66A1.54,1.54,0,0,1,30.61,86a1.34,1.34,0,0,1,1.17.59,2.78,2.78,0,0,1,.41,1.61Zm-.8-.71a1.3,1.3,0,0,0-.22-.83.69.69,0,0,0-.59-.29A.73.73,0,0,0,30,87a1.72,1.72,0,0,0-.31.83h1.73Z"/><path class="cls-2" d="M32.76,90.34v-.93a1.45,1.45,0,0,0,1,.42c.51,0,.76-.18.76-.54a.37.37,0,0,0-.08-.25,1,1,0,0,0-.17-.19A2.18,2.18,0,0,0,34,88.7c-.09,0-.22-.09-.34-.14l-.41-.22a1.08,1.08,0,0,1-.29-.27.93.93,0,0,1-.18-.34,2.54,2.54,0,0,1-.07-.44,1.4,1.4,0,0,1,.12-.56,1.26,1.26,0,0,1,.34-.42,1.25,1.25,0,0,1,.49-.24,2.23,2.23,0,0,1,.56-.08,2.34,2.34,0,0,1,.93.2v.88A1.24,1.24,0,0,0,34,86.8a1.47,1.47,0,0,0-.22.1.86.86,0,0,0-.15.17.55.55,0,0,0,0,.46.3.3,0,0,0,.15.17,1.67,1.67,0,0,0,.24.15l.32.15a2.1,2.1,0,0,1,.41.24,1.07,1.07,0,0,1,.32.27.83.83,0,0,1,.19.34,1.26,1.26,0,0,1,.08.46,1.55,1.55,0,0,1-.12.59,1.39,1.39,0,0,1-.35.41,1.69,1.69,0,0,1-.48.25,2.38,2.38,0,0,1-.59.07A2.65,2.65,0,0,1,32.76,90.34Z"/><path class="cls-2" d="M35.93,90.34v-.93a1.46,1.46,0,0,0,1,.42c.51,0,.76-.18.76-.54a.44.44,0,0,0-.07-.25,1,1,0,0,0-.18-.19l-.26-.15-.35-.14-.41-.22a1.08,1.08,0,0,1-.29-.27.78.78,0,0,1-.17-.34,1.82,1.82,0,0,1-.08-.44,1.25,1.25,0,0,1,.13-.56,1.06,1.06,0,0,1,.34-.42,1.15,1.15,0,0,1,.48-.24,2.24,2.24,0,0,1,.57-.08,2.33,2.33,0,0,1,.92.2v.88a1.24,1.24,0,0,0-1.19-.27,1.47,1.47,0,0,0-.22.1.86.86,0,0,0-.15.17.55.55,0,0,0,0,.46.35.35,0,0,0,.15.17,1.67,1.67,0,0,0,.24.15l.32.15a1.84,1.84,0,0,1,.41.24,1,1,0,0,1,.32.27,1,1,0,0,1,.2.34,1.53,1.53,0,0,1-.05,1.05,1.52,1.52,0,0,1-.34.41,1.89,1.89,0,0,1-.49.25,2.38,2.38,0,0,1-.59.07A2.93,2.93,0,0,1,35.93,90.34Z"/><path class="cls-2" d="M39.78,85.16a.38.38,0,0,1-.34-.17.54.54,0,0,1-.15-.41.64.64,0,0,1,.15-.42.55.55,0,0,1,.34-.17.45.45,0,0,1,.37.17.58.58,0,0,1,.14.42.54.54,0,0,1-.14.39A.45.45,0,0,1,39.78,85.16Zm.42,5.32h-.83V86.09h.83Z"/><path class="cls-2" d="M42.91,90.58A1.66,1.66,0,0,1,41.54,90,2.47,2.47,0,0,1,41,88.34a2.59,2.59,0,0,1,.53-1.74A1.82,1.82,0,0,1,43,86a1.57,1.57,0,0,1,1.34.61,2.68,2.68,0,0,1,.49,1.69A2.55,2.55,0,0,1,44.32,90,1.86,1.86,0,0,1,42.91,90.58Zm0-3.8a1,1,0,0,0-.78.41,1.89,1.89,0,0,0-.29,1.12,1.87,1.87,0,0,0,.29,1.1.89.89,0,0,0,.78.39.85.85,0,0,0,.76-.39A2.06,2.06,0,0,0,44,88.29a2,2,0,0,0-.27-1.12A.85.85,0,0,0,43,86.78Z"/><path class="cls-2" d="M49,90.48h-.83V88c0-.83-.25-1.22-.74-1.22a.79.79,0,0,0-.63.34,1.36,1.36,0,0,0-.24.85v2.51h-.83V86.09h.83v.73h0a1.29,1.29,0,0,1,1.2-.83,1,1,0,0,1,.92.47A2.31,2.31,0,0,1,49,87.8v2.68Z"/><path class="cls-2" d="M52.81,90.48H52V89.8h0a1.17,1.17,0,0,1-1.12.78,1.08,1.08,0,0,1-.85-.34,1.4,1.4,0,0,1-.32-.93,1.29,1.29,0,0,1,1.19-1.44l1.1-.19c0-.64-.24-.93-.75-.93a1.64,1.64,0,0,0-1.2.54v-.88A2.29,2.29,0,0,1,51.37,86c.93,0,1.39.54,1.39,1.64v2.85ZM52,88.31l-.78.12a1,1,0,0,0-.54.22.66.66,0,0,0-.17.54.6.6,0,0,0,.17.46.57.57,0,0,0,.44.18.77.77,0,0,0,.63-.32A1.28,1.28,0,0,0,52,88.7v-.39Z"/><path class="cls-2" d="M54.69,90.48h-.83V84h.83Z"/><path class="cls-2" d="M58.91,64.18a1.47,1.47,0,0,1-1-.43,1.36,1.36,0,0,1-.43-1,1.4,1.4,0,0,1,.43-1,1.51,1.51,0,0,1,2.09,0,1.41,1.41,0,0,1,.44,1,1.37,1.37,0,0,1-.44,1A1.46,1.46,0,0,1,58.91,64.18Zm0-2.66a1.18,1.18,0,0,0-.86.36,1.18,1.18,0,0,0,0,1.7,1.17,1.17,0,0,0,.86.35,1.15,1.15,0,0,0,.86-.35,1.21,1.21,0,0,0-.86-2.06Zm.75,2.1h-.43l-.18-.42c-.09-.21-.18-.31-.29-.31h-.11v.73H58.3V61.8h.55a.88.88,0,0,1,.53.14.44.44,0,0,1,.19.36.47.47,0,0,1-.12.32.53.53,0,0,1-.33.18h0c.1,0,.2.14.3.34Zm-1-1.52v.51h.2c.23,0,.34-.08.34-.26a.21.21,0,0,0-.09-.19.55.55,0,0,0-.29-.06Z"/><path class="cls-2" d="M14.57,66.58l-.39,1.1h0a6.51,6.51,0,0,0-.38-1.08L11.7,61.38h-2V69.7H11V64.56c0-.32,0-.68,0-1.14A4.82,4.82,0,0,0,11,62.9h0a5.11,5.11,0,0,0,.19.71l2.5,6.07h.94l2.48-6.13c0-.14.11-.42.16-.65h0c0,.61-.05,1.16-.06,1.49v5.28h1.43V61.36h-2ZM20,63.7h1.4v6H20Zm.71-2.51a.82.82,0,0,0-.59.23.74.74,0,0,0-.25.58.72.72,0,0,0,.25.57.82.82,0,0,0,.59.23.87.87,0,0,0,.59-.23.76.76,0,0,0,.25-.57.81.81,0,0,0-.25-.58.79.79,0,0,0-.59-.23m5.65,2.46a4.25,4.25,0,0,0-.79-.09,3.4,3.4,0,0,0-1.7.42,2.84,2.84,0,0,0-1.12,1.16,3.61,3.61,0,0,0-.39,1.72,3.19,3.19,0,0,0,.38,1.54,2.58,2.58,0,0,0,1.06,1.06,3.06,3.06,0,0,0,1.54.38,3.41,3.41,0,0,0,1.69-.4h0V68.14l-.06,0a2.46,2.46,0,0,1-.68.36,2.19,2.19,0,0,1-.66.13,1.7,1.7,0,0,1-1.32-.52,2,2,0,0,1-.48-1.41,2,2,0,0,1,.49-1.45,1.73,1.73,0,0,1,1.32-.54A2.29,2.29,0,0,1,27,65.2l.06,0V63.88h0a2.92,2.92,0,0,0-.67-.22m4.62,0a1.45,1.45,0,0,0-.95.33,1.92,1.92,0,0,0-.54.81h0v-1H28.1v6h1.4v-3a2.09,2.09,0,0,1,.34-1.26,1.09,1.09,0,0,1,.91-.48,3.65,3.65,0,0,1,.42.05,1,1,0,0,1,.33.14l.05,0v-1.4h0a1.1,1.1,0,0,0-.52-.09m3.81,0a3.11,3.11,0,0,0-2.32.87,3.19,3.19,0,0,0-.83,2.34A3.06,3.06,0,0,0,32.48,69a3,3,0,0,0,2.19.82A3,3,0,0,0,36.94,69a3.21,3.21,0,0,0,.82-2.32A3.11,3.11,0,0,0,37,64.39a2.83,2.83,0,0,0-2.17-.82m1.11,4.59a1.4,1.4,0,0,1-1.17.49,1.48,1.48,0,0,1-1.2-.51,2.14,2.14,0,0,1-.43-1.43,2.28,2.28,0,0,1,.43-1.47,1.47,1.47,0,0,1,1.19-.51,1.43,1.43,0,0,1,1.16.49,2.22,2.22,0,0,1,.43,1.45,2.47,2.47,0,0,1-.41,1.49m5-2a2.93,2.93,0,0,1-.85-.44.61.61,0,0,1-.17-.45.49.49,0,0,1,.23-.43,1,1,0,0,1,.61-.17,2.92,2.92,0,0,1,.72.11,1.93,1.93,0,0,1,.63.29l0,0V63.82h0a4.14,4.14,0,0,0-.63-.18,4.87,4.87,0,0,0-.69-.07,2.53,2.53,0,0,0-1.65.52,1.59,1.59,0,0,0-.63,1.31,1.72,1.72,0,0,0,.14.74,1.59,1.59,0,0,0,.43.56,3.59,3.59,0,0,0,.86.48c.32.14.57.25.72.33a1.6,1.6,0,0,1,.32.26.68.68,0,0,1,.09.34c0,.39-.3.59-.92.59a2.62,2.62,0,0,1-.77-.14,3.25,3.25,0,0,1-.79-.4l-.05,0v1.36h0a4.15,4.15,0,0,0,.75.24,5.24,5.24,0,0,0,.81.1,2.59,2.59,0,0,0,1.73-.52,1.65,1.65,0,0,0,.66-1.36,1.55,1.55,0,0,0-.34-1,4.32,4.32,0,0,0-1.26-.74m5.29-2.61a3.08,3.08,0,0,0-2.31.87A3.23,3.23,0,0,0,43,66.78,3.06,3.06,0,0,0,43.86,69a2.94,2.94,0,0,0,2.18.82A3,3,0,0,0,48.31,69a3.22,3.22,0,0,0,.83-2.32,3.16,3.16,0,0,0-.78-2.25,2.84,2.84,0,0,0-2.18-.82m1.11,4.59a1.42,1.42,0,0,1-1.17.49,1.47,1.47,0,0,1-1.21-.51,2.14,2.14,0,0,1-.43-1.43,2.28,2.28,0,0,1,.43-1.47,1.49,1.49,0,0,1,1.2-.51,1.45,1.45,0,0,1,1.16.49,2.22,2.22,0,0,1,.43,1.45,2.34,2.34,0,0,1-.41,1.49m9.33-3.3V63.7H55.21V61.94h0l-1.34.4h0V63.7H51.69V63a1.22,1.22,0,0,1,.24-.79.84.84,0,0,1,.65-.25,1.54,1.54,0,0,1,.63.14l0,0V60.86h0a2.59,2.59,0,0,0-.78-.11,2.53,2.53,0,0,0-1.12.26,1.84,1.84,0,0,0-.77.77,2.23,2.23,0,0,0-.28,1.11v.82h-1v1.14h1v4.83h1.41V64.86H53.8v3.06c0,1.26.59,1.9,1.78,1.9a4,4,0,0,0,.59-.07,1.62,1.62,0,0,0,.44-.14h0V68.45l0,0a.78.78,0,0,1-.29.13,1.19,1.19,0,0,1-.28,0,.77.77,0,0,1-.62-.23,1.16,1.16,0,0,1-.19-.76V64.86Z"/><rect class="cls-2" x="3.62" y="95.63" width="62.71" height="0.85"/></svg>