<?xml version="1.0" encoding="utf-8"?>
<!-- Generator: Adobe Illustrator 25.4.1, SVG Export Plug-In . SVG Version: 6.00 Build 0)  -->
<svg version="1.1" id="Layer_1" xmlns="http://www.w3.org/2000/svg" xmlns:xlink="http://www.w3.org/1999/xlink" x="0px" y="0px"
	 viewBox="0 0 70 125" style="enable-background:new 0 0 70 125;" xml:space="preserve">
<style type="text/css">
	.st0{fill:#0078D7;}
	.st1{fill:#FFFFFF;}
</style>
<rect x="-2" y="-2" class="st0" width="73.6" height="129.4"/>
<g>
	<g>
		<path class="st1" d="M5.7,44.3c10.1-10,20.1-20.1,30.2-30.2C46,24.2,56,34.3,66.1,44.3L35.9,74.5C25.9,64.4,15.8,54.3,5.7,44.3z
			 M16.6,34.6c0,6.1,0,12.1,0,18.2h2.8c0-4.9,0-9.9-0.1-14.8c0.8,5,2.2,9.9,3.4,14.8h3.2c1.1-4.9,2.4-9.9,3.3-14.8
			c-0.1,4.9-0.1,9.9-0.1,14.8h3c0-6.1,0-12.1,0-18.2c-1.6-0.1-3.1,0-4.7,0.1c-1,4.6-2.2,9.2-2.8,13.8c-0.8-4.7-2-9.3-3.1-13.9
			L16.6,34.6z M33.2,34.6l4.5,18.2h3.7c1.6-6.1,3.1-12.1,4.7-18.2h-3.5c-1,4.8-2.1,9.5-2.9,14.3c-0.7-4.8-1.9-9.5-2.8-14.3
			L33.2,34.6z M47.2,34.6v18.2h3.5v-6.2c1.6,0.2,3.2-0.1,4.6-0.9c2.7-1.8,3.3-5.7,2-8.5c-0.8-1.6-2.5-2.6-4.3-2.6
			C51.1,34.5,49.1,34.6,47.2,34.6z"/>
		<path class="st1" d="M50.7,36.9c1.1,0,2.5,0,3.2,1.1c0.6,1.2,0.6,2.7,0,4c-0.6,1.1-2.1,0.9-3.1,1L50.7,36.9z"/>
	</g>
	<g>
		<g>
			<path class="st1" d="M12.8,99.3h-1.1v-5c0-0.4,0-0.9,0.1-1.5l0,0c0,0.3-0.1,0.5-0.2,0.7l-1.9,5.7H8.9L7,93.5
				C7,93.3,6.9,93,6.9,92.8l0,0c0,0.3,0,0.8,0,1.5v5h-1v-7.7h1.5l1.7,5.1c0.1,0.3,0.2,0.6,0.3,0.9l0,0c0.1-0.4,0.2-0.7,0.3-0.9
				l1.7-5.1h1.5L12.8,99.3L12.8,99.3z"/>
			<path class="st1" d="M16.3,99.4c-0.7,0-1.3-0.3-1.7-0.8c-0.4-0.6-0.7-1.3-0.6-2c-0.1-0.8,0.2-1.6,0.7-2.2
				c0.5-0.5,1.1-0.8,1.8-0.8c0.7,0,1.3,0.2,1.7,0.8c0.4,0.6,0.6,1.4,0.6,2.1c0,0.8-0.2,1.5-0.6,2.1C17.6,99.1,17,99.4,16.3,99.4z
				 M16.3,94.6c-0.4,0-0.8,0.2-1,0.5c-0.3,0.4-0.4,0.9-0.4,1.4c0,0.5,0.1,1,0.4,1.4c0.2,0.3,0.6,0.5,1,0.5c0.4,0,0.7-0.2,1-0.5
				c0.2-0.4,0.4-0.9,0.3-1.4c0-0.5-0.1-1-0.3-1.5C17.1,94.8,16.7,94.6,16.3,94.6L16.3,94.6z"/>
			<path class="st1" d="M19.5,99.1v-1.2c0.3,0.3,0.8,0.5,1.3,0.5c0.7,0,1-0.2,1-0.7c0-0.1,0-0.2-0.1-0.3c-0.1-0.1-0.1-0.2-0.2-0.2
				L21.1,97l-0.4-0.2l-0.5-0.3c-0.1-0.1-0.3-0.2-0.4-0.3c-0.1-0.1-0.2-0.3-0.2-0.4c-0.1-0.2-0.1-0.4-0.1-0.6c0-0.2,0.1-0.5,0.2-0.7
				c0.1-0.2,0.2-0.4,0.4-0.5c0.2-0.1,0.4-0.3,0.6-0.3c0.2-0.1,0.5-0.1,0.7-0.1c0.4,0,0.8,0.1,1.2,0.3V95c-0.3-0.3-0.7-0.4-1.1-0.4
				c-0.1,0-0.2,0-0.4,0c-0.1,0-0.2,0.1-0.3,0.1c-0.1,0.1-0.1,0.1-0.2,0.2c0,0.1,0,0.2,0,0.3c0,0.1,0,0.2,0,0.3
				c0,0.1,0.1,0.2,0.2,0.2c0.1,0.1,0.2,0.1,0.3,0.2c0.1,0.1,0.3,0.1,0.4,0.2c0.2,0.1,0.4,0.2,0.5,0.3c0.2,0.1,0.3,0.2,0.4,0.3
				c0.1,0.1,0.2,0.3,0.3,0.4c0.1,0.2,0.1,0.4,0.1,0.6c0,0.3-0.1,0.5-0.2,0.7c-0.1,0.2-0.3,0.4-0.4,0.5c-0.2,0.1-0.4,0.2-0.6,0.3
				c-0.2,0.1-0.5,0.1-0.7,0.1C20.3,99.4,19.9,99.3,19.5,99.1z"/>
			<path class="st1" d="M26.2,99.2c-0.2,0.1-0.5,0.2-0.8,0.2c-0.9,0-1.4-0.5-1.4-1.5v-3.1h-0.8v-0.9h0.8v-1.3l1-0.4v1.6h1.1v1h-1.1
				v2.7c0,0.2,0,0.5,0.2,0.7c0.1,0.2,0.3,0.2,0.5,0.2c0.2,0,0.3-0.1,0.5-0.3V99.2z"/>
			<path class="st1" d="M34.8,91.6l-2.3,7.7h-1.2L29,91.6h1.2l1.6,5.8c0.1,0.2,0.1,0.4,0.1,0.7l0,0c0-0.2,0.1-0.5,0.1-0.7l1.7-5.8
				H34.8z"/>
			<path class="st1" d="M38.4,99.3h-1v-0.9l0,0c-0.2,0.6-0.8,1-1.4,1c-0.4,0-0.8-0.1-1.1-0.4c-0.3-0.3-0.4-0.7-0.4-1.2
				c-0.1-0.9,0.5-1.7,1.4-1.8c0,0,0.1,0,0.1,0l1.4-0.2c0-0.8-0.3-1.2-1-1.2c-0.6,0-1.1,0.3-1.5,0.7v-1.1c0.5-0.3,1.1-0.5,1.7-0.5
				c1.2,0,1.7,0.7,1.7,2.1L38.4,99.3L38.4,99.3z M37.4,96.6l-1,0.2c-0.2,0-0.5,0.1-0.7,0.3c-0.2,0.2-0.2,0.4-0.2,0.7
				c0,0.2,0.1,0.4,0.2,0.6c0.1,0.1,0.3,0.2,0.6,0.2c0.3,0,0.6-0.1,0.8-0.4c0.2-0.3,0.3-0.7,0.3-1V96.6z"/>
			<path class="st1" d="M40.7,99.3h-1v-8.1h1V99.3z"/>
			<path class="st1" d="M46.1,99.3h-1v-0.9l0,0c-0.2,0.6-0.8,1-1.4,1c-1.1,0-1.7-0.8-1.7-2.4v-3.3h1V97c0,1,0.3,1.5,1,1.5
				c0.3,0,0.6-0.1,0.8-0.4c0.2-0.3,0.3-0.7,0.3-1.1v-3.2h1L46.1,99.3L46.1,99.3z"/>
			<path class="st1" d="M51,99.3h-1v-0.9l0,0c-0.2,0.6-0.8,1-1.4,1c-0.4,0-0.8-0.1-1.1-0.4c-0.3-0.3-0.4-0.7-0.4-1.2
				c-0.1-0.9,0.5-1.7,1.4-1.8c0,0,0.1,0,0.1,0l1.4-0.2c0-0.8-0.3-1.2-0.9-1.2c-0.6,0-1.1,0.3-1.5,0.7v-1.1c0.5-0.3,1.1-0.5,1.7-0.5
				c1.2,0,1.7,0.7,1.7,2.1L51,99.3L51,99.3z M50,96.6l-1,0.2c-0.2,0-0.5,0.1-0.7,0.3c-0.2,0.2-0.2,0.4-0.2,0.7
				c0,0.2,0.1,0.4,0.2,0.6c0.1,0.1,0.3,0.2,0.6,0.2c0.3,0,0.6-0.1,0.8-0.4c0.2-0.3,0.3-0.6,0.3-1C50,97,50,96.6,50,96.6z"/>
			<path class="st1" d="M53.4,98.5L53.4,98.5v0.8h-1v-8.1h1v3.6l0,0c0.2-0.7,0.9-1.1,1.6-1.1c0.6,0,1.1,0.3,1.4,0.7
				c0.4,0.6,0.5,1.3,0.5,2c0,0.8-0.1,1.5-0.5,2.2c-0.3,0.5-0.9,0.8-1.5,0.8C54.1,99.4,53.6,99,53.4,98.5z M53.4,96.3V97
				c0,0.4,0.1,0.7,0.3,1c0.3,0.5,1,0.6,1.4,0.3c0.1-0.1,0.2-0.2,0.3-0.4c0.2-0.5,0.3-1,0.3-1.5c0-0.4-0.1-0.9-0.3-1.3
				c-0.2-0.3-0.5-0.5-0.8-0.5c-0.4,0-0.7,0.2-0.9,0.5C53.5,95.4,53.3,95.9,53.4,96.3L53.4,96.3z"/>
			<path class="st1" d="M58.9,99.3h-1v-8.1h1V99.3z"/>
			<path class="st1" d="M64.2,96.9H61c0,0.4,0.1,0.8,0.4,1.2c0.3,0.3,0.6,0.4,1,0.4c0.5,0,0.9-0.2,1.3-0.5v1
				c-0.5,0.3-1.1,0.5-1.7,0.5c-0.6,0-1.2-0.3-1.6-0.8c-0.4-0.6-0.5-1.4-0.5-2.1c0-0.7,0.2-1.5,0.6-2.1c0.4-0.5,1-0.8,1.6-0.8
				c0.6,0,1.1,0.2,1.5,0.7c0.4,0.6,0.5,1.3,0.5,2V96.9z M63.2,96c0-0.4-0.1-0.7-0.3-1c-0.2-0.2-0.4-0.4-0.7-0.4
				c-0.3,0-0.6,0.1-0.8,0.4c-0.2,0.3-0.4,0.7-0.4,1L63.2,96L63.2,96z"/>
			<path class="st1" d="M11.5,107.9v2.8h-1.1V103h2c0.6,0,1.3,0.2,1.7,0.6c0.4,0.5,0.7,1.1,0.6,1.7c0,0.7-0.2,1.3-0.6,1.8
				c-0.4,0.5-1.1,0.7-1.7,0.7H11.5z M11.5,104v2.8h0.7c0.4,0,0.8-0.1,1-0.4c0.3-0.3,0.4-0.7,0.4-1.1c0-0.9-0.4-1.3-1.3-1.3L11.5,104
				L11.5,104z"/>
			<path class="st1" d="M18.3,106.3c-0.2-0.1-0.4-0.2-0.6-0.2c-0.3,0-0.6,0.2-0.8,0.5c-0.2,0.4-0.3,0.9-0.3,1.3v2.6h-1v-5.4h1v1.2
				l0,0c0.1-0.3,0.2-0.7,0.5-0.9c0.2-0.2,0.4-0.3,0.7-0.3c0.1,0,0.3,0,0.4,0.1L18.3,106.3z"/>
			<path class="st1" d="M21.1,110.8c-0.6,0-1.3-0.2-1.7-0.7c-0.5-0.6-0.7-1.3-0.6-2.1c0-0.8,0.2-1.6,0.7-2.2
				c0.5-0.5,1.1-0.8,1.8-0.8c0.7,0,1.3,0.2,1.7,0.8c0.4,0.6,0.7,1.4,0.6,2.1c0,0.8-0.2,1.5-0.7,2.1
				C22.4,110.6,21.7,110.8,21.1,110.8z M21.1,106.1c-0.4,0-0.7,0.2-1,0.5c-0.3,0.4-0.4,0.9-0.4,1.4c0,0.5,0.1,1,0.4,1.4
				c0.2,0.3,0.6,0.5,1,0.5c0.4,0,0.7-0.2,1-0.5c0.3-0.4,0.4-0.9,0.4-1.4c0-0.5-0.1-1-0.3-1.4C21.9,106.2,21.5,106,21.1,106.1z"/>
			<path class="st1" d="M27,103.5c-0.1-0.1-0.3-0.1-0.5-0.2c-0.5,0-0.8,0.3-0.8,1v0.7h1.1v1h-1.1v4.5h-1v-4.5h-0.8v-1h0.8v-0.9
				c0-0.5,0.1-1,0.5-1.4c0.3-0.3,0.7-0.5,1.2-0.5c0.2,0,0.4,0,0.6,0.1V103.5z"/>
			<path class="st1" d="M31.5,108.3h-3.1c0,0.4,0.1,0.8,0.4,1.2c0.3,0.3,0.6,0.5,1,0.4c0.5,0,1-0.2,1.3-0.5v1
				c-0.5,0.3-1.1,0.5-1.7,0.5c-0.6,0-1.2-0.2-1.6-0.7c-0.4-0.6-0.6-1.4-0.6-2.1c0-0.7,0.2-1.5,0.6-2.1c0.4-0.5,1-0.8,1.6-0.8
				c0.6,0,1.1,0.3,1.5,0.7c0.4,0.6,0.6,1.3,0.5,2L31.5,108.3z M30.5,107.4c0-0.4-0.1-0.7-0.3-1c-0.2-0.2-0.4-0.4-0.7-0.4
				c-0.3,0-0.5,0.1-0.7,0.3c-0.2,0.3-0.4,0.7-0.4,1L30.5,107.4L30.5,107.4z"/>
			<path class="st1" d="M32.2,110.5v-1.2c0.3,0.3,0.8,0.5,1.3,0.5c0.6,0,1-0.2,1-0.7c0-0.1,0-0.2-0.1-0.3c-0.1-0.1-0.1-0.2-0.2-0.2
				c-0.1-0.1-0.2-0.1-0.3-0.2c-0.1,0-0.3-0.1-0.4-0.2l-0.5-0.3c-0.1-0.1-0.3-0.2-0.4-0.3c-0.1-0.1-0.2-0.3-0.2-0.4
				c0-0.2-0.1-0.4-0.1-0.6c0-0.2,0.1-0.5,0.2-0.7c0.1-0.2,0.2-0.4,0.4-0.5c0.2-0.1,0.4-0.2,0.6-0.3c0.2-0.1,0.5-0.1,0.7-0.1
				c0.4,0,0.8,0.1,1.2,0.3v1.1c-0.4-0.3-0.9-0.5-1.4-0.3c-0.1,0-0.2,0.1-0.3,0.1c-0.1,0.1-0.1,0.1-0.2,0.2c-0.1,0.2-0.1,0.4,0,0.6
				c0,0.1,0.1,0.2,0.2,0.2c0.1,0.1,0.2,0.1,0.3,0.2l0.4,0.2c0.2,0.1,0.4,0.2,0.5,0.3c0.2,0.1,0.3,0.2,0.4,0.3
				c0.1,0.1,0.2,0.3,0.2,0.4c0.1,0.2,0.1,0.4,0.1,0.6c0,0.3-0.1,0.5-0.2,0.7c-0.1,0.2-0.3,0.4-0.4,0.5c-0.2,0.1-0.4,0.2-0.6,0.3
				c-0.2,0.1-0.5,0.1-0.7,0.1C33,110.8,32.6,110.7,32.2,110.5z"/>
			<path class="st1" d="M36.1,110.5v-1.2c0.3,0.3,0.8,0.5,1.3,0.5c0.6,0,1-0.2,1-0.7c0-0.1,0-0.2-0.1-0.3c-0.1-0.1-0.1-0.2-0.2-0.2
				l-0.3-0.2l-0.4-0.2l-0.5-0.3c-0.1-0.1-0.3-0.2-0.4-0.3c-0.1-0.1-0.2-0.3-0.2-0.4c-0.1-0.2-0.1-0.4-0.1-0.6c0-0.2,0.1-0.5,0.2-0.7
				c0.1-0.2,0.2-0.4,0.4-0.5c0.2-0.1,0.4-0.2,0.6-0.3c0.2-0.1,0.5-0.1,0.7-0.1c0.4,0,0.8,0.1,1.2,0.3v1.1c-0.4-0.4-1-0.5-1.5-0.3
				c-0.1,0-0.2,0.1-0.3,0.1c-0.1,0.1-0.1,0.1-0.2,0.2c-0.1,0.2-0.1,0.4,0,0.6c0,0.1,0.1,0.2,0.2,0.2c0.1,0.1,0.2,0.1,0.3,0.2
				l0.4,0.2c0.2,0.1,0.4,0.2,0.5,0.3c0.2,0.1,0.3,0.2,0.4,0.3c0.1,0.1,0.2,0.3,0.3,0.4c0.1,0.4,0.1,0.9-0.1,1.3
				c-0.1,0.2-0.3,0.4-0.4,0.5c-0.2,0.1-0.4,0.2-0.6,0.3c-0.2,0.1-0.5,0.1-0.7,0.1C37,110.8,36.5,110.7,36.1,110.5z"/>
			<path class="st1" d="M41,104c-0.2,0-0.3-0.1-0.4-0.2c-0.1-0.1-0.2-0.3-0.2-0.5c0-0.2,0.1-0.4,0.2-0.5c0.1-0.1,0.3-0.2,0.4-0.2
				c0.2,0,0.4,0.1,0.5,0.2c0.1,0.1,0.2,0.3,0.2,0.5c0,0.2-0.1,0.4-0.2,0.5C41.3,103.9,41.1,104,41,104z M41.5,110.7h-1v-5.5h1V110.7
				z"/>
			<path class="st1" d="M44.9,110.8c-0.7,0-1.3-0.2-1.7-0.7c-0.5-0.6-0.7-1.3-0.7-2.1c0-0.8,0.2-1.6,0.7-2.2
				c0.5-0.5,1.1-0.8,1.8-0.8c0.7,0,1.3,0.2,1.7,0.8c0.4,0.6,0.7,1.4,0.6,2.1c0,0.8-0.2,1.5-0.6,2.1
				C46.2,110.6,45.5,110.8,44.9,110.8z M44.9,106.1c-0.4,0-0.7,0.2-1,0.5c-0.3,0.4-0.4,0.9-0.4,1.4c0,0.5,0.1,1,0.4,1.4
				c0.2,0.3,0.6,0.5,1,0.5c0.4,0,0.7-0.2,1-0.5c0.3-0.4,0.4-0.9,0.4-1.4c0-0.5-0.1-1-0.3-1.4c-0.2-0.3-0.5-0.5-0.9-0.5H44.9z"/>
			<path class="st1" d="M52.5,110.7h-1v-3.1c0-1-0.3-1.5-0.9-1.5c-0.3,0-0.6,0.2-0.8,0.4c-0.2,0.3-0.3,0.7-0.3,1.1v3.1h-1v-5.5h1
				v0.9l0,0c0.2-0.6,0.8-1,1.5-1c0.5,0,0.9,0.2,1.2,0.6c0.3,0.5,0.4,1.1,0.4,1.7V110.7z"/>
			<path class="st1" d="M57.3,110.7h-1v-0.9l0,0c-0.2,0.6-0.8,1-1.4,1c-0.4,0-0.8-0.1-1.1-0.4c-0.3-0.3-0.4-0.7-0.4-1.2
				c-0.1-0.9,0.5-1.7,1.4-1.8c0,0,0.1,0,0.1,0l1.4-0.2c0-0.8-0.3-1.2-0.9-1.2c-0.6,0-1.1,0.3-1.5,0.7v-1.1c0.5-0.3,1.1-0.5,1.7-0.5
				c1.2,0,1.7,0.7,1.7,2.1L57.3,110.7L57.3,110.7z M56.3,108l-1,0.2c-0.2,0-0.5,0.1-0.7,0.3c-0.2,0.2-0.2,0.4-0.2,0.7
				c0,0.2,0.1,0.4,0.2,0.6c0.1,0.2,0.3,0.2,0.6,0.2c0.3,0,0.6-0.1,0.8-0.4c0.2-0.3,0.3-0.6,0.3-1V108z"/>
			<path class="st1" d="M59.6,110.7h-1v-8.1h1V110.7z"/>
		</g>
		<g>
			<g>
				<path class="st1" d="M64.9,81.3c-0.5,0-0.9-0.2-1.3-0.5c-0.3-0.3-0.5-0.8-0.5-1.3c0-0.5,0.2-0.9,0.5-1.3c0.7-0.7,1.9-0.7,2.6,0
					c0.3,0.3,0.5,0.8,0.6,1.3c0,0.5-0.2,0.9-0.6,1.3C65.9,81.1,65.4,81.3,64.9,81.3z M64.9,77.9c-0.4,0-0.8,0.2-1.1,0.5
					c-0.6,0.6-0.6,1.5,0,2.1c0,0,0,0,0,0c0.3,0.3,0.7,0.4,1.1,0.4c0.4,0,0.8-0.1,1.1-0.4c0.6-0.6,0.6-1.6,0-2.1
					C65.7,78.1,65.3,77.9,64.9,77.9z M65.8,80.6h-0.5L65.1,80c-0.1-0.3-0.2-0.4-0.4-0.4h-0.1v0.9h-0.4v-2.3h0.7c0.2,0,0.5,0,0.7,0.2
					c0.1,0.1,0.2,0.3,0.2,0.5c0,0.1-0.1,0.3-0.2,0.4c-0.1,0.1-0.3,0.2-0.4,0.2l0,0c0.1,0,0.3,0.2,0.4,0.4L65.8,80.6z M64.6,78.7v0.6
					h0.3c0.3,0,0.4-0.1,0.4-0.3c0-0.1,0-0.2-0.1-0.2c-0.1-0.1-0.2-0.1-0.4-0.1H64.6z"/>
				<g>
					<path class="st1" d="M9.4,84.3l-0.5,1.4l0,0c-0.1-0.5-0.3-0.9-0.5-1.4l-2.6-6.5H3.3v10.4H5v-6.4c0-0.4,0-0.9,0-1.4
						c0-0.2,0-0.4,0-0.7l0,0C5,80,5.1,80.3,5.2,80.5l3.1,7.6h1.2l3.1-7.7c0-0.2,0.1-0.5,0.2-0.8l0,0c0,0.8-0.1,1.5-0.1,1.9v6.6h1.8
						V77.7H12L9.4,84.3z M16.2,80.7H18v7.5h-1.8V80.7z M17.1,77.5c-0.3,0-0.5,0.1-0.7,0.3c-0.2,0.2-0.3,0.4-0.3,0.7
						c0,0.3,0.1,0.5,0.3,0.7c0.2,0.2,0.5,0.3,0.7,0.3c0.3,0,0.5-0.1,0.7-0.3c0.2-0.2,0.3-0.4,0.3-0.7c0-0.3-0.1-0.5-0.3-0.7
						C17.6,77.6,17.4,77.5,17.1,77.5 M24.2,80.6c-0.3-0.1-0.7-0.1-1-0.1c-0.7,0-1.5,0.2-2.1,0.5c-0.6,0.3-1.1,0.8-1.4,1.5
						c-0.3,0.7-0.5,1.4-0.5,2.2c0,0.7,0.2,1.3,0.5,1.9c0.3,0.6,0.8,1,1.3,1.3c0.6,0.3,1.3,0.5,1.9,0.5c0.7,0,1.5-0.2,2.1-0.5l0,0
						v-1.6h-0.1c-0.3,0.2-0.5,0.3-0.9,0.5c-0.3,0.1-0.5,0.2-0.8,0.2c-0.6,0-1.2-0.2-1.7-0.7c-0.4-0.5-0.6-1.1-0.6-1.8
						c0-0.7,0.2-1.3,0.6-1.8c0.4-0.5,1-0.7,1.7-0.7c0.6,0,1.2,0.2,1.7,0.6H25v-1.7l0,0C24.8,80.8,24.5,80.7,24.2,80.6 M30,80.6
						c-0.4,0-0.9,0.1-1.2,0.4c-0.3,0.3-0.5,0.6-0.7,1v-1.3h-1.8v7.5h1.8v-3.8c0-0.6,0.1-1.1,0.4-1.6c0.3-0.4,0.7-0.6,1.1-0.6
						c0.2,0,0.4,0,0.5,0.1c0.1,0,0.3,0.1,0.4,0.2h0.1v-1.8 M42.4,83.7c-0.1,0-0.3-0.1-0.6-0.2c-0.2-0.1-0.4-0.2-0.5-0.3
						c-0.1-0.2-0.2-0.4-0.2-0.6c0-0.2,0.1-0.4,0.3-0.5c0.2-0.2,0.5-0.2,0.8-0.2c0.3,0,0.6,0.1,0.9,0.1c0.3,0.1,0.5,0.2,0.8,0.4v-1.6
						c-0.3-0.1-0.5-0.2-0.8-0.2c-0.3,0-0.6-0.1-0.9-0.1c-0.7,0-1.5,0.2-2.1,0.7c-0.5,0.4-0.8,1-0.8,1.6c0,0.3,0,0.6,0.2,0.9
						c0.1,0.3,0.3,0.5,0.5,0.7c0.3,0.2,0.7,0.5,1.1,0.6c0.4,0.2,0.7,0.3,0.9,0.4c0.1,0.1,0.3,0.2,0.4,0.3c0.1,0.1,0.1,0.3,0.1,0.4
						c0,0.5-0.4,0.7-1.2,0.7c-0.3,0-0.7-0.1-1-0.2c-0.4-0.1-0.7-0.3-1-0.5h-0.1v1.7c0.3,0.1,0.6,0.2,0.9,0.3c0.3,0.1,0.7,0.1,1,0.1
						c0.8,0,1.5-0.2,2.2-0.7c0.1-0.1,0.8-0.7,0.8-1.7c0-0.6-0.3-1.1-0.4-1.3C43.4,84.1,42.6,83.8,42.4,83.7z M46.1,81.7
						C45,82.7,45,84.1,45,84.5c0,1,0.4,2,1.1,2.8c0.7,0.7,1.7,1.1,2.7,1c1,0.1,2.1-0.3,2.8-1c0.7-0.8,1.1-1.8,1-2.9
						c0-0.2,0.2-1.7-1-2.8c-1.1-1.1-2.5-1-2.7-1C48.7,80.5,47.2,80.5,46.1,81.7z M50.4,86.3c-0.4,0.4-0.9,0.7-1.5,0.6
						c-0.6,0-1.1-0.2-1.5-0.6c-0.4-0.5-0.6-1.1-0.5-1.8c0-0.7,0.2-1.3,0.5-1.8c0.4-0.4,0.9-0.7,1.5-0.6c0.6,0,1.1,0.2,1.5,0.6
						c0.4,0.5,0.6,1.2,0.5,1.8C50.9,85.1,50.7,85.7,50.4,86.3 M62,82.2v-1.5h-1.8v-2.2l0,0L58.6,79l0,0v1.7h-2.7v-0.9
						c0-0.4,0.1-0.7,0.3-1c0.2-0.2,0.5-0.3,0.8-0.3c0.3,0,0.5,0.1,0.8,0.2l0,0v-1.6l0,0c-0.3-0.1-0.6-0.1-1-0.1
						c-0.5,0-1,0.1-1.4,0.3c-0.4,0.2-0.7,0.6-1,1c-0.2,0.4-0.4,0.9-0.4,1.4v1h-1.3v1.4h1.3v6h1.8v-6h2.7v3.8c0,1.6,0.7,2.4,2.2,2.4
						c0.2,0,0.5,0,0.7-0.1c0.2,0,0.4-0.1,0.6-0.2l0,0v-1.5l0,0c-0.1,0.1-0.2,0.1-0.4,0.2c-0.1,0-0.2,0-0.4,0c-0.3,0-0.6-0.1-0.8-0.3
						c-0.2-0.3-0.3-0.6-0.2-1v-3.4L62,82.2z"/>
				</g>
			</g>
			<g>
				<path class="st1" d="M37.6,81.6c-1.1-1.1-2.5-1-2.7-1c-0.2,0-1.7,0-2.9,1.1c-1.1,1.1-1.1,2.4-1.1,2.9c0,1,0.4,2,1.1,2.8
					c0.7,0.7,1.7,1.1,2.7,1c1,0.1,2.1-0.3,2.8-1c0.7-0.8,1.1-1.8,1-2.9C38.6,84.2,38.8,82.7,37.6,81.6z M36.3,86.3L36.3,86.3
					c-0.4,0.4-0.9,0.7-1.5,0.6c-0.6,0-1.1-0.2-1.5-0.6c-0.4-0.5-0.6-1.1-0.5-1.8c0-0.7,0.2-1.3,0.5-1.8c0.4-0.4,0.9-0.7,1.5-0.6
					c0.6,0,1.1,0.2,1.5,0.6c0.4,0.5,0.6,1.2,0.5,1.8C36.8,85.1,36.6,85.7,36.3,86.3z"/>
			</g>
		</g>
	</g>
</g>
</svg>
