<?xml version="1.0" encoding="utf-8"?>
<!-- Generator: Adobe Illustrator 25.4.1, SVG Export Plug-In . SVG Version: 6.00 Build 0)  -->
<svg version="1.1" id="Layer_1" xmlns="http://www.w3.org/2000/svg" xmlns:xlink="http://www.w3.org/1999/xlink" x="0px" y="0px"
	 viewBox="0 0 150 50" style="enable-background:new 0 0 150 50;" xml:space="preserve">
<style type="text/css">
	.st0{fill:#0078D7;}
	.st1{fill:#FFFFFF;}
</style>
<rect x="-2" y="-0.5" class="st0" width="153.9" height="51"/>
<g>
	<g>
		<path class="st1" d="M14.8,25c6.4-6.4,12.9-12.9,19.3-19.3C40.6,12.1,47,18.6,53.4,25L34.1,44.3C27.7,37.9,21.3,31.4,14.8,25z
			 M21.7,18.8c0,3.9,0,7.8,0,11.6h1.9c0-3.2,0-6.3-0.1-9.5c0.5,3.2,1.4,6.3,2.1,9.5h2.1c0.7-3.2,1.5-6.3,2.1-9.5c0,3.2,0,6.3,0,9.5
			h1.9c0-3.9,0-7.8,0-11.6c-1,0-2,0-3,0.1c-0.7,2.9-1.4,5.9-1.8,8.9c-0.5-3-1.3-5.9-2-8.9L21.7,18.8z M32.4,18.8
			c1,3.9,1.9,7.8,2.9,11.7c0.8,0,1.6,0,2.3,0c1-3.9,2-7.8,3-11.7h-2.2c-0.6,3-1.4,6.1-1.9,9.2c-0.5-3.1-1.2-6.1-1.8-9.2H32.4z
			 M41.3,18.8v11.6h2.3v-4c1,0.1,2-0.1,2.9-0.5c1.7-1.3,2.2-3.5,1.3-5.4c-0.5-1-1.6-1.7-2.7-1.7C43.8,18.7,42.6,18.8,41.3,18.8z"/>
		<path class="st1" d="M43.6,20.3c0.7,0,1.6,0,2,0.7c0.4,0.8,0.4,1.7,0,2.5c-0.4,0.7-1.3,0.6-2,0.6C43.6,22.9,43.6,21.6,43.6,20.3z"
			/>
	</g>
	<g>
		<g>
			<path class="st1" d="M75.7,30.8h-1.1v-5.3c0-0.4,0-1,0-1.6l0,0c0,0.3-0.1,0.5-0.2,0.8l-2,6.1h-0.8l-2-6c0-0.2-0.1-0.5-0.2-0.8
				l0,0c0,0.3,0,0.9,0,1.6v5.3h-1v-8.1h1.6l1.8,5.4c0.1,0.3,0.2,0.6,0.3,0.9l0,0c0.1-0.4,0.2-0.7,0.3-1l1.8-5.4h1.5V30.8z"/>
			<path class="st1" d="M79.4,30.9c-0.7,0-1.4-0.3-1.8-0.8c-0.5-0.6-0.7-1.4-0.7-2.2c-0.1-0.8,0.2-1.6,0.7-2.3
				c0.5-0.5,1.2-0.8,1.9-0.8c0.7,0,1.3,0.3,1.7,0.8c0.5,0.7,0.7,1.4,0.6,2.2c0,0.8-0.2,1.6-0.7,2.2C80.8,30.6,80.1,30.9,79.4,30.9z
				 M79.4,25.9c-0.4,0-0.8,0.2-1,0.6c-0.3,0.4-0.4,1-0.4,1.5c0,0.5,0.1,1,0.4,1.4c0.2,0.3,0.6,0.5,1,0.5c0.4,0,0.8-0.2,1-0.5
				c0.5-0.9,0.5-2,0-3C80.2,26.1,79.8,25.9,79.4,25.9L79.4,25.9z"/>
			<path class="st1" d="M82.8,30.6v-1.2c0.4,0.4,0.9,0.6,1.4,0.6c0.7,0,1-0.2,1-0.7c0-0.1,0-0.2-0.1-0.3c-0.1-0.1-0.1-0.2-0.2-0.3
				c-0.1-0.1-0.2-0.1-0.3-0.2L84,28.2l-0.6-0.3c-0.1-0.1-0.3-0.2-0.4-0.3c-0.1-0.1-0.2-0.3-0.2-0.5c-0.1-0.2-0.1-0.4-0.1-0.6
				c0-0.3,0.1-0.5,0.2-0.7c0.1-0.2,0.2-0.4,0.4-0.6c0.2-0.2,0.4-0.3,0.6-0.3c0.2-0.1,0.5-0.1,0.8-0.1c0.4,0,0.8,0.1,1.2,0.3v1.1
				c-0.3-0.3-0.8-0.4-1.2-0.4c-0.1,0-0.1,0-0.2,0c-0.3,0-0.5,0.2-0.5,0.3c-0.1,0.1-0.1,0.1-0.2,0.2c0,0.1,0,0.2,0,0.3
				c0,0.1,0,0.2,0,0.3c0,0.1,0.1,0.2,0.2,0.2l0.3,0.2l0.4,0.2c0.2,0.1,0.4,0.2,0.6,0.3c0.2,0.1,0.3,0.2,0.4,0.4
				c0.1,0.1,0.2,0.3,0.3,0.4c0.1,0.2,0.1,0.4,0.1,0.6c0,0.3-0.1,0.5-0.2,0.8c-0.1,0.2-0.3,0.4-0.5,0.5c-0.2,0.1-0.4,0.3-0.6,0.3
				C84.6,31,84.3,31,84.1,31C83.6,30.9,83.2,30.8,82.8,30.6z"/>
			<path class="st1" d="M89.9,30.7c-0.3,0.1-0.6,0.2-0.8,0.2c-0.9,0-1.4-0.6-1.4-1.6V26h-0.8v-1h0.8v-1.4l1.1-0.4v1.7h1.2v1h-1.2
				v2.9c0,0.3,0,0.5,0.2,0.7c0.1,0.2,0.3,0.2,0.5,0.2c0.2,0,0.4-0.1,0.5-0.2V30.7z"/>
			<path class="st1" d="M99,22.7l-2.4,8.1h-1.3l-2.4-8.1h1.2l1.7,6.2c0.1,0.2,0.1,0.5,0.1,0.7l0,0c0-0.2,0-0.5,0.1-0.7l1.7-6.1H99z"
				/>
			<path class="st1" d="M102.8,30.8h-1.1v-0.9l0,0c-0.2,0.6-0.8,1-1.5,1c-0.4,0-0.8-0.1-1.1-0.4c-0.3-0.3-0.4-0.8-0.4-1.2
				c-0.1-0.9,0.6-1.8,1.5-1.9c0,0,0,0,0,0l1.5-0.3c0-0.8-0.3-1.2-1-1.2c-0.6,0-1.2,0.3-1.6,0.7v-1.2c0.5-0.3,1.1-0.5,1.7-0.6
				c1.2,0,1.8,0.7,1.8,2.2L102.8,30.8L102.8,30.8z M101.7,27.9l-1,0.2c-0.3,0-0.5,0.1-0.7,0.3c-0.2,0.2-0.3,0.4-0.2,0.7
				c0,0.2,0.1,0.5,0.2,0.6c0.2,0.1,0.4,0.2,0.6,0.2c0.3,0,0.6-0.2,0.8-0.4c0.2-0.3,0.3-0.7,0.3-1.1V27.9z"/>
			<path class="st1" d="M105.3,30.8h-1.1v-8.6h1.1V30.8z"/>
			<path class="st1" d="M111,30.8h-1.1v-0.9l0,0c-0.2,0.6-0.8,1.1-1.5,1.1c-1.2,0-1.7-0.8-1.7-2.5V25h1.1v3.3c0,1,0.3,1.6,1,1.6
				c0.3,0,0.6-0.1,0.8-0.4c0.2-0.3,0.3-0.7,0.3-1.1V25h1.1L111,30.8L111,30.8z"/>
			<path class="st1" d="M116.2,30.8H115v-0.9l0,0c-0.2,0.6-0.8,1-1.5,1c-0.4,0-0.8-0.1-1.1-0.4c-0.3-0.4-0.4-0.8-0.4-1.2
				c-0.1-0.9,0.6-1.8,1.5-1.9c0,0,0,0,0,0l1.4-0.3c0-0.8-0.3-1.2-1-1.2c-0.6,0-1.2,0.3-1.6,0.7v-1.2c0.5-0.3,1.1-0.5,1.7-0.6
				c1.2,0,1.8,0.7,1.8,2.2v3.8L116.2,30.8z M115,27.9l-1,0.2c-0.3,0-0.5,0.1-0.7,0.3c-0.2,0.1-0.2,0.3-0.2,0.7
				c0,0.2,0.1,0.4,0.3,0.6c0.1,0.2,0.4,0.2,0.6,0.2c0.3,0,0.6-0.2,0.8-0.4c0.2-0.3,0.3-0.7,0.3-1.1L115,27.9L115,27.9z"/>
			<path class="st1" d="M118.6,30L118.6,30v0.8h-1.1v-8.6h1.1V26l0,0c0.3-0.7,1-1.2,1.7-1.2c0.6,0,1.1,0.3,1.4,0.8
				c0.4,0.6,0.6,1.4,0.5,2.1c0,0.8-0.2,1.6-0.6,2.3c-0.4,0.5-1,0.9-1.6,0.9C119.5,31,118.9,30.6,118.6,30z M118.6,27.6v0.7
				c0,0.4,0.1,0.8,0.4,1.1c0.4,0.5,1,0.6,1.5,0.2c0.1-0.1,0.2-0.2,0.3-0.4c0.3-0.5,0.4-1,0.4-1.6c0-0.5-0.1-0.9-0.3-1.3
				c-0.2-0.3-0.5-0.5-0.9-0.5c-0.4,0-0.7,0.2-0.9,0.5C118.8,26.7,118.6,27.2,118.6,27.6L118.6,27.6z"/>
			<path class="st1" d="M124.5,30.8h-1.1v-8.6h1.1V30.8z"/>
			<path class="st1" d="M130.1,28.2h-3.3c0,0.5,0.1,0.9,0.4,1.2c0.3,0.3,0.7,0.5,1.1,0.4c0.5,0,1-0.2,1.4-0.6v1
				c-0.5,0.3-1.1,0.5-1.7,0.5c-0.7,0-1.3-0.3-1.7-0.8c-0.4-0.6-0.6-1.4-0.6-2.1c0-0.8,0.2-1.6,0.7-2.2c0.4-0.6,1-0.9,1.7-0.8
				c0.6,0,1.2,0.3,1.5,0.8c0.4,0.6,0.6,1.4,0.6,2.1L130.1,28.2z M129,27.3c0-0.4,0-0.8-0.2-1.1c-0.2-0.3-0.5-0.4-0.8-0.4
				c-0.4-0.1-0.7,0.1-0.9,0.4c-0.2,0.3-0.4,0.7-0.4,1.1L129,27.3L129,27.3z"/>
		</g>
		<g>
			<path class="st1" d="M69.5,41V44h-1.1v-8.1h2.1c0.7,0,1.3,0.2,1.8,0.6c0.5,0.5,0.7,1.2,0.7,1.8c0,0.7-0.2,1.4-0.7,1.9
				c-0.5,0.5-1.1,0.8-1.8,0.7H69.5z M69.5,37v3h0.7c0.4,0,0.8-0.1,1.1-0.4c0.3-0.3,0.4-0.7,0.4-1.1c0-1-0.4-1.4-1.4-1.4L69.5,37
				L69.5,37z"/>
			<path class="st1" d="M76.7,39.4c-0.2-0.1-0.4-0.2-0.6-0.2c-0.3,0-0.7,0.2-0.8,0.5c-0.2,0.4-0.4,0.9-0.3,1.4V44h-1.1v-5.8H75v1.3
				l0,0c0.1-0.4,0.2-0.7,0.5-1c0.2-0.2,0.5-0.3,0.8-0.4c0.2,0,0.3,0,0.4,0.1L76.7,39.4z"/>
			<path class="st1" d="M79.6,44.1c-0.7,0-1.4-0.3-1.8-0.8c-0.5-0.6-0.7-1.4-0.7-2.2c0-0.8,0.2-1.6,0.7-2.3c0.5-0.5,1.2-0.8,1.9-0.8
				c0.7,0,1.3,0.3,1.7,0.8c0.5,0.7,0.7,1.5,0.7,2.3c0,0.8-0.2,1.6-0.7,2.2C81,43.9,80.3,44.2,79.6,44.1z M79.6,39.1
				c-0.4,0-0.8,0.2-1,0.6c-0.3,0.4-0.4,1-0.4,1.5c0,0.5,0.1,1,0.4,1.4c0.2,0.3,0.6,0.5,1,0.5c0.4,0,0.8-0.2,1-0.5c0.5-0.9,0.5-2,0-3
				C80.4,39.3,80,39.1,79.6,39.1L79.6,39.1z"/>
			<path class="st1" d="M85.9,36.4c-0.2-0.1-0.3-0.1-0.5-0.2c-0.6,0-0.8,0.4-0.8,1.1v0.8h1.1v1h-1.1V44h-1.1v-4.8h-0.8v-1h0.8v-0.9
				c0-0.5,0.2-1.1,0.5-1.4c0.3-0.4,0.8-0.5,1.3-0.5c0.2,0,0.4,0,0.7,0.1V36.4z"/>
			<path class="st1" d="M90.6,41.5h-3.3c0,0.5,0.1,0.9,0.4,1.2c0.3,0.3,0.7,0.5,1.1,0.4c0.5,0,1-0.2,1.4-0.6v1
				c-0.5,0.3-1.1,0.5-1.7,0.5c-0.7,0.1-1.3-0.3-1.7-0.8c-0.4-0.7-0.7-1.4-0.6-2.2c0-0.8,0.2-1.6,0.7-2.2c0.4-0.6,1-0.9,1.7-0.8
				c0.6,0,1.2,0.3,1.5,0.8c0.4,0.6,0.6,1.4,0.6,2.1L90.6,41.5z M89.5,40.5c0-0.4-0.1-0.8-0.3-1.1c-0.2-0.3-0.5-0.4-0.8-0.4
				c-0.3,0-0.6,0.1-0.8,0.4c-0.2,0.3-0.4,0.7-0.4,1.1L89.5,40.5L89.5,40.5z"/>
			<path class="st1" d="M91.3,43.8v-1.2c0.4,0.4,0.9,0.6,1.4,0.6c0.7,0,1-0.2,1-0.7c0-0.1,0-0.2-0.1-0.3c-0.1-0.1-0.1-0.2-0.2-0.3
				c-0.1-0.1-0.2-0.1-0.3-0.2l-0.5-0.2L92,41.2c-0.1-0.1-0.3-0.2-0.4-0.3c-0.1-0.1-0.2-0.3-0.2-0.5c-0.1-0.2-0.1-0.4-0.1-0.6
				c0-0.3,0.1-0.5,0.2-0.7c0.1-0.2,0.2-0.4,0.4-0.6c0.2-0.2,0.4-0.3,0.6-0.3c0.2-0.1,0.5-0.1,0.8-0.1c0.4,0,0.8,0.1,1.2,0.3v1.1
				c-0.3-0.3-0.8-0.4-1.2-0.4c-0.1,0-0.3,0-0.4,0l-0.3,0.1c-0.1,0.1-0.2,0.2-0.2,0.3c0,0.1,0,0.1,0,0.2c0,0.1,0,0.2,0,0.3
				c0,0.1,0,0.1,0,0.2c0,0.1,0.1,0.2,0.2,0.2l0.3,0.2l0.4,0.2c0.2,0.1,0.4,0.2,0.6,0.3c0.2,0.1,0.3,0.2,0.4,0.4
				c0.1,0.1,0.2,0.3,0.3,0.4c0,0.2,0,0.4,0,0.6c0,0.3-0.1,0.5-0.2,0.8c-0.1,0.2-0.3,0.4-0.5,0.5c-0.2,0.1-0.4,0.3-0.6,0.3
				c-0.3,0.1-0.5,0.1-0.8,0.1C92.1,44.1,91.7,44,91.3,43.8z"/>
			<path class="st1" d="M95.5,43.8v-1.2c0.4,0.4,0.9,0.6,1.4,0.6c0.7,0,1-0.2,1-0.7c0-0.1,0-0.2-0.1-0.3c-0.1-0.1-0.1-0.2-0.2-0.3
				c-0.1-0.1-0.2-0.1-0.3-0.2l-0.5-0.2l-0.6-0.3c-0.1-0.1-0.3-0.2-0.4-0.3c-0.1-0.1-0.2-0.3-0.2-0.5c-0.1-0.2-0.1-0.4-0.1-0.6
				c0-0.3,0.1-0.5,0.2-0.7c0.1-0.2,0.2-0.4,0.4-0.6c0.2-0.2,0.4-0.3,0.6-0.3c0.2-0.1,0.5-0.1,0.8-0.1c0.4,0,0.8,0.1,1.2,0.3v1.1
				C98.4,39.2,98,39,97.5,39c-0.1,0-0.3,0-0.4,0l-0.3,0.1c-0.1,0.1-0.1,0.1-0.2,0.2c0,0,0,0.1,0,0.1c0,0.2,0,0.3,0,0.3
				c0,0,0,0.1,0,0.2c0,0.1,0.1,0.2,0.2,0.2l0.3,0.2l0.4,0.2c0.2,0.1,0.4,0.2,0.6,0.3c0.2,0.1,0.3,0.2,0.4,0.4
				c0.1,0.1,0.2,0.3,0.3,0.4c0.1,0.2,0.1,0.4,0.1,0.6c0,0.3-0.1,0.5-0.2,0.8c-0.1,0.2-0.3,0.4-0.5,0.5c-0.2,0.1-0.4,0.3-0.6,0.3
				c-0.3,0.1-0.5,0.1-0.8,0.1C96.4,44.1,96,44,95.5,43.8z"/>
			<path class="st1" d="M100.7,37c-0.2,0-0.4-0.1-0.5-0.2c-0.1-0.2-0.2-0.3-0.2-0.6c0-0.2,0.1-0.4,0.2-0.6c0.1-0.1,0.3-0.2,0.5-0.2
				c0.2,0,0.4,0.1,0.5,0.2c0.1,0.2,0.2,0.4,0.2,0.6c0,0.2-0.1,0.4-0.2,0.5C101,36.9,100.9,37,100.7,37z M101.2,44h-1.1v-5.8h1.1V44z
				"/>
			<path class="st1" d="M104.8,44.1c-0.7,0-1.4-0.3-1.8-0.8c-0.5-0.6-0.7-1.4-0.7-2.2c-0.1-0.8,0.2-1.6,0.7-2.3
				c0.5-0.5,1.2-0.8,1.9-0.8c0.7,0,1.3,0.3,1.7,0.8c0.5,0.7,0.7,1.4,0.6,2.2c0,0.8-0.2,1.6-0.7,2.2
				C106.1,43.8,105.5,44.1,104.8,44.1z M104.8,39.1c-0.4,0-0.8,0.2-1,0.6c-0.3,0.4-0.4,1-0.4,1.5c0,0.5,0.1,1,0.4,1.4
				c0.2,0.3,0.6,0.5,1,0.5c0.4,0,0.8-0.2,1-0.5c0.5-0.9,0.5-2,0-3C105.6,39.3,105.2,39.1,104.8,39.1L104.8,39.1z"/>
			<path class="st1" d="M112.8,44h-1.1v-3.3c0-1.1-0.3-1.6-1-1.6c-0.3,0-0.7,0.2-0.8,0.5c-0.2,0.3-0.3,0.7-0.3,1.1V44h-1.1v-5.8h1.2
				v1l0,0c0.3-0.7,0.9-1.1,1.6-1.1c0.5,0,1,0.2,1.2,0.6c0.3,0.5,0.4,1.1,0.4,1.7L112.8,44L112.8,44z"/>
			<path class="st1" d="M117.9,44h-1.1v-0.9l0,0c-0.2,0.6-0.8,1-1.5,1c-0.4,0-0.8-0.1-1.1-0.4c-0.3-0.4-0.4-0.8-0.4-1.2
				c-0.1-0.9,0.6-1.8,1.5-1.9c0,0,0,0,0,0l1.4-0.3c0-0.8-0.3-1.2-1-1.2c-0.6,0-1.2,0.3-1.6,0.7v-1.2c0.5-0.3,1.1-0.5,1.7-0.6
				c1.2,0,1.8,0.7,1.8,2.2L117.9,44L117.9,44z M116.8,41.2l-1,0.2c-0.3,0-0.5,0.1-0.7,0.3c-0.2,0.1-0.2,0.3-0.2,0.7
				c0,0.2,0.1,0.5,0.2,0.6c0.1,0.2,0.4,0.2,0.6,0.2c0.3,0,0.6-0.2,0.8-0.4c0.2-0.3,0.3-0.7,0.3-1.1V41.2z"/>
			<path class="st1" d="M120.4,44h-1.1v-8.6h1.1V44z"/>
		</g>
		<g>
			<path class="st1" d="M133.2,10.4c-0.5,0-1-0.2-1.4-0.6c-0.8-0.7-0.8-2,0-2.7c0,0,0,0,0,0c0.4-0.4,0.9-0.6,1.4-0.6
				c0.5,0,1,0.2,1.4,0.6c0.8,0.7,0.8,2,0,2.7c0,0,0,0,0,0C134.2,10.2,133.7,10.4,133.2,10.4z M133.2,6.9c-0.9,0-1.6,0.7-1.6,1.5
				c0,0,0,0,0,0.1c0,0.4,0.2,0.8,0.5,1.1c0.7,0.6,1.6,0.6,2.3,0c0.3-0.3,0.5-0.7,0.5-1.1C134.8,7.7,134.1,7,133.2,6.9
				C133.2,6.9,133.2,6.9,133.2,6.9z M134.2,9.7h-0.6l-0.2-0.6c-0.1-0.3-0.3-0.4-0.4-0.4h-0.1v1h-0.5V7.3h0.7c0.2,0,0.5,0,0.7,0.2
				c0.2,0.1,0.2,0.3,0.2,0.5c0,0.2-0.1,0.3-0.2,0.4c-0.1,0.1-0.3,0.2-0.4,0.2l0,0c0.1,0,0.3,0.2,0.4,0.4L134.2,9.7z M132.9,7.6v0.7
				h0.3c0.3,0,0.4-0.1,0.4-0.3c0-0.1,0-0.2-0.1-0.3c-0.1-0.1-0.2-0.1-0.4-0.1H132.9z"/>
			<path class="st1" d="M74.5,13.6L74,15l0,0c-0.1-0.5-0.3-1-0.5-1.4l-2.8-6.9H68v11h1.7v-6.9c0-0.4,0-0.9,0-1.5c0-0.3,0-0.5,0-0.7
				l0,0C69.8,9,69.9,9.3,70,9.6l3.3,8h1.3l3.3-8.1c0.1-0.3,0.2-0.6,0.2-0.9l0,0c0,0.8,0,1.5-0.1,2v7h1.9V6.7h-2.6L74.5,13.6z
				 M81.7,9.8h1.8v7.9h-1.8V9.8z M82.7,6.4c-0.3,0-0.6,0.1-0.8,0.3c-0.2,0.2-0.3,0.5-0.3,0.8c0,0.3,0.1,0.6,0.3,0.8
				c0.2,0.2,0.5,0.3,0.8,0.3c0.3,0,0.6-0.1,0.8-0.3c0.2-0.2,0.3-0.5,0.3-0.8C83.8,6.9,83.3,6.4,82.7,6.4 M90.2,9.7
				c-0.3-0.1-0.6-0.1-1-0.1c-0.4,0-1.3,0-2.3,0.6c-0.6,0.3-1.1,0.9-1.5,1.5c-0.4,0.7-0.5,1.5-0.5,2.3c0,0.7,0.2,1.4,0.5,2
				c0.3,0.6,0.8,1.1,1.4,1.4c0.6,0.3,1.3,0.5,2,0.5c0.8,0,1.6-0.2,2.2-0.5v-1.7c-0.3,0.2-0.6,0.4-0.9,0.5c-0.3,0.1-0.6,0.2-0.9,0.2
				c-0.6,0-1.3-0.2-1.7-0.7c-0.5-0.5-0.7-1.2-0.7-1.9c0-0.7,0.2-1.3,0.6-1.9c0.4-0.5,1.1-0.7,1.7-0.7c0.6,0,1.2,0.2,1.7,0.6V10
				 M96.2,9.7c-0.5,0-0.9,0.1-1.3,0.4c-0.3,0.3-0.6,0.7-0.7,1.1l0,0V9.9h-1.8v7.9h1.9v-4.1c-0.1-0.6,0.1-1.2,0.5-1.7
				c0.3-0.4,0.7-0.7,1.2-0.7c0.2,0,0.3,0,0.6,0c0.2,0,0.3,0.1,0.4,0.2l0,0V9.9l0,0c-0.2-0.1-0.5-0.1-0.7-0.1 M98.3,10.9
				c-1.1,1.2-1.1,2.7-1.1,3.1c0,1,0.3,2,1,2.8c1.7,1.5,4.2,1.5,5.9,0c0.8-0.8,1.2-1.9,1.1-3.1c0-0.2,0.1-1.8-1-3
				c-1.2-1.2-2.7-1.1-2.9-1.1C101,9.6,99.5,9.7,98.3,10.9z M102.7,15.7c-0.4,0.4-1,0.7-1.5,0.7c-0.6,0-1.2-0.2-1.6-0.7
				c-0.4-0.5-0.6-1.2-0.6-1.9c0-0.7,0.2-1.4,0.6-1.9c0.4-0.5,1-0.7,1.6-0.7c0.6,0,1.2,0.2,1.5,0.7c0.4,0.6,0.6,1.2,0.6,1.9
				C103.3,14.4,103.1,15.1,102.7,15.7 M109.3,13c-0.4-0.1-0.8-0.3-1.1-0.6c-0.2-0.2-0.2-0.4-0.2-0.6c0-0.2,0.1-0.4,0.3-0.6
				c0.2-0.2,0.5-0.2,0.8-0.2c0.3,0,0.6,0,0.9,0.1c0.3,0.1,0.6,0.2,0.8,0.4l0,0V9.9l0,0c-0.3-0.1-0.6-0.2-0.8-0.2
				c-0.3-0.1-0.6-0.1-0.9-0.1c-0.8,0-1.6,0.2-2.2,0.7c-0.5,0.4-0.8,1-0.8,1.7c0,0.3,0,0.7,0.2,1c0.1,0.3,0.3,0.5,0.6,0.7
				c0.4,0.3,0.7,0.5,1.2,0.7c0.3,0.1,0.6,0.3,0.9,0.4c0.2,0.1,0.3,0.2,0.4,0.3c0.1,0.1,0.1,0.3,0.1,0.4c0,0.5-0.4,0.8-1.2,0.8
				c-0.3,0-0.7-0.1-1-0.2c-0.4-0.1-0.7-0.3-1-0.5l0,0v1.8l0,0c0.3,0.1,0.6,0.2,1,0.3c0.4,0.1,0.7,0.1,1.1,0.1
				c0.8,0.1,1.6-0.2,2.3-0.7c0.6-0.4,0.9-1.1,0.9-1.8c0-0.5-0.1-1-0.4-1.3C110.5,13.6,109.9,13.3,109.3,13 M113.3,10.7
				c-1.1,1.1-1.1,2.6-1.1,3.1c0,1.1,0.3,2.1,1.1,2.9c0.8,0.7,1.8,1.1,2.9,1.1c1.1,0.1,2.2-0.3,3-1.1c0.8-0.8,1.2-1.9,1.1-3.1
				c0-0.2,0.2-1.8-1-3c-1.2-1.2-2.7-1.1-2.9-1.1C116.1,9.6,114.5,9.5,113.3,10.7z M117.9,15.7c-0.8,0.9-2.2,0.9-3.1,0.1
				c0,0,0,0-0.1-0.1c-0.4-0.5-0.6-1.2-0.6-1.9c0-0.7,0.2-1.4,0.6-1.9c0.4-0.5,1-0.7,1.6-0.7c0.6,0,1.1,0.2,1.5,0.7
				c0.4,0.5,0.7,1.2,0.7,1.9C118.5,14.4,118.3,15.1,117.9,15.7 M130.3,11.3V9.8h-1.9V7.4l0,0L126.6,8l0,0v1.7h-3V8.8
				c0-0.4,0.1-0.7,0.3-1c0.2-0.2,0.5-0.4,0.9-0.3c0.3,0,0.6,0.1,0.8,0.2l0,0V6l0,0c-0.3-0.1-0.7-0.2-1-0.2c-0.5,0-1,0.1-1.5,0.3
				c-0.4,0.2-0.8,0.6-1,1c-0.2,0.4-0.4,1-0.4,1.5v1.1h-1.3v1.5h1.3v6.4h1.9v-6.4h2.8v4.1c0,1.7,0.8,2.5,2.4,2.5c0.3,0,0.5,0,0.8-0.1
				c0.2,0,0.4-0.1,0.6-0.2l0,0v-1.5l0,0c-0.1,0.1-0.2,0.2-0.4,0.2c-0.1,0-0.3,0-0.4,0c-0.3,0-0.6-0.1-0.8-0.3
				c-0.2-0.3-0.3-0.6-0.3-1v-3.6H130.3z"/>
		</g>
	</g>
</g>
</svg>
