<svg width="370" height="821" viewBox="0 0 370 821" fill="none" xmlns="http://www.w3.org/2000/svg">
<g style="mix-blend-mode:hard-light" opacity="0.9">
<path d="M28.8362 264.913L36.6455 264.859L43.2497 271.838L150.872 271.099L150.875 271.48L97.1011 271.849L74.5453 294.717L60.6521 294.812L60.6495 294.432L74.3851 294.338L96.5632 271.853L57.0632 272.124L45.9016 283.44L34.3498 283.519L34.3472 283.139L45.7414 283.061L56.5252 272.128L43.087 272.22L36.4828 265.241L28.8388 265.293L28.8362 264.913Z" fill="url(#paint0_linear_211_2)"/>
<path d="M28.8362 264.913L36.6455 264.859L43.2497 271.838L150.872 271.099L150.875 271.48L97.1011 271.849L74.5453 294.717L60.6521 294.812L60.6495 294.432L74.3851 294.338L96.5632 271.853L57.0632 272.124L45.9016 283.44L34.3498 283.519L34.3472 283.139L45.7414 283.061L56.5252 272.128L43.087 272.22L36.4828 265.241L28.8388 265.293L28.8362 264.913Z" fill="url(#paint1_linear_211_2)"/>
<path d="M87.0797 245.781L70.8529 245.892L70.8555 246.273L97.2309 246.091L103.835 253.071L150.746 252.748L150.744 252.368L103.998 252.689L97.3936 245.71L87.568 245.777L79.833 236.301L79.5383 236.542L87.0797 245.781Z" fill="url(#paint2_linear_211_2)"/>
<path d="M87.0797 245.781L70.8529 245.892L70.8555 246.273L97.2309 246.091L103.835 253.071L150.746 252.748L150.744 252.368L103.998 252.689L97.3936 245.71L87.568 245.777L79.833 236.301L79.5383 236.542L87.0797 245.781Z" fill="url(#paint3_linear_211_2)"/>
<circle cx="60.8853" cy="294.622" r="1.17074" transform="rotate(-90.3935 60.8853 294.622)" fill="#04E7E8"/>
<circle cx="34.5806" cy="283.331" r="1.17074" transform="rotate(-90.3935 34.5806 283.331)" fill="#04E7E8"/>
<circle cx="28.3736" cy="265.108" r="1.17074" transform="rotate(-90.3935 28.3736 265.108)" fill="#04E7E8"/>
<circle cx="70.3892" cy="246.089" r="1.17074" transform="rotate(-90.3935 70.3892 246.089)" fill="#04E7E8"/>
<circle cx="79.69" cy="236.659" r="1.17074" transform="rotate(-90.3935 79.69 236.659)" fill="#04E7E8"/>
</g>
<g style="mix-blend-mode:hard-light" opacity="0.9">
<path d="M319.836 481.913L327.645 481.859L334.25 488.838L441.872 488.099L441.875 488.48L388.101 488.849L365.545 511.717L351.652 511.812L351.65 511.432L365.385 511.338L387.563 488.853L348.063 489.124L336.902 500.44L325.35 500.519L325.347 500.139L336.741 500.061L347.525 489.128L334.087 489.22L327.483 482.241L319.839 482.293L319.836 481.913Z" fill="url(#paint4_linear_211_2)"/>
<path d="M319.836 481.913L327.645 481.859L334.25 488.838L441.872 488.099L441.875 488.48L388.101 488.849L365.545 511.717L351.652 511.812L351.65 511.432L365.385 511.338L387.563 488.853L348.063 489.124L336.902 500.44L325.35 500.519L325.347 500.139L336.741 500.061L347.525 489.128L334.087 489.22L327.483 482.241L319.839 482.293L319.836 481.913Z" fill="url(#paint5_linear_211_2)"/>
<path d="M378.08 462.781L361.853 462.892L361.856 463.273L388.231 463.091L394.835 470.071L441.746 469.748L441.744 469.368L394.998 469.689L388.394 462.71L378.568 462.777L370.833 453.301L370.538 453.542L378.08 462.781Z" fill="url(#paint6_linear_211_2)"/>
<path d="M378.08 462.781L361.853 462.892L361.856 463.273L388.231 463.091L394.835 470.071L441.746 469.748L441.744 469.368L394.998 469.689L388.394 462.71L378.568 462.777L370.833 453.301L370.538 453.542L378.08 462.781Z" fill="url(#paint7_linear_211_2)"/>
<circle cx="351.885" cy="511.622" r="1.17074" transform="rotate(-90.3935 351.885 511.622)" fill="#04E7E8"/>
<circle cx="325.581" cy="500.331" r="1.17074" transform="rotate(-90.3935 325.581 500.331)" fill="#04E7E8"/>
<circle cx="319.374" cy="482.108" r="1.17074" transform="rotate(-90.3935 319.374 482.108)" fill="#04E7E8"/>
<circle cx="361.389" cy="463.089" r="1.17074" transform="rotate(-90.3935 361.389 463.089)" fill="#04E7E8"/>
<circle cx="370.69" cy="453.659" r="1.17074" transform="rotate(-90.3935 370.69 453.659)" fill="#04E7E8"/>
</g>
<g style="mix-blend-mode:hard-light" opacity="0.9">
<path d="M91.0417 791.101L83.2322 791.114L76.6645 784.101L-30.9606 784.277L-30.9612 783.897L22.8139 783.809L45.4888 761.059L59.3823 761.036L59.3829 761.417L45.647 761.439L23.3518 783.808L62.8527 783.743L74.0733 772.485L85.6253 772.466L85.6259 772.847L74.2315 772.866L63.3907 783.742L76.8292 783.72L83.3968 790.734L91.041 790.721L91.0417 791.101Z" fill="url(#paint8_linear_211_2)"/>
<path d="M91.0417 791.101L83.2322 791.114L76.6645 784.101L-30.9606 784.277L-30.9612 783.897L22.8139 783.809L45.4888 761.059L59.3823 761.036L59.3829 761.417L45.647 761.439L23.3518 783.808L62.8527 783.743L74.0733 772.485L85.6253 772.466L85.6259 772.847L74.2315 772.866L63.3907 783.742L76.8292 783.72L83.3968 790.734L91.041 790.721L91.0417 791.101Z" fill="url(#paint9_linear_211_2)"/>
<path d="M32.6989 809.929L48.9261 809.902L48.9255 809.522L22.5495 809.565L15.9819 802.552L-30.9303 802.629L-30.9296 803.009L15.8172 802.932L22.3848 809.946L32.2106 809.93L39.896 819.446L40.192 819.207L32.6989 809.929Z" fill="url(#paint10_linear_211_2)"/>
<path d="M32.6989 809.929L48.9261 809.902L48.9255 809.522L22.5495 809.565L15.9819 802.552L-30.9303 802.629L-30.9296 803.009L15.8172 802.932L22.3848 809.946L32.2106 809.93L39.896 819.446L40.192 819.207L32.6989 809.929Z" fill="url(#paint11_linear_211_2)"/>
<circle cx="59.1476" cy="761.225" r="1.17074" transform="rotate(89.9059 59.1476 761.225)" fill="#04E7E8"/>
<circle cx="85.3937" cy="772.655" r="1.17074" transform="rotate(89.9059 85.3937 772.655)" fill="#04E7E8"/>
<circle cx="91.507" cy="790.909" r="1.17074" transform="rotate(89.9059 91.507 790.909)" fill="#04E7E8"/>
<circle cx="49.3898" cy="809.71" r="1.17074" transform="rotate(89.9059 49.3898 809.71)" fill="#04E7E8"/>
<circle cx="40.0421" cy="819.091" r="1.17074" transform="rotate(89.9059 40.0421 819.091)" fill="#04E7E8"/>
</g>
<g style="mix-blend-mode:hard-light" opacity="0.9">
<path d="M283.836 29.9129L291.645 29.8592L298.25 36.8385L405.872 36.0994L405.875 36.4798L352.101 36.8491L329.545 59.7168L315.652 59.8122L315.65 59.4318L329.385 59.3375L351.563 36.8528L312.063 37.124L300.902 48.44L289.35 48.5193L289.347 48.1389L300.741 48.0607L311.525 37.1277L298.087 37.22L291.483 30.2408L283.839 30.2933L283.836 29.9129Z" fill="url(#paint12_linear_211_2)"/>
<path d="M283.836 29.9129L291.645 29.8592L298.25 36.8385L405.872 36.0994L405.875 36.4798L352.101 36.8491L329.545 59.7168L315.652 59.8122L315.65 59.4318L329.385 59.3375L351.563 36.8528L312.063 37.124L300.902 48.44L289.35 48.5193L289.347 48.1389L300.741 48.0607L311.525 37.1277L298.087 37.22L291.483 30.2408L283.839 30.2933L283.836 29.9129Z" fill="url(#paint13_linear_211_2)"/>
<path d="M342.08 10.7807L325.853 10.8921L325.856 11.2725L352.231 11.0914L358.835 18.0706L405.746 17.7485L405.744 17.3681L358.998 17.6891L352.394 10.7099L342.568 10.7773L334.833 1.30113L334.538 1.54168L342.08 10.7807Z" fill="url(#paint14_linear_211_2)"/>
<path d="M342.08 10.7807L325.853 10.8921L325.856 11.2725L352.231 11.0914L358.835 18.0706L405.746 17.7485L405.744 17.3681L358.998 17.6891L352.394 10.7099L342.568 10.7773L334.833 1.30113L334.538 1.54168L342.08 10.7807Z" fill="url(#paint15_linear_211_2)"/>
<circle cx="315.885" cy="59.622" r="1.17074" transform="rotate(-90.3935 315.885 59.622)" fill="#04E7E8"/>
<circle cx="289.581" cy="48.331" r="1.17074" transform="rotate(-90.3935 289.581 48.331)" fill="#04E7E8"/>
<circle cx="283.374" cy="30.1084" r="1.17074" transform="rotate(-90.3935 283.374 30.1084)" fill="#04E7E8"/>
<circle cx="325.389" cy="11.0888" r="1.17074" transform="rotate(-90.3935 325.389 11.0888)" fill="#04E7E8"/>
<circle cx="334.69" cy="1.65914" r="1.17074" transform="rotate(-90.3935 334.69 1.65914)" fill="#04E7E8"/>
</g>
<defs>
<linearGradient id="paint0_linear_211_2" x1="42.4248" y1="277.017" x2="56.6938" y2="278.848" gradientUnits="userSpaceOnUse">
<stop stop-color="white"/>
<stop offset="1" stop-color="white" stop-opacity="0"/>
</linearGradient>
<linearGradient id="paint1_linear_211_2" x1="146.223" y1="258.803" x2="68.8462" y2="264.09" gradientUnits="userSpaceOnUse">
<stop stop-color="#388EE9"/>
<stop offset="0.489" stop-color="#04E7E8"/>
<stop offset="0.9981" stop-color="#388EE9"/>
</linearGradient>
<linearGradient id="paint2_linear_211_2" x1="42.4248" y1="277.017" x2="56.6938" y2="278.848" gradientUnits="userSpaceOnUse">
<stop stop-color="white"/>
<stop offset="1" stop-color="white" stop-opacity="0"/>
</linearGradient>
<linearGradient id="paint3_linear_211_2" x1="146.223" y1="258.803" x2="68.8462" y2="264.09" gradientUnits="userSpaceOnUse">
<stop stop-color="#388EE9"/>
<stop offset="0.489" stop-color="#04E7E8"/>
<stop offset="0.9981" stop-color="#388EE9"/>
</linearGradient>
<linearGradient id="paint4_linear_211_2" x1="333.425" y1="494.017" x2="347.694" y2="495.848" gradientUnits="userSpaceOnUse">
<stop stop-color="white"/>
<stop offset="1" stop-color="white" stop-opacity="0"/>
</linearGradient>
<linearGradient id="paint5_linear_211_2" x1="437.223" y1="475.803" x2="359.846" y2="481.09" gradientUnits="userSpaceOnUse">
<stop stop-color="#388EE9"/>
<stop offset="0.489" stop-color="#04E7E8"/>
<stop offset="0.9981" stop-color="#388EE9"/>
</linearGradient>
<linearGradient id="paint6_linear_211_2" x1="333.425" y1="494.017" x2="347.694" y2="495.848" gradientUnits="userSpaceOnUse">
<stop stop-color="white"/>
<stop offset="1" stop-color="white" stop-opacity="0"/>
</linearGradient>
<linearGradient id="paint7_linear_211_2" x1="437.223" y1="475.803" x2="359.846" y2="481.09" gradientUnits="userSpaceOnUse">
<stop stop-color="#388EE9"/>
<stop offset="0.489" stop-color="#04E7E8"/>
<stop offset="0.9981" stop-color="#388EE9"/>
</linearGradient>
<linearGradient id="paint8_linear_211_2" x1="77.5165" y1="778.927" x2="63.2572" y2="777.021" gradientUnits="userSpaceOnUse">
<stop stop-color="white"/>
<stop offset="1" stop-color="white" stop-opacity="0"/>
</linearGradient>
<linearGradient id="paint9_linear_211_2" x1="-26.3756" y1="796.598" x2="51.0278" y2="791.716" gradientUnits="userSpaceOnUse">
<stop stop-color="#388EE9"/>
<stop offset="0.489" stop-color="#04E7E8"/>
<stop offset="0.9981" stop-color="#388EE9"/>
</linearGradient>
<linearGradient id="paint10_linear_211_2" x1="77.5165" y1="778.927" x2="63.2572" y2="777.021" gradientUnits="userSpaceOnUse">
<stop stop-color="white"/>
<stop offset="1" stop-color="white" stop-opacity="0"/>
</linearGradient>
<linearGradient id="paint11_linear_211_2" x1="-26.3756" y1="796.598" x2="51.0278" y2="791.716" gradientUnits="userSpaceOnUse">
<stop stop-color="#388EE9"/>
<stop offset="0.489" stop-color="#04E7E8"/>
<stop offset="0.9981" stop-color="#388EE9"/>
</linearGradient>
<linearGradient id="paint12_linear_211_2" x1="297.425" y1="42.0169" x2="311.694" y2="43.8485" gradientUnits="userSpaceOnUse">
<stop stop-color="white"/>
<stop offset="1" stop-color="white" stop-opacity="0"/>
</linearGradient>
<linearGradient id="paint13_linear_211_2" x1="401.223" y1="23.8033" x2="323.846" y2="29.0898" gradientUnits="userSpaceOnUse">
<stop stop-color="#388EE9"/>
<stop offset="0.489" stop-color="#04E7E8"/>
<stop offset="0.9981" stop-color="#388EE9"/>
</linearGradient>
<linearGradient id="paint14_linear_211_2" x1="297.425" y1="42.0169" x2="311.694" y2="43.8485" gradientUnits="userSpaceOnUse">
<stop stop-color="white"/>
<stop offset="1" stop-color="white" stop-opacity="0"/>
</linearGradient>
<linearGradient id="paint15_linear_211_2" x1="401.223" y1="23.8033" x2="323.846" y2="29.0898" gradientUnits="userSpaceOnUse">
<stop stop-color="#388EE9"/>
<stop offset="0.489" stop-color="#04E7E8"/>
<stop offset="0.9981" stop-color="#388EE9"/>
</linearGradient>
</defs>
</svg>
