<?xml version="1.0" standalone="no"?>
<!DOCTYPE svg PUBLIC "-//W3C//DTD SVG 20010904//EN"
 "http://www.w3.org/TR/2001/REC-SVG-20010904/DTD/svg10.dtd">
<svg version="1.0" xmlns="http://www.w3.org/2000/svg"
 width="700.000000pt" height="700.000000pt" viewBox="0 0 700.000000 700.000000"
 preserveAspectRatio="xMidYMid meet">
<metadata>
Created by potrace 1.11, written by Peter Selinger 2001-2013
</metadata>
<g transform="translate(0.000000,700.000000) scale(0.100000,-0.100000)"
fill="#000000" stroke="none">
<path d="M1529 6428 c-35 -42 -150 -189 -187 -238 -45 -60 -146 -235 -191
-331 -115 -244 -174 -519 -148 -691 22 -147 128 -338 246 -443 141 -125 376
-219 560 -224 34 -1 16 -15 -22 -18 -447 -32 -753 139 -897 501 -15 39 -31 70
-34 69 -13 -4 -98 -119 -152 -206 -232 -374 -463 -1012 -589 -1627 -49 -238
-81 -470 -65 -470 3 0 12 30 18 68 11 66 24 128 46 230 65 297 191 686 303
932 14 30 23 55 22 55 -2 0 6 15 19 33 13 17 21 32 18 32 -8 0 131 247 192
339 66 101 162 236 162 229 0 -8 -28 -85 -44 -121 -8 -17 -25 -57 -39 -87
-240 -530 -401 -982 -453 -1270 -4 -25 -8 -47 -9 -50 -1 -3 -5 -30 -9 -60 -5
-30 -10 -63 -11 -72 -4 -18 -14 -116 -20 -183 -5 -64 -16 -168 -20 -195 -2
-14 -7 -50 -10 -80 -4 -30 -8 -57 -10 -60 -2 -3 -7 -33 -10 -65 -4 -33 -9 -62
-10 -65 -2 -3 -6 -23 -9 -45 -4 -22 -22 -116 -40 -210 -19 -93 -33 -171 -32
-172 1 -2 56 21 171 72 28 12 88 39 135 60 176 78 310 144 352 173 40 28 70
55 217 195 l54 52 16 -25 c18 -29 148 -178 200 -231 20 -20 55 -56 77 -80 47
-50 230 -226 289 -279 34 -30 81 -70 200 -169 89 -74 319 -235 470 -328 398
-247 753 -380 1086 -409 40 -3 91 -12 113 -19 36 -11 811 -303 861 -325 206
-88 294 -100 470 -65 101 20 227 89 299 163 l47 48 72 -13 c109 -19 164 -19
187 2 11 10 19 20 18 24 -3 13 22 149 68 356 32 147 36 207 17 255 -42 110
-48 271 -14 393 44 162 64 185 223 262 304 148 557 462 796 987 143 316 258
659 327 978 2 8 8 36 14 63 6 26 14 64 17 83 3 20 7 46 10 58 17 89 44 251 49
301 4 33 9 72 10 88 4 27 3 27 -24 11 -14 -9 -56 -56 -91 -105 -176 -241 -392
-522 -430 -559 -3 -3 -43 -47 -90 -99 -252 -280 -487 -474 -699 -579 -115 -56
-139 -66 -211 -86 -91 -25 -110 -28 -225 -33 -89 -4 -126 -1 -192 16 -83 20
-225 80 -237 99 -3 5 18 50 47 98 266 444 384 762 412 1104 l5 65 -72 -80
c-273 -302 -526 -511 -779 -643 -183 -96 -273 -100 -339 -15 -12 16 -43 51
-69 78 -82 86 -129 168 -171 296 -24 75 -50 243 -39 247 5 2 46 -6 93 -18 126
-31 199 -30 272 5 127 62 285 269 362 477 23 62 68 231 76 289 15 105 20 176
18 289 -3 139 -6 166 -18 163 -5 -1 -56 -30 -114 -66 -305 -186 -603 -286
-830 -279 -116 4 -152 26 -299 186 -62 67 -131 116 -273 193 -68 37 -128 72
-135 77 -33 29 -50 41 -135 97 -283 184 -560 244 -732 161 l-37 -18 112 -159
c112 -161 191 -267 218 -295 55 -56 113 -185 102 -225 -1 -5 1 -6 5 -2 5 4 9
18 10 30 1 12 3 37 5 55 l3 34 18 -22 c25 -30 27 -93 8 -187 -13 -61 -94 -224
-136 -274 -62 -73 -133 -138 -174 -159 l-43 -22 6 24 c22 87 30 394 14 518
-13 96 -32 203 -49 265 -5 22 -12 48 -13 57 -7 36 -64 205 -95 283 -40 102
-117 246 -182 344 -59 87 -200 231 -226 231 -10 0 -34 -19 -53 -42z m1675
-3492 c89 -37 169 -134 161 -196 -1 -14 -3 -30 -4 -37 0 -6 -24 -19 -52 -28
-74 -25 -145 -15 -251 35 -47 22 -93 40 -101 40 -9 0 -22 3 -31 6 -14 5 -14 9
-1 34 8 15 28 39 45 53 l30 26 -37 -6 c-21 -3 -55 -11 -75 -18 -21 -7 -38 -9
-38 -5 0 19 97 91 139 104 58 18 164 14 215 -8z"/>
</g>
</svg>
